<?xml version="1.0" encoding="UTF-8" standalone="no"?><svg xmlns="http://www.w3.org/2000/svg" xmlns:xlink="http://www.w3.org/1999/xlink" contentScriptType="application/ecmascript" contentStyleType="text/css" height="542px" preserveAspectRatio="none" style="width:872px;height:542px;" version="1.1" viewBox="0 0 872 542"
    width="872px" zoomAndPan="magnify"><defs><filter height="300%" id="fzvr1zi6dbqsr" width="300%" x="-1" y="-1"><feGaussianBlur result="blurOut" stdDeviation="2.0"/><feColorMatrix in="blurOut" result="blurOut2" type="matrix" values="0 0 0 0 0 0 0 0 0 0 0 0 0 0 0 0 0 0 .4 0"/><feOffset dx="4.0" dy="4.0" in="blurOut2" result="blurOut3"/><feBlend in="SourceGraphic" in2="blurOut3" mode="normal"/></filter></defs><g><!--cluster AWS-Client--><path d="M25,145 C25,142 27,140 30,140 C33,140 35,142 35,145 C35,142 37,140 40,140 C43,140 45,142 45,145 C45,142 47,140 50,140 C53,140 55,142 55,145 C55,142 57,140 60,140 C63,140 65,142 65,145 C65,142 67,140 70,140 C73,140 75,142 75,145 C75,142 77,140 80,140 C83,140 85,142 85,145 C85,142 87,140 90,140 C93,140 95,142 95,145 C95,142 97,140 100,140 C103,140 105,142 105,145 C105,142 107,140 110,140 C113,140 115,142 115,145 C115,142 117,140 120,140 C123,140 125,142 125,145 C125,142 127,140 130,140 C133,140 135,142 135,145 C135,142 137,140 140,140 C143,140 145,142 145,145 C145,142 147,140 150,140 C153,140 155,142 155,145 C155,142 157,140 160,140 C163,140 165,142 165,145 C165,142 167,140 170,140 C173,140 175,142 175,145 C175,142 177,140 180,140 C183,140 185,142 185,145 C185,142 187,140 190,140 C193,140 195,142 195,145 C195,142 197,140 200,140 C203,140 205,142 205,145 C205,142 207,140 210,140 C213,140 215,142 215,145 C215,142 217,140 220,140 C223,140 225,142 225,145 C225,142 227,140 230,140 C233,140 235,142 235,145 C235,142 237,140 240,140 C243,140 245,142 245,145 C245,142 247,140 250,140 C253,140 255,142 255,145 C255,142 257,140 260,140 C263,140 265,142 265,145 C265,142 267,140 270,140 C273,140 275,142 275,145 C275,142 277,140 280,140 C283,140 285,142 285,145 C285,142 287,140 290,140 C293,140 295,142 295,145 C295,142 297,140 300,140 C303,140 305,142 305,145 C305,142 307,140 310,140 C313,140 315,142 315,145 C315,142 317,140 320,140 C323,140 325,142 325,145 C325,142 327,140 330,140 C333,140 335,142 335,145 C335,142 337,140 340,140 C343,140 345,142 345,145 C345,142 347,140 350,140 C353,140 355,142 355,145 C355,142 357,140 360,140 C363,140 365,142 365,145 C365,142 367,140 370,140 C373,140 375,142 375,145 C375,142 377,140 380,140 C383,140 385,142 385,145 C385,142 387,140 390,140 C393,140 395,142 395,145 C395,142 397,140 400,140 C403,140 405,142 405,145 C405,142 407,140 410,140 C413,140 415,142 415,145 C415,142 417,140 420,140 C423,140 425,142 425,145 C425,142 427,140 430,140 C433,140 435,142 435,145 C435,142 437,140 440,140 C443,140 445,142 445,145 C445,142 447,140 450,140 C453,140 455,142 455,145 C455,142 457,140 460,140 C463,140 465,142 465,145 C465,142 467,140 470,140 C473,140 475,142 475,145 C475,142 477,140 480,140 C483,140 485,142 485,145 C485,142 487,140 490,140 C493,140 495,142 495,145 C495,142 497,140 500,140 C503,140 505,142 505,145 C505,142 507,140 510,140 C513,140 515,142 515,145 C515,142 517,140 520,140 C523,140 525,142 525,145 C525,142 527,140 530,140 C533,140 535,142 535,145 C535,142 537,140 540,140 C543,140 545,142 545,145 C545,142 547,140 550,140 C553,140 555,142 555,145 C555,142 557,140 560,140 C563,140 565,142 565,145 C565,142 567,140 570,140 C573,140 575,142 575,145 C575,142 577,140 580,140 C583,140 585,142 585,145 C585,142 587,140 590,140 C593,140 595,142 595,145 C595,142 597,140 600,140 C603,140 605,142 605,145 C605,142 607,140 610,140 C613,140 615,142 615,145 C615,142 617,140 620,140 C623,140 625,142 625,145 C625,142 627,140 630,140 C633,140 635,142 635,145 C635,142 637,140 640,140 C643,140 645,142 645,145 C645,142 647,140 650,140 C653,140 655,142 655,145 C655,142 657,140 660,140 C663,140 665,142 665,145 C665,142 667,140 670,140 C673,140 675,142 675,145 C675,142 677,140 680,140 C683,140 685,142 685,145 C685,142 687,140 690,140 C693,140 695,142 695,145 C695,142 697,140 700,140 C703,140 705,142 705,145 C705,142 707,140 710,140 C713,140 715,142 715,145 C715,142 717,140 720,140 C723,140 725,142 725,145 C725,142 727,140 730,140 C733,140 735,142 735,145 C735,142 737,140 740,140 C743,140 745,142 745,145 C745,142 747,140 750,140 C753,140 755,142 755,145 C755,142 757,140 760,140 C763,140 765,142 765,145 C765,142 767,140 770,140 C773,140 775,142 775,145 C775,142 777,140 780,140 C783,140 785,142 785,145 C785,142 787,140 790,140 C793,140 795,142 795,145 C795,142 797,140 800,140 C803,140 805,142 805,145 C805,142 807,140 810,140 C813,140 815,142 815,145 C815,142 817,140 820,140 C823,140 825,142 825,145 C825,142 827,140 830,140 C833,140 835,142 835,145 C835,142 837,140 840,140 C843,140 845,142 845,145 C845,142 847,140 850,140 C853,140 855,142 855,145 C858,145 860,147 860,150 C860,153 858,155 855,155 C858,155 860,157 860,160 C860,163 858,165 855,165 C858,165 860,167 860,170 C860,173 858,175 855,175 C858,175 860,177 860,180 C860,183 858,185 855,185 C858,185 860,187 860,190 C860,193 858,195 855,195 C858,195 860,197 860,200 C860,203 858,205 855,205 C858,205 860,207 860,210 C860,213 858,215 855,215 C858,215 860,217 860,220 C860,223 858,225 855,225 C858,225 860,227 860,230 C860,233 858,235 855,235 C858,235 860,237 860,240 C860,243 858,245 855,245 C858,245 860,247 860,250 C860,253 858,255 855,255 C858,255 860,257 860,260 C860,263 858,265 855,265 C858,265 860,267 860,270 C860,273 858,275 855,275 C858,275 860,277 860,280 C860,283 858,285 855,285 C858,285 860,287 860,290 C860,293 858,295 855,295 C858,295 860,297 860,300 C860,303 858,305 855,305 C858,305 860,307 860,310 C860,313 858,315 855,315 C858,315 860,317 860,320 C860,323 858,325 855,325 C858,325 860,327 860,330 C860,333 858,335 855,335 C858,335 860,337 860,340 C860,343 858,345 855,345 C858,345 860,347 860,350 C860,353 858,355 855,355 C858,355 860,357 860,360 C860,363 858,365 855,365 C858,365 860,367 860,370 C860,373 858,375 855,375 C858,375 860,377 860,380 C860,383 858,385 855,385 C858,385 860,387 860,390 C860,393 858,395 855,395 C858,395 860,397 860,400 C860,403 858,405 855,405 C858,405 860,407 860,410 C860,413 858,415 855,415 C858,415 860,417 860,420 C860,423 858,425 855,425 C858,425 860,427 860,430 C860,433 858,435 855,435 C858,435 860,437 860,440 C860,443 858,445 855,445 C858,445 860,447 860,450 C860,453 858,455 855,455 C858,455 860,457 860,460 C860,463 858,465 855,465 C858,465 860,467 860,470 C860,473 858,475 855,475 C858,475 860,477 860,480 C860,483 858,485 855,485 C858,485 860,487 860,490 C860,493 858,495 855,495 C858,495 860,497 860,500 C860,503 858,505 855,505 C858,505 860,507 860,510 C860,513 858,515 855,515 C858,515 860,517 860,520 C860,523 858,525 855,525 C855,528 852,530 850,530 C847,530 845,528 845,525 C845,528 842,530 840,530 C837,530 835,528 835,525 C835,528 832,530 830,530 C827,530 825,528 825,525 C825,528 822,530 820,530 C817,530 815,528 815,525 C815,528 812,530 810,530 C807,530 805,528 805,525 C805,528 802,530 800,530 C797,530 795,528 795,525 C795,528 792,530 790,530 C787,530 785,528 785,525 C785,528 782,530 780,530 C777,530 775,528 775,525 C775,528 772,530 770,530 C767,530 765,528 765,525 C765,528 762,530 760,530 C757,530 755,528 755,525 C755,528 752,530 750,530 C747,530 745,528 745,525 C745,528 742,530 740,530 C737,530 735,528 735,525 C735,528 732,530 730,530 C727,530 725,528 725,525 C725,528 722,530 720,530 C717,530 715,528 715,525 C715,528 712,530 710,530 C707,530 705,528 705,525 C705,528 702,530 700,530 C697,530 695,528 695,525 C695,528 692,530 690,530 C687,530 685,528 685,525 C685,528 682,530 680,530 C677,530 675,528 675,525 C675,528 672,530 670,530 C667,530 665,528 665,525 C665,528 662,530 660,530 C657,530 655,528 655,525 C655,528 652,530 650,530 C647,530 645,528 645,525 C645,528 642,530 640,530 C637,530 635,528 635,525 C635,528 632,530 630,530 C627,530 625,528 625,525 C625,528 622,530 620,530 C617,530 615,528 615,525 C615,528 612,530 610,530 C607,530 605,528 605,525 C605,528 602,530 600,530 C597,530 595,528 595,525 C595,528 592,530 590,530 C587,530 585,528 585,525 C585,528 582,530 580,530 C577,530 575,528 575,525 C575,528 572,530 570,530 C567,530 565,528 565,525 C565,528 562,530 560,530 C557,530 555,528 555,525 C555,528 552,530 550,530 C547,530 545,528 545,525 C545,528 542,530 540,530 C537,530 535,528 535,525 C535,528 532,530 530,530 C527,530 525,528 525,525 C525,528 522,530 520,530 C517,530 515,528 515,525 C515,528 512,530 510,530 C507,530 505,528 505,525 C505,528 502,530 500,530 C497,530 495,528 495,525 C495,528 492,530 490,530 C487,530 485,528 485,525 C485,528 482,530 480,530 C477,530 475,528 475,525 C475,528 472,530 470,530 C467,530 465,528 465,525 C465,528 462,530 460,530 C457,530 455,528 455,525 C455,528 452,530 450,530 C447,530 445,528 445,525 C445,528 442,530 440,530 C437,530 435,528 435,525 C435,528 432,530 430,530 C427,530 425,528 425,525 C425,528 422,530 420,530 C417,530 415,528 415,525 C415,528 412,530 410,530 C407,530 405,528 405,525 C405,528 402,530 400,530 C397,530 395,528 395,525 C395,528 392,530 390,530 C387,530 385,528 385,525 C385,528 382,530 380,530 C377,530 375,528 375,525 C375,528 372,530 370,530 C367,530 365,528 365,525 C365,528 362,530 360,530 C357,530 355,528 355,525 C355,528 352,530 350,530 C347,530 345,528 345,525 C345,528 342,530 340,530 C337,530 335,528 335,525 C335,528 332,530 330,530 C327,530 325,528 325,525 C325,528 322,530 320,530 C317,530 315,528 315,525 C315,528 312,530 310,530 C307,530 305,528 305,525 C305,528 302,530 300,530 C297,530 295,528 295,525 C295,528 292,530 290,530 C287,530 285,528 285,525 C285,528 282,530 280,530 C277,530 275,528 275,525 C275,528 272,530 270,530 C267,530 265,528 265,525 C265,528 262,530 260,530 C257,530 255,528 255,525 C255,528 252,530 250,530 C247,530 245,528 245,525 C245,528 242,530 240,530 C237,530 235,528 235,525 C235,528 232,530 230,530 C227,530 225,528 225,525 C225,528 222,530 220,530 C217,530 215,528 215,525 C215,528 212,530 210,530 C207,530 205,528 205,525 C205,528 202,530 200,530 C197,530 195,528 195,525 C195,528 192,530 190,530 C187,530 185,528 185,525 C185,528 182,530 180,530 C177,530 175,528 175,525 C175,528 172,530 170,530 C167,530 165,528 165,525 C165,528 162,530 160,530 C157,530 155,528 155,525 C155,528 152,530 150,530 C147,530 145,528 145,525 C145,528 142,530 140,530 C137,530 135,528 135,525 C135,528 132,530 130,530 C127,530 125,528 125,525 C125,528 122,530 120,530 C117,530 115,528 115,525 C115,528 112,530 110,530 C107,530 105,528 105,525 C105,528 102,530 100,530 C97,530 95,528 95,525 C95,528 92,530 90,530 C87,530 85,528 85,525 C85,528 82,530 80,530 C77,530 75,528 75,525 C75,528 72,530 70,530 C67,530 65,528 65,525 C65,528 62,530 60,530 C57,530 55,528 55,525 C55,528 52,530 50,530 C47,530 45,528 45,525 C45,528 42,530 40,530 C37,530 35,528 35,525 C35,528 32,530 30,530 C27,530 25,528 25,525 C22,525 20,523 20,520 C20,517 22,515 25,515 C22,515 20,513 20,510 C20,507 22,505 25,505 C22,505 20,503 20,500 C20,497 22,495 25,495 C22,495 20,493 20,490 C20,487 22,485 25,485 C22,485 20,483 20,480 C20,477 22,475 25,475 C22,475 20,473 20,470 C20,467 22,465 25,465 C22,465 20,463 20,460 C20,457 22,455 25,455 C22,455 20,453 20,450 C20,447 22,445 25,445 C22,445 20,443 20,440 C20,437 22,435 25,435 C22,435 20,433 20,430 C20,427 22,425 25,425 C22,425 20,423 20,420 C20,417 22,415 25,415 C22,415 20,413 20,410 C20,407 22,405 25,405 C22,405 20,403 20,400 C20,397 22,395 25,395 C22,395 20,393 20,390 C20,387 22,385 25,385 C22,385 20,383 20,380 C20,377 22,375 25,375 C22,375 20,373 20,370 C20,367 22,365 25,365 C22,365 20,363 20,360 C20,357 22,355 25,355 C22,355 20,353 20,350 C20,347 22,345 25,345 C22,345 20,343 20,340 C20,337 22,335 25,335 C22,335 20,333 20,330 C20,327 22,325 25,325 C22,325 20,323 20,320 C20,317 22,315 25,315 C22,315 20,313 20,310 C20,307 22,305 25,305 C22,305 20,303 20,300 C20,297 22,295 25,295 C22,295 20,293 20,290 C20,287 22,285 25,285 C22,285 20,283 20,280 C20,277 22,275 25,275 C22,275 20,273 20,270 C20,267 22,265 25,265 C22,265 20,263 20,260 C20,257 22,255 25,255 C22,255 20,253 20,250 C20,247 22,245 25,245 C22,245 20,243 20,240 C20,237 22,235 25,235 C22,235 20,233 20,230 C20,227 22,225 25,225 C22,225 20,223 20,220 C20,217 22,215 25,215 C22,215 20,213 20,210 C20,207 22,205 25,205 C22,205 20,203 20,200 C20,197 22,195 25,195 C22,195 20,193 20,190 C20,187 22,185 25,185 C22,185 20,183 20,180 C20,177 22,175 25,175 C22,175 20,173 20,170 C20,167 22,165 25,165 C22,165 20,163 20,160 C20,157 22,155 25,155 C22,155 20,153 20,150 C20,147 22,145 25,145 " fill="#08B2E3" filter="url(#fzvr1zi6dbqsr)" style="stroke: #000000; stroke-width: 1.5;"/><text fill="#000000" font-family="sans-serif" font-size="14" font-weight="bold" lengthAdjust="spacingAndGlyphs" textLength="77" x="398.5" y="165.5332">AWS-Client</text><!--cluster Instance2--><polygon fill="#B7BFC9" filter="url(#fzvr1zi6dbqsr)" points="46,238,45.883,237.883,48.1383,236.1383,49.891,233.891,51.9798,231.9798,53.8816,229.8816,56,228,56,228.3008,65.9333,227.6123,75.8667,228.4724,85.8,227.3092,95.7333,227.313,105.6667,228.1632,115.6,228.3887,125.5333,228.3485,135.4667,228.5884,145.4,227.4299,155.3333,228.6724,165.2667,227.6722,175.2,227.4112,185.1333,228.6801,195.0667,228.0909,205,227.8491,214.9333,227.8088,224.8667,227.9087,234.8,227.438,244.7333,227.8592,254.6667,227.7036,264.6,228.5083,274.5333,228.4548,284.4667,228.0189,294.4,228.6756,304.3333,228.1338,314.2667,227.7378,324.2,227.7838,334.1333,228.0484,344.0667,227.4465,354,228,353.9647,228,354.4635,238.037,354.2974,248.0741,354.4564,258.1111,353.4644,268.1481,353.9002,278.1852,353.5119,288.2222,353.8011,298.2593,354.0623,308.2963,354.0031,318.3333,353.3377,328.3704,353.9918,338.4074,353.7311,348.4444,353.7013,358.4815,353.9659,368.5185,353.4283,378.5556,354.3881,388.5926,353.8782,398.6296,354.331,408.6667,354.3353,418.7037,353.6894,428.7407,354.6738,438.7778,353.7317,448.8148,354.2028,458.8519,353.3835,468.8889,354.6995,478.9259,354.5892,488.963,354,499,353.8386,498.8386,351.9303,500.9303,349.9269,502.9269,348.1209,505.1209,346.1283,507.1283,344,509,344,508.4043,334.0667,508.9314,324.1333,508.7542,314.2,509.2348,304.2667,508.8488,294.3333,509.4384,284.4,508.4878,274.4667,509.2647,264.5333,509.1199,254.6,508.3273,244.6667,508.6781,234.7333,509.1688,224.8,508.808,214.8667,508.6222,204.9333,508.5541,195,509.6179,185.0667,508.5993,175.1333,508.8555,165.2,508.4377,155.2667,509.0204,145.3333,508.9041,135.4,509.28,125.4667,508.8464,115.5333,509.0645,105.6,508.6095,95.6667,509.2829,85.7333,508.9154,75.8,509.6523,65.8667,508.58,55.9333,509.7059,46,509,46.2694,509,45.3845,498.963,45.2759,488.9259,46.2081,478.8889,46.5026,468.8519,46.0454,458.8148,45.8057,448.7778,46.0734,438.7407,45.4171,428.7037,45.3986,418.6667,45.8809,408.6296,46.4581,398.5926,46.1073,388.5556,46.054,378.5185,46.4941,368.4815,45.9909,358.4444,45.3706,348.4074,45.682,338.3704,45.7004,328.3333,45.3913,318.2963,45.2731,308.2593,45.4563,298.2222,46.1399,288.1852,46.3435,278.1481,46.4957,268.1111,46.2818,258.0741,45.4045,248.037,46,238" style="stroke: #000000; stroke-width: 1.5;"/><path d="M344,238 L343.9285,237.9285 L345.7499,236.1499 L347.7954,234.5954 L349.4059,232.6059 L351.0109,230.6109 L353,229 " fill="#B7BFC9" style="stroke: #000000; stroke-width: 1.5;"/><path d="M46,238 L46,238.6435 L55.9333,238.7621 L65.8667,238.8952 L75.8,238.0117 L85.7333,237.6108 L95.6667,237.6567 L105.6,237.8812 L115.5333,238.3692 L125.4667,237.3304 L135.4,237.3376 L145.3333,237.7219 L155.2667,238.2234 L165.2,237.1638 L175.1333,238.937 L185.0667,238.5803 L195,238.0347 L204.9333,237.2561 L214.8667,237.5216 L224.8,238.2141 L234.7333,238.4139 L244.6667,238.7476 L254.6,237.04 L264.5333,237.6111 L274.4667,238.1793 L284.4,237.9116 L294.3333,238.6515 L304.2667,237.5857 L314.2,237.7539 L324.1333,237.1658 L334.0667,237.3388 L344,238 " fill="#B7BFC9" style="stroke: #000000; stroke-width: 1.5;"/><path d="M344,238 L344.2211,238 L344.6416,248.037 L343.0149,258.0741 L344.9867,268.1111 L344.3688,278.1481 L343.967,288.1852 L344.0229,298.2222 L344.8255,308.2593 L344.6781,318.2963 L343.7513,328.3333 L344.899,338.3704 L344.2936,348.4074 L344.8341,358.4444 L343.7174,368.4815 L343.7003,378.5185 L344.9611,388.5556 L343.8158,398.5926 L343.9806,408.6296 L344.0105,418.6667 L343.1932,428.7037 L343.0668,438.7407 L343.9763,448.7778 L344.7507,458.8148 L343.6895,468.8519 L344.4816,478.8889 L344.4145,488.9259 L343.0102,498.963 L344,509 " fill="#B7BFC9" style="stroke: #000000; stroke-width: 1.5;"/><text fill="#000000" font-family="sans-serif" font-size="14" font-weight="bold" lengthAdjust="spacingAndGlyphs" textLength="60" x="166" y="255.5332">Instance</text><!--cluster BerliozAgent2--><polygon fill="#F77F00" filter="url(#fzvr1zi6dbqsr)" points="159,285,159,284.9619,169.1875,285.048,179.375,284.9412,189.5625,284.965,199.75,284.2841,209.9375,285.0009,220.125,284.5073,230.3125,285.3518,240.5,285.6583,250.6875,285.542,260.875,285.3187,271.0625,284.8293,281.25,285.2139,291.4375,285.2104,301.625,284.8366,311.8125,285.4874,322,285,322.0426,285,321.3124,295.2222,321.7609,305.4444,321.5961,315.6667,321.978,325.8889,321.7444,336.1111,322.1695,346.3333,321.5266,356.5556,321.638,366.7778,322,377,322,376.7735,311.8125,376.2768,301.625,376.6658,291.4375,376.9523,281.25,377.1009,271.0625,377.3274,260.875,376.571,250.6875,377.4448,240.5,377.3676,230.3125,377.422,220.125,377.7407,209.9375,376.676,199.75,376.3048,189.5625,376.6815,179.375,377.458,169.1875,377.4582,159,377,158.9782,377,158.5879,366.7778,158.6941,356.5556,159.2431,346.3333,159.0189,336.1111,158.6105,325.8889,159.5499,315.6667,159.4505,305.4444,158.3875,295.2222,159,285" style="stroke: #000000; stroke-width: 1.5;"/><text fill="#000000" font-family="sans-serif" font-size="14" font-weight="bold" lengthAdjust="spacingAndGlyphs" textLength="94" x="193.5" y="301.5332">Berlioz Agent</text><!--cluster ServiceA1--><polygon fill="#57A773" filter="url(#fzvr1zi6dbqsr)" points="70,409,70,408.811,79.8333,409.1514,89.6667,408.9462,99.5,409.5724,109.3333,408.5478,119.1667,408.8077,129,408.4024,138.8333,409.1773,148.6667,408.645,158.5,409.0878,168.3333,408.3731,178.1667,409.1172,188,409,187.9689,409,188.2705,418.5,187.5939,428,188.6012,437.5,187.2602,447,187.3749,456.5,187.7753,466,187.252,475.5,188,485,188,484.8013,178.1667,485.1838,168.3333,485.4883,158.5,484.5761,148.6667,485.5624,138.8333,484.3328,129,485.6581,119.1667,484.5759,109.3333,484.3557,99.5,485.146,89.6667,485.6705,79.8333,485.0694,70,485,70.2461,485,70.4697,475.5,70.6629,466,69.2596,456.5,70.0121,447,70.2672,437.5,69.7234,428,69.7832,418.5,70,409" style="stroke: #000000; stroke-width: 1.5;"/><text fill="#000000" font-family="sans-serif" font-size="14" font-weight="bold" lengthAdjust="spacingAndGlyphs" textLength="71" x="93.5" y="425.5332">ServiceA1</text><!--cluster ServiceB1--><polygon fill="#57A773" filter="url(#fzvr1zi6dbqsr)" points="212,409,212,408.8243,221.8333,408.7148,231.6667,408.44,241.5,408.3475,251.3333,409.5095,261.1667,408.9594,271,409.5525,280.8333,409.1584,290.6667,408.2998,300.5,409.0771,310.3333,408.3338,320.1667,409.6282,330,409,329.8219,409,329.603,418.5,330.2934,428,329.8522,437.5,329.2702,447,330.2859,456.5,329.3275,466,330.5363,475.5,330,485,330,484.7204,320.1667,484.9571,310.3333,484.5617,300.5,484.9616,290.6667,484.881,280.8333,485.5954,271,485.3199,261.1667,485.6739,251.3333,484.7535,241.5,484.3096,231.6667,484.4312,221.8333,484.8954,212,485,211.6693,485,212.5596,475.5,211.9314,466,212.6635,456.5,211.4958,447,211.9845,437.5,212.1481,428,211.9183,418.5,212,409" style="stroke: #000000; stroke-width: 1.5;"/><text fill="#000000" font-family="sans-serif" font-size="14" font-weight="bold" lengthAdjust="spacingAndGlyphs" textLength="72" x="235" y="425.5332">ServiceB1</text><!--cluster Instance1--><polygon fill="#B7BFC9" filter="url(#fzvr1zi6dbqsr)" points="378,238,377.9915,237.9915,380.0492,236.0492,381.9201,233.9201,384.0405,232.0405,386.0109,230.0109,388,228,388,227.4524,398,228.2183,408,228.5195,418,228.6314,428,228.6845,438,228.3439,448,228.5663,458,227.3769,468,227.4114,478,228.1257,488,228.379,498,227.587,508,228.0171,518,228.4761,528,228.2917,538,227.7652,548,227.8341,558,227.5674,568,228.3341,578,228.6073,588,228.3462,598,227.6123,608,228.182,618,228.1558,628,228.0992,638,228.715,648,227.3694,658,228.6155,668,228.5233,678,227.6505,688,228.0425,698,227.939,708,228.4512,718,227.6369,728,227.7824,738,228.7258,748,228.1478,758,227.4562,768,228.4671,778,227.7425,788,227.659,798,228.1417,808,227.2997,818,227.4662,828,228,828.2203,228,828.3963,238.037,827.4781,248.0741,827.4693,258.1111,827.3658,268.1481,827.9267,278.1852,828.0434,288.2222,827.719,298.2593,828.2193,308.2963,827.4797,318.3333,828.2008,328.3704,827.4327,338.4074,827.7506,348.4444,828.5424,358.4815,827.3734,368.5185,828.5455,378.5556,828.0334,388.5926,828.429,398.6296,828.4119,408.6667,827.5683,418.7037,828.7445,428.7407,827.3063,438.7778,827.2575,448.8148,828.1859,458.8519,827.8048,468.8889,828.627,478.9259,828.4236,488.963,828,499,828.0768,499.0768,826.0406,501.0406,824.1006,503.1006,821.9862,504.9862,820.0355,507.0355,818,509,818,508.3663,808,509.0143,798,508.3914,788,508.4701,778,508.3122,768,508.7233,758,509.3236,748,508.9435,738,509.0788,728,508.6322,718,508.26,708,508.6434,698,509.4926,688,509.4471,678,509.0548,668,509.0835,658,508.4999,648,509.6343,638,509.6824,628,509.6689,618,509.4725,608,509.3454,598,508.5187,588,509.7156,578,509.441,568,509.7142,558,509.3774,548,508.698,538,508.4713,528,509.722,518,508.4637,508,509.727,498,509.0949,488,508.5218,478,509.5131,468,508.4309,458,509.3443,448,508.3822,438,509.1898,428,509.4098,418,508.5392,408,509.2642,398,508.8278,388,509.2623,378,509,378.5233,509,377.4708,498.963,377.8144,488.9259,377.8352,478.8889,378.0485,468.8519,378.3151,458.8148,378.3282,448.7778,377.833,438.7407,377.9639,428.7037,377.8395,418.6667,377.7678,408.6296,377.7325,398.5926,378.2711,388.5556,377.2787,378.5185,378.0261,368.4815,378.5888,358.4444,377.9726,348.4074,377.7009,338.3704,377.7936,328.3333,377.2855,318.2963,378.4531,308.2593,378.081,298.2222,378.3024,288.1852,378.0764,278.1481,378.4034,268.1111,378.4558,258.0741,378.3544,248.037,378,238" style="stroke: #000000; stroke-width: 1.5;"/><path d="M818,238 L817.9659,237.9659 L819.8045,236.2045 L821.3755,234.1755 L823.5922,232.7922 L825.1465,230.7465 L827,229 " fill="#B7BFC9" style="stroke: #000000; stroke-width: 1.5;"/><path d="M378,238 L378,237.1297 L388,238.9381 L398,237.9587 L408,237.3922 L418,237.8806 L428,237.9428 L438,237.1516 L448,237.1003 L458,238.7401 L468,237.4252 L478,238.1733 L488,237.5152 L498,237.7805 L508,238.6881 L518,237.9282 L528,237.4772 L538,238.621 L548,238.8083 L558,238.1045 L568,238.7926 L578,237.2637 L588,237.5515 L598,237.302 L608,238.4278 L618,237.7759 L628,238.8876 L638,237.1136 L648,237.8503 L658,238.5687 L668,238.0898 L678,238.6593 L688,238.6487 L698,238.7517 L708,238.3079 L718,238.0203 L728,237.4376 L738,237.7175 L748,238.8451 L758,237.9131 L768,237.3628 L778,238.7118 L788,237.1504 L798,238.7651 L808,238.2699 L818,238 " fill="#B7BFC9" style="stroke: #000000; stroke-width: 1.5;"/><path d="M818,238 L818.6957,238 L817.7519,248.037 L817.1225,258.0741 L818.7882,268.1111 L818.2838,278.1481 L818.0131,288.1852 L817.0156,298.2222 L817.1994,308.2593 L818.9657,318.2963 L818.6853,328.3333 L818.5529,338.3704 L818.0263,348.4074 L818.1736,358.4444 L818.7585,368.4815 L817.5844,378.5185 L817.7719,388.5556 L818.0548,398.5926 L817.0791,408.6296 L818.7935,418.6667 L818.1749,428.7037 L817.0387,438.7407 L817.6095,448.7778 L818.0254,458.8148 L818.7225,468.8519 L818.4609,478.8889 L817.0433,488.9259 L818.0491,498.963 L818,509 " fill="#B7BFC9" style="stroke: #000000; stroke-width: 1.5;"/><text fill="#000000" font-family="sans-serif" font-size="14" font-weight="bold" lengthAdjust="spacingAndGlyphs" textLength="60" x="569" y="255.5332">Instance</text><!--cluster BerliozAgent1--><polygon fill="#F77F00" filter="url(#fzvr1zi6dbqsr)" points="461,285,461,284.9775,471.1875,284.7083,481.375,285.5788,491.5625,284.4572,501.75,284.5988,511.9375,284.713,522.125,284.934,532.3125,284.4186,542.5,285.5714,552.6875,284.6734,562.875,285.1977,573.0625,284.7852,583.25,284.348,593.4375,284.3696,603.625,284.7375,613.8125,285.6887,624,285,623.3475,285,623.3376,295.2222,623.3493,305.4444,624.3658,315.6667,623.407,325.8889,623.4261,336.1111,624.0365,346.3333,623.955,356.5556,624.705,366.7778,624,377,624,377.6435,613.8125,377.5525,603.625,376.6295,593.4375,376.5126,583.25,376.3249,573.0625,377.1049,562.875,377.3566,552.6875,377.1121,542.5,377.6005,532.3125,377.2063,522.125,377.6975,511.9375,376.53,501.75,377.5585,491.5625,376.8192,481.375,377.3814,471.1875,376.3753,461,377,460.355,377,461.1803,366.7778,461.4152,356.5556,461.0381,346.3333,460.8404,336.1111,461.5139,325.8889,460.7173,315.6667,460.3001,305.4444,461.5388,295.2222,461,285" style="stroke: #000000; stroke-width: 1.5;"/><text fill="#000000" font-family="sans-serif" font-size="14" font-weight="bold" lengthAdjust="spacingAndGlyphs" textLength="94" x="495.5" y="301.5332">Berlioz Agent</text><!--cluster ServiceA2--><polygon fill="#57A773" filter="url(#fzvr1zi6dbqsr)" points="402,409,402,409.7343,411.8333,409.699,421.6667,409.5312,431.5,408.5365,441.3333,409.2179,451.1667,408.8491,461,408.6,470.8333,409.5152,480.6667,408.2765,490.5,408.7183,500.3333,408.4031,510.1667,409.2859,520,409,520.0934,409,520.2397,418.5,519.529,428,520.2657,437.5,519.5962,447,519.5667,456.5,519.5051,466,520.3712,475.5,520,485,520,484.5259,510.1667,484.5589,500.3333,484.8438,490.5,484.7876,480.6667,484.8281,470.8333,485.6946,461,485.1936,451.1667,485.5167,441.3333,485.4359,431.5,485.546,421.6667,485.3223,411.8333,485.4953,402,485,402.5363,485,401.5061,475.5,401.9085,466,402.4238,456.5,402.5115,447,402.2213,437.5,402.1929,428,402.2466,418.5,402,409" style="stroke: #000000; stroke-width: 1.5;"/><text fill="#000000" font-family="sans-serif" font-size="14" font-weight="bold" lengthAdjust="spacingAndGlyphs" textLength="71" x="425.5" y="425.5332">ServiceA2</text><!--cluster ServiceA3--><polygon fill="#57A773" filter="url(#fzvr1zi6dbqsr)" points="544,409,544,409.4254,553.8333,409.6436,563.6667,408.9478,573.5,408.9727,583.3333,408.6818,593.1667,408.2828,603,408.4528,612.8333,408.7359,622.6667,408.3141,632.5,408.6125,642.3333,408.7304,652.1667,408.6497,662,409,662.2808,409,661.6511,418.5,662.1789,428,661.6244,437.5,662.6312,447,662.5193,456.5,662.4626,466,662.3795,475.5,662,485,662,485.4722,652.1667,484.2519,642.3333,485.5602,632.5,485.4018,622.6667,484.3193,612.8333,484.8252,603,485.7491,593.1667,484.5706,583.3333,484.6335,573.5,485.2465,563.6667,484.5038,553.8333,485.0978,544,485,544.6549,485,544.1393,475.5,544.3146,466,543.3043,456.5,543.5211,447,544.0509,437.5,543.2952,428,543.5887,418.5,544,409" style="stroke: #000000; stroke-width: 1.5;"/><text fill="#000000" font-family="sans-serif" font-size="14" font-weight="bold" lengthAdjust="spacingAndGlyphs" textLength="71" x="567.5" y="425.5332">ServiceA3</text><!--cluster ServiceB2--><polygon fill="#57A773" filter="url(#fzvr1zi6dbqsr)" points="686,409,686,408.6199,695.8333,409.703,705.6667,409.6278,715.5,409.2254,725.3333,408.6635,735.1667,409.1038,745,408.4146,754.8333,408.3667,764.6667,409.0852,774.5,408.3399,784.3333,408.8423,794.1667,408.3144,804,409,804.0563,409,803.4735,418.5,803.7384,428,803.7673,437.5,803.6902,447,803.7723,456.5,804.0973,466,804.3498,475.5,804,485,804,484.8534,794.1667,485.0158,784.3333,484.4795,774.5,484.7736,764.6667,484.428,754.8333,484.8294,745,484.8423,735.1667,485.49,725.3333,484.8802,715.5,484.9197,705.6667,485.3447,695.8333,484.6413,686,485,686.5717,485,686.1976,475.5,686.4778,466,686.034,456.5,685.9132,447,686.1062,437.5,685.513,428,686.2138,418.5,686,409" style="stroke: #000000; stroke-width: 1.5;"/><text fill="#000000" font-family="sans-serif" font-size="14" font-weight="bold" lengthAdjust="spacingAndGlyphs" textLength="72" x="709" y="425.5332">ServiceB2</text><!--cluster AWS-Berlioz--><path d="M207,31 C207,28 209,26 212,26 C215,26 217,28 217,31 C217,28 219,26 222,26 C225,26 227,28 227,31 C227,28 229,26 232,26 C235,26 237,28 237,31 C237,28 239,26 242,26 C245,26 247,28 247,31 C247,28 249,26 252,26 C255,26 257,28 257,31 C257,28 259,26 262,26 C265,26 267,28 267,31 C267,28 269,26 272,26 C275,26 277,28 277,31 C277,28 279,26 282,26 C285,26 287,28 287,31 C287,28 289,26 292,26 C295,26 297,28 297,31 C297,28 299,26 302,26 C305,26 307,28 307,31 C307,28 309,26 312,26 C315,26 317,28 317,31 C317,28 319,26 322,26 C325,26 327,28 327,31 C327,28 329,26 332,26 C335,26 337,28 337,31 C340,31 342,33 342,36 C342,39 340,41 337,41 C340,41 342,43 342,46 C342,49 340,51 337,51 C340,51 342,53 342,56 C342,59 340,61 337,61 C340,61 342,63 342,66 C342,69 340,71 337,71 C340,71 342,73 342,76 C342,79 340,81 337,81 C340,81 342,83 342,86 C342,89 340,91 337,91 C340,91 342,93 342,96 C342,99 340,101 337,101 C340,101 342,103 342,106 C342,109 340,111 337,111 C337,114 334,116 332,116 C329,116 327,114 327,111 C327,114 324,116 322,116 C319,116 317,114 317,111 C317,114 314,116 312,116 C309,116 307,114 307,111 C307,114 304,116 302,116 C299,116 297,114 297,111 C297,114 294,116 292,116 C289,116 287,114 287,111 C287,114 284,116 282,116 C279,116 277,114 277,111 C277,114 274,116 272,116 C269,116 267,114 267,111 C267,114 264,116 262,116 C259,116 257,114 257,111 C257,114 254,116 252,116 C249,116 247,114 247,111 C247,114 244,116 242,116 C239,116 237,114 237,111 C237,114 234,116 232,116 C229,116 227,114 227,111 C227,114 224,116 222,116 C219,116 217,114 217,111 C217,114 214,116 212,116 C209,116 207,114 207,111 C204,111 202,109 202,106 C202,103 204,101 207,101 C204,101 202,99 202,96 C202,93 204,91 207,91 C204,91 202,89 202,86 C202,83 204,81 207,81 C204,81 202,79 202,76 C202,73 204,71 207,71 C204,71 202,69 202,66 C202,63 204,61 207,61 C204,61 202,59 202,56 C202,53 204,51 207,51 C204,51 202,49 202,46 C202,43 204,41 207,41 C204,41 202,39 202,36 C202,33 204,31 207,31 " fill="#08B2E3" filter="url(#fzvr1zi6dbqsr)" style="stroke: #000000; stroke-width: 1.5;"/><text fill="#000000" font-family="sans-serif" font-size="14" font-weight="bold" lengthAdjust="spacingAndGlyphs" textLength="85" x="229.5" y="51.5332">AWS-Berlioz</text><!--entity BerliozAgent2WS--><polygon fill="#EE6352" filter="url(#fzvr1zi6dbqsr)" points="202,329,202,329.7013,211.6,328.4884,221.2,329.7281,230.8,328.5397,240.4,328.2993,250,328.5655,259.6,328.663,269.2,329.4219,278.8,329.2153,288.4,328.5241,298,329,297.929,329,298.2031,333.7219,298.0377,338.4438,298.1159,343.1656,297.9676,347.8875,298,352.6094,298,352.6959,288.4,352.947,278.8,351.9763,269.2,352.511,259.6,351.8797,250,352.2818,240.4,353.1522,230.8,352.691,221.2,352.3784,211.6,352.864,202,352.6094,201.9141,352.6094,202.0625,347.8875,201.8376,343.1656,201.7869,338.4438,201.9051,333.7219,202,329" style="stroke: #000000; stroke-width: 1.5;"/><text fill="#000000" font-family="sans-serif" font-size="14" lengthAdjust="spacingAndGlyphs" textLength="76" x="212" y="346.5332">Web Socket</text><!--entity ServiceA1Connector--><polygon fill="#FCBF49" filter="url(#fzvr1zi6dbqsr)" points="86,445,86,444.5858,95.5556,444.5381,105.1111,445.6414,114.6667,445.1298,124.2222,445.0879,133.7778,445.6596,143.3333,444.3289,152.8889,445.3785,162.4444,444.8485,172,445,171.8825,445,171.8207,449.7219,172.1419,454.4438,172.1739,459.1656,172.1271,463.8875,172,468.6094,172,467.8815,162.4444,469.3338,152.8889,468.5351,143.3333,468.3536,133.7778,468.6641,124.2222,469.3075,114.6667,467.9918,105.1111,467.8921,95.5556,468.215,86,468.6094,86.148,468.6094,85.8726,463.8875,86.1166,459.1656,86.045,454.4438,85.8966,449.7219,86,445" style="stroke: #000000; stroke-width: 1.5;"/><text fill="#000000" font-family="sans-serif" font-size="14" lengthAdjust="spacingAndGlyphs" textLength="66" x="96" y="462.5332">Connector</text><!--entity ServiceB1Connector--><polygon fill="#FCBF49" filter="url(#fzvr1zi6dbqsr)" points="228,445,228,445.1836,237.5556,445.1225,247.1111,444.9865,256.6667,445.6038,266.2222,445.2401,275.7778,444.4855,285.3333,445.4783,294.8889,444.8389,304.4444,444.7615,314,445,314.1141,445,313.7509,449.7219,314.2213,454.4438,314.0902,459.1656,313.8116,463.8875,314,468.6094,314,468.2747,304.4444,469.3332,294.8889,468.6901,285.3333,468.8262,275.7778,469.086,266.2222,468.4622,256.6667,469.3377,247.1111,467.8714,237.5556,468.0099,228,468.6094,227.9839,468.6094,228.1019,463.8875,228.1841,459.1656,228.1529,454.4438,228.2449,449.7219,228,445" style="stroke: #000000; stroke-width: 1.5;"/><text fill="#000000" font-family="sans-serif" font-size="14" lengthAdjust="spacingAndGlyphs" textLength="66" x="238" y="462.5332">Connector</text><!--entity BerliozAgent1WS--><polygon fill="#EE6352" filter="url(#fzvr1zi6dbqsr)" points="504,329,504,329.262,513.6,328.3323,523.2,328.5391,532.8,329.6452,542.4,328.9309,552,328.4947,561.6,328.6016,571.2,329.434,580.8,329.0499,590.4,329.2003,600,329,600.1938,329,600.1006,333.7219,599.9617,338.4438,600.208,343.1656,600.0818,347.8875,600,352.6094,600,352.2129,590.4,353.3526,580.8,352.9734,571.2,352.1284,561.6,352.5343,552,352.7593,542.4,353.255,532.8,352.7641,523.2,352.9596,513.6,352.912,504,352.6094,504.0002,352.6094,504.1816,347.8875,503.9842,343.1656,503.8533,338.4438,503.8692,333.7219,504,329" style="stroke: #000000; stroke-width: 1.5;"/><text fill="#000000" font-family="sans-serif" font-size="14" lengthAdjust="spacingAndGlyphs" textLength="76" x="514" y="346.5332">Web Socket</text><!--entity ServiceA2Connector--><polygon fill="#FCBF49" filter="url(#fzvr1zi6dbqsr)" points="418,445,418,444.4817,427.5556,444.956,437.1111,444.7093,446.6667,444.4302,456.2222,445.2576,465.7778,445.1366,475.3333,445.0748,484.8889,444.7031,494.4444,445.1554,504,445,504.1188,445,504.2174,449.7219,504.0585,454.4438,503.8754,459.1656,504.2143,463.8875,504,468.6094,504,468.0496,494.4444,468.9452,484.8889,468.8741,475.3333,469.074,465.7778,468.531,456.2222,468.2214,446.6667,468.702,437.1111,468.3867,427.5556,467.8858,418,468.6094,417.9199,468.6094,418.2118,463.8875,417.8519,459.1656,417.9536,454.4438,417.9429,449.7219,418,445" style="stroke: #000000; stroke-width: 1.5;"/><text fill="#000000" font-family="sans-serif" font-size="14" lengthAdjust="spacingAndGlyphs" textLength="66" x="428" y="462.5332">Connector</text><!--entity ServiceA3Connector--><polygon fill="#FCBF49" filter="url(#fzvr1zi6dbqsr)" points="560,445,560,444.328,569.5556,444.8623,579.1111,444.763,588.6667,444.7212,598.2222,444.9229,607.7778,445.5461,617.3333,444.8565,626.8889,444.9409,636.4444,445.2741,646,445,645.8034,445,645.9032,449.7219,646.0536,454.4438,646.2227,459.1656,646.0441,463.8875,646,468.6094,646,468.0774,636.4444,469.3365,626.8889,468.8399,617.3333,468.9849,607.7778,468.0375,598.2222,469.2672,588.6667,468.9961,579.1111,468.9887,569.5556,468.5384,560,468.6094,560.1943,468.6094,559.9575,463.8875,560.1267,459.1656,560.15,454.4438,559.808,449.7219,560,445" style="stroke: #000000; stroke-width: 1.5;"/><text fill="#000000" font-family="sans-serif" font-size="14" lengthAdjust="spacingAndGlyphs" textLength="66" x="570" y="462.5332">Connector</text><!--entity ServiceB2Connector--><polygon fill="#FCBF49" filter="url(#fzvr1zi6dbqsr)" points="702,445,702,444.8936,711.5556,444.4662,721.1111,444.3696,730.6667,445.4105,740.2222,444.7099,749.7778,444.4413,759.3333,445.2498,768.8889,444.7754,778.4444,445.6785,788,445,787.9775,445,788.2473,449.7219,788.0632,454.4438,788.2065,459.1656,787.7836,463.8875,788,468.6094,788,467.8808,778.4444,469.2516,768.8889,468.8961,759.3333,468.9937,749.7778,468.6584,740.2222,468.2049,730.6667,469.3231,721.1111,469.0896,711.5556,468.2789,702,468.6094,701.9325,468.6094,702.0906,463.8875,702.25,459.1656,702.0366,454.4438,701.8882,449.7219,702,445" style="stroke: #000000; stroke-width: 1.5;"/><text fill="#000000" font-family="sans-serif" font-size="14" lengthAdjust="spacingAndGlyphs" textLength="66" x="712" y="462.5332">Connector</text><!--entity SQS1--><polygon fill="#D3C4D1" filter="url(#fzvr1zi6dbqsr)" points="415.5,174,415.5,173.9763,418.5,174.1384,421.5,174.1027,424.5,174.2032,427.5,174.1399,430.5,174,430.4853,173.9339,435.4648,175.1693,440.4443,176.4043,445.3016,177.0904,450.2946,178.3866,455.2487,179.5078,455.165,179.4432,457.1018,182.0152,459.4995,184.9424,461.5973,187.6384,463.4788,190.1677,465.5,192.8047,465.3937,192.7227,463.4103,195.4337,461.5386,198.2307,459.3643,200.7944,457.1487,203.3264,455.2487,206.1016,455.2103,205.9287,450.2966,207.1926,445.3165,208.1577,440.448,209.6242,435.4485,210.5023,430.5,211.6094,430.5,211.4778,427.5,211.5188,424.5,211.3734,421.5,211.3597,418.5,211.3688,415.5,211.6094,415.457,211.4162,410.5221,210.3811,405.5792,209.3107,400.6511,208.3065,395.7348,207.355,390.7513,206.1016,390.7128,206.072,388.6256,203.3841,386.5632,200.7153,384.5879,198.1137,382.5688,195.4784,380.5,192.8047,380.5694,192.8582,382.5794,190.1678,384.545,187.4431,386.6121,184.7967,388.8965,182.3179,390.7513,179.5078,390.7281,179.4036,395.7084,178.4393,400.678,177.4271,405.6117,176.2535,410.5402,175.0566,415.5,174" style="stroke: #000000; stroke-width: 1.5;"/><text fill="#000000" font-family="sans-serif" font-size="14" lengthAdjust="spacingAndGlyphs" textLength="65" x="390.5" y="198.5332">AWS-SQS</text><!--entity SQS2--><polygon fill="#D3C4D1" filter="url(#fzvr1zi6dbqsr)" points="204.5,174,204.5,174.1218,207.5,174.0298,210.5,173.7626,213.5,174.1566,216.5,173.9388,219.5,174,219.452,173.7844,224.489,175.278,229.428,176.3311,234.3102,177.1293,239.2583,178.2233,244.2487,179.5078,244.2596,179.5161,246.1988,182.0899,248.3128,184.7985,250.4116,187.4952,252.4343,190.1334,254.5,192.8047,254.5523,192.845,252.5753,195.5609,250.4909,198.1939,248.325,200.7641,246.4089,203.527,244.2487,206.1016,244.2692,206.1937,239.2478,206.973,234.3295,208.2158,229.3524,209.1946,224.4298,210.4183,219.5,211.6094,219.5,211.8537,216.5,211.8392,213.5,211.5839,210.5,211.6325,207.5,211.3917,204.5,211.6094,204.4694,211.4721,199.5813,210.6472,194.6199,209.4934,189.6405,208.2588,184.7276,207.3225,179.7513,206.1016,179.7076,206.0679,177.7335,203.4673,175.7724,200.8766,173.7667,198.2516,171.6647,195.5523,169.5,192.8047,169.6827,192.9455,171.6407,190.215,173.6221,187.5025,175.5629,184.7588,177.8985,182.3194,179.7513,179.5078,179.7221,179.3769,184.752,178.6353,189.6922,177.4908,194.5571,176.0078,199.5599,175.1451,204.5,174" style="stroke: #000000; stroke-width: 1.5;"/><text fill="#000000" font-family="sans-serif" font-size="14" lengthAdjust="spacingAndGlyphs" textLength="65" x="179.5" y="198.5332">AWS-SQS</text><!--entity BerliozRobot--><polygon fill="#EE6352" filter="url(#fzvr1zi6dbqsr)" points="220,60,220,60.5049,230.4,60.5289,240.8,59.5204,251.2,59.5081,261.6,60.1451,272,60.4583,282.4,60.5566,292.8,59.37,303.2,59.9147,313.6,59.288,324,60,323.8389,60,324.1279,67.5219,324.1267,75.0438,323.9567,82.5656,323.9995,90.0875,324,97.6094,324,97.7883,313.6,97.5437,303.2,98.2188,292.8,97.6131,282.4,97.5846,272,97.0842,261.6,96.9478,251.2,97.1208,240.8,97.213,230.4,98.1089,220,97.6094,220.1492,97.6094,219.9388,90.0875,220.218,82.5656,220.1877,75.0438,219.8238,67.5219,220,60" style="stroke: #000000; stroke-width: 1.5;"/><text fill="#000000" font-family="sans-serif" font-size="14" lengthAdjust="spacingAndGlyphs" textLength="84" x="230" y="84.5332">Berlioz Robot</text><!--link BerliozAgent2WS to ServiceA1Connector--><path d="M235.329,356.664 L235.3364,356.6715 L231.6091,359.9912 L228.1492,363.5823 L224.895,367.3822 L221.0552,370.5876 L217.5716,374.1548 L217.7403,374.3299 L213.8616,378.136 L209.7538,381.704 L205.9453,385.583 L201.7778,389.0891 L198,393 L198.2103,393.2248 L195.0935,395.9671 L192.1414,398.8854 L188.7527,401.3371 L186.0355,404.5065 L182.8499,407.1753 L182.683,406.9939 L179.6312,409.8188 L176.8295,412.9156 L173.8205,415.787 L170.5527,418.3772 L167.5463,421.2514 L167.6146,421.3268 L162.4881,426.1998 L157.267,430.9683 L151.6544,435.3043 L146.7869,440.4633 L141.336,444.978 " fill="none" style="stroke: #A80036; stroke-width: 1.0; stroke-dasharray: 7.0,7.0;"/><polygon fill="#A80036" points="238.954,353.06,238.9673,353.0949,237.0776,353.6677,235.233,354.3588,233.4541,355.222,231.6215,355.9446,229.7524,356.5714,229.7523,356.5309,230.8836,356.5284,232.0157,356.8049,233.1467,356.6544,234.2779,356.6305,235.4092,356.5862,235.259,356.5858,235.4952,357.7178,235.3656,358.8489,235.5186,359.9806,235.2263,361.1113,235.3943,362.2431,235.2532,362.1883,235.9557,360.3481,236.8116,358.5673,237.4002,356.6829,238.284,354.9129,238.954,353.06" style="stroke: #A80036; stroke-width: 1.0;"/><!--link BerliozAgent2WS to ServiceB1Connector--><path d="M253.007,358.322 L252.2902,358.19 L254.4113,367.8524 L257.4598,377.6856 L258.8874,387.2202 L259.7302,396.6472 L262.1074,406.3567 L262.9156,415.7773 L265.9104,425.6006 L267.5025,435.1656 L268.918,444.698 " fill="none" style="stroke: #A80036; stroke-width: 1.0; stroke-dasharray: 7.0,7.0;"/><polygon fill="#A80036" points="252.09,353.348,252.175,353.3685,251.6747,355.2741,251.2591,357.2,250.5393,359.0529,250.2674,361.0134,249.7865,362.9237,249.7391,362.8911,250.5109,362.0489,251.0804,361.0673,251.9092,360.2645,252.3036,359.1623,252.9957,358.2653,253.0371,358.3253,254.0327,359.0599,254.8618,359.5528,255.671,360.017,256.848,361.0149,257.6542,361.4745,257.7403,361.5335,256.4175,359.7645,255.6131,358.3503,254.1889,356.5118,253.3779,355.0932,252.09,353.348" style="stroke: #A80036; stroke-width: 1.0;"/><!--link BerliozAgent1WS to ServiceA2Connector--><path d="M539.672,357.444 L540.1225,357.8036 L532.5587,364.7524 L526.7775,373.1242 L520.93,381.4431 L513.5983,388.5772 L508.2817,397.3198 L502.4401,405.6434 L495.1336,412.7976 L489.692,421.4405 L482.8445,428.9611 L477.0642,437.3336 L470.021,444.698 " fill="none" style="stroke: #A80036; stroke-width: 1.0; stroke-dasharray: 7.0,7.0;"/><polygon fill="#A80036" points="542.942,353.348,542.8562,353.1826,541.1512,354.1735,539.3403,354.9604,537.802,356.2725,535.9631,357.0053,534.2003,357.8848,534.1749,357.6576,535.3088,357.6177,536.4544,357.681,537.5545,357.3386,538.7125,357.5132,539.822,357.2551,540.0277,357.2782,539.8022,358.3631,539.9237,359.487,540.14,360.6214,540.198,361.7382,540.4517,362.8768,540.3501,362.8503,541.1782,361.0307,541.2145,359.0043,541.8353,357.1306,542.4274,355.2494,542.942,353.348" style="stroke: #A80036; stroke-width: 1.0;"/><!--link BerliozAgent1WS to ServiceA3Connector--><path d="M559.17,358.027 L558.3757,357.6716 L563.562,367.6946 L568.4878,377.601 L572.8275,387.2452 L575.6444,396.2081 L580.5266,406.095 L584.1073,415.3996 L589.5282,425.5275 L592.9915,434.7797 L597.944,444.698 " fill="none" style="stroke: #A80036; stroke-width: 1.0; stroke-dasharray: 7.0,7.0;"/><polygon fill="#A80036" points="557.077,353.348,556.9367,353.3477,557.1909,355.318,557.1281,357.2876,556.8797,359.2568,556.8869,361.2266,557.1001,363.1968,557.2383,363.2496,557.5237,362.1475,557.6876,360.9991,558.1428,359.9618,558.5693,358.9136,559.1184,357.9123,559.0482,357.7283,560.2459,358.5008,561.1909,358.6114,562.2305,358.9696,563.3375,359.5045,564.403,359.9306,564.4161,359.9452,563.0444,358.7327,561.5738,357.4102,560.1691,356.1609,558.5338,354.6552,557.077,353.348" style="stroke: #A80036; stroke-width: 1.0;"/><!--link BerliozAgent1WS to ServiceB2Connector--><path d="M578.891,355.536 L578.9601,355.6691 L582.5277,357.3122 L586.2371,359.2284 L589.9548,361.1607 L593.6564,363.062 L597.4668,365.173 L597.5023,365.2396 L601.5289,367.1527 L605.768,369.4644 L610.1567,372.0569 L614.3414,374.2665 L618.4681,376.3675 L618.4842,376.3965 L622.7386,378.5655 L627.1531,381.0243 L631.5897,383.5232 L636.202,386.3402 L640.4582,388.5123 L640.3983,388.4075 L642.6833,389.8332 L644.7752,390.9209 L647.1638,392.528 L649.2303,393.5713 L651.3749,394.7512 L651.4614,394.8983 L653.5847,396.1452 L655.6046,397.2161 L657.8056,398.5951 L659.8567,399.7192 L662,401 L662.0025,401.004 L665.8026,403.5035 L669.458,405.7685 L672.9129,407.7089 L676.5749,409.9846 L680.2353,412.2578 L680.3916,412.499 L683.9724,414.7902 L687.5836,417.1282 L690.9144,419.0334 L694.7429,421.7069 L698.3,423.9614 L698.1745,423.774 L701.6382,426.1991 L704.9542,428.4037 L708.219,430.5318 L711.8174,433.1579 L714.9802,435.1338 L714.9777,435.1301 L717.7851,437.05 L720.4703,438.7917 L723.3533,440.8216 L726.101,442.6543 L729.062,444.798 " fill="none" style="stroke: #A80036; stroke-width: 1.0; stroke-dasharray: 7.0,7.0;"/><polygon fill="#A80036" points="574.249,353.163,574.3917,353.2784,575.535,354.7327,576.8585,356.3327,577.79,357.6158,579.2477,359.3244,580.4427,360.8205,580.6279,360.8805,579.9419,359.6948,579.9255,358.7257,579.5463,357.6393,579.0759,356.5233,578.7013,355.4384,578.7297,355.5264,579.8044,355.1728,580.7983,354.5693,581.8994,354.2975,582.9464,353.8582,584.0834,353.6969,584.0743,353.5291,582.1136,353.5367,580.162,353.7109,578.1739,353.2131,576.2222,353.3869,574.249,353.163" style="stroke: #A80036; stroke-width: 1.0;"/><!--link SQS1 to BerliozAgent1--><path d="M428.733,212.196 L427.9295,211.9428 L431.1052,221.6475 L434.8224,231.5227 L438.7919,241.4775 L440.9134,250.8499 L444.4448,260.6666 L446.4611,270.006 L450.3036,279.9207 L453.0899,289.5026 L452.8634,289.4313 L454.1298,293.2512 L455.6082,297.1379 L456.6691,300.893 L457.9725,304.7245 L459.073,308.4922 L459.1899,308.529 L459.5419,309.4152 L459.7196,310.2466 L460.118,311.1474 L459.9606,311.8732 L460.429,312.7961 L460.1499,312.7082 L460.6697,313.0596 L460.8336,313.2989 L460.4621,313.3695 L460.9313,313.705 L460.7572,313.8378 L460.7173,313.8252 L460.8162,313.9492 L460.6537,313.9908 L460.7085,314.101 L460.9444,314.2681 L460.9196,314.3532 " fill="none" style="stroke: #A80036; stroke-width: 1.0;"/><polygon fill="#A80036" points="460.9196,314.3532,461.0997,314.3736,461.301,312.4141,461.5594,310.461,461.4811,308.4697,461.8968,306.5344,462.0301,304.5671,461.9448,304.5227,461.4633,305.5475,461.1731,306.672,460.5773,307.6373,459.9764,308.6,459.417,309.5843,459.4828,309.7106,458.4559,309.1429,457.3678,308.4578,456.3861,307.9768,455.33,307.353,454.3999,306.9712,454.4667,307.0302,455.8339,308.5625,457.0227,309.9372,458.2449,311.3413,459.6155,312.8766,460.9196,314.3532" style="stroke: #A80036; stroke-width: 1.0;"/><!--link SQS2 to BerliozAgent2--><path d="M191.154,212.194 L191.1398,212.1846 L190.329,213.8911 L189.1207,215.3351 L188.3315,217.0558 L186.89,218.3458 L186,220 L186.2771,220.1273 L184.8793,221.6959 L184.4905,223.7279 L183.5563,225.5095 L182.5775,227.2706 L181.8083,229.1279 L181.7159,229.0934 L181.2228,231.0819 L180.4499,232.9659 L179.9849,234.9649 L178.8825,236.726 L178.2489,238.662 L178.0896,238.6137 L177.8713,240.6895 L177.1745,242.62 L176.6791,244.6117 L175.7257,246.4644 L175.272,248.4688 L175.5535,248.5379 L174.6306,250.4204 L174.3825,252.4687 L173.9947,254.4826 L173.1231,256.3777 L172.8281,258.4145 L172.6824,258.3858 L172.3186,260.3815 L172.341,262.4534 L171.9686,264.4475 L171.3288,266.3889 L170.8675,268.3655 L171.1044,268.4023 L170.6012,270.336 L170.1734,272.2815 L170.051,274.2745 L169.3717,276.1809 L169.3406,278.1881 L169.0293,278.1483 L169.0038,279.125 L169.0334,280.1089 L169.1315,281.1014 L168.833,282.0433 L168.7242,283.0095 L168.7823,283.0163 L168.9246,283.2748 L168.6461,283.4841 L168.7305,283.7359 L168.9068,283.9985 L168.5843,284.2026 L168.3866,284.1801 L168.4262,284.305 L168.4756,284.4311 L168.5419,284.5592 L168.3701,284.66 L168.5165,284.7972 " fill="none" style="stroke: #A80036; stroke-width: 1.0;"/><polygon fill="#A80036" points="168.5165,284.7972,168.6016,284.8471,169.4085,283.0367,170.2981,281.2749,171.4113,279.6443,172.5688,278.0396,173.5024,276.3036,173.6174,276.448,172.5993,276.9857,171.6343,277.5901,170.9637,278.5641,170.0977,279.2926,169.0783,279.8288,169.2358,279.9544,168.4512,279.0061,167.6864,278.0737,167.0908,277.2761,166.1668,276.2168,165.5531,275.4047,165.4791,275.3814,165.999,277.2369,166.9266,279.2211,167.4944,281.0917,168.1097,282.9773,168.5165,284.7972" style="stroke: #A80036; stroke-width: 1.0;"/><!--link BerliozRobot to SQS1--><path d="M296.597,98.244 L296.0697,97.5331 L304.178,103.5242 L313.0718,110.5743 L321.0047,116.3287 L328.9889,122.1525 L336.8165,127.7652 L345.6822,134.7773 L353.7881,140.7652 L361.9911,146.8839 L369.6949,152.3297 L378.2024,158.8589 L386.4462,165.0326 L394.353,170.752 " fill="none" style="stroke: #A80036; stroke-width: 1.0;"/><polygon fill="#A80036" points="398.414,173.764,398.4512,173.785,397.5222,172.0928,396.4915,170.3432,395.399,168.5586,394.3864,166.8191,393.5684,165.1896,393.5158,165.1818,393.807,166.3195,393.7947,167.4122,393.8474,168.5146,394.4243,169.6947,394.3981,170.7853,394.3982,170.7856,393.2561,170.7967,392.1321,170.9298,391.0056,171.0464,389.9292,171.5002,388.8024,171.6151,388.8535,171.8434,390.6931,171.9031,392.6205,172.3559,394.5431,172.787,396.4773,173.27,398.414,173.764" style="stroke: #A80036; stroke-width: 1.0;"/><!--link BerliozRobot to SQS2--><path d="M262.092,98.495 L262.825,98.8877 L256.9753,107.1433 L252.4323,116.0989 L248.671,125.4733 L243.0194,133.835 L238.1926,142.6387 L233.9505,151.7555 L228.1274,160.0253 L224.165,169.292 " fill="none" style="stroke: #A80036; stroke-width: 1.0;"/><polygon fill="#A80036" points="221.723,173.85,221.8548,174.0196,223.198,172.5379,224.6996,171.2601,226.3414,170.1627,227.9203,168.9843,229.4994,167.8062,229.4371,167.6001,228.4495,168.2431,227.3987,168.6768,226.2127,168.6633,225.2377,169.3479,224.0845,169.4428,224.1657,169.4673,223.7549,168.3591,223.4657,167.2877,223.244,166.2366,222.6478,165.0723,222.4479,164.0279,222.6389,164.0419,222.3884,165.9986,221.9629,167.9423,221.911,169.9136,221.9227,171.8896,221.723,173.85" style="stroke: #A80036; stroke-width: 1.0;"/><!--
@startuml

skinparam handwritten true

cloud "AWS-Client" #08B2E3 {

    node "Instance" as Instance2 #B7BFC9 {

        rectangle "Berlioz Agent" as BerliozAgent2 #F77F00 {
            card "Web Socket" as BerliozAgent2WS #EE6352  {

            }
        }

        rectangle ServiceA1 #57A773 {
            card "Connector" as ServiceA1Connector #FCBF49  {

            }
        }

        rectangle ServiceB1 #57A773 {
            card "Connector" as ServiceB1Connector #FCBF49  {

            }
        }

        BerliozAgent2WS <.. ServiceA1Connector
        BerliozAgent2WS <.. ServiceB1Connector
    }

    node "Instance" as Instance1 #B7BFC9 {

        rectangle "Berlioz Agent" as BerliozAgent1 #F77F00 {
            card "Web Socket" as BerliozAgent1WS #EE6352  {

            }
        }

        rectangle ServiceA2 #57A773 {
            card "Connector" as ServiceA2Connector #FCBF49  {

            }
        }

        rectangle ServiceA3 #57A773 {
            card "Connector" as ServiceA3Connector #FCBF49  {

            }
        }

        rectangle ServiceB2 #57A773 {
            card "Connector" as ServiceB2Connector #FCBF49  {

            }
        }

        BerliozAgent1WS <.. ServiceA2Connector
        BerliozAgent1WS <.. ServiceA3Connector
        BerliozAgent1WS <.. ServiceB2Connector
    }


    storage "AWS-SQS" as SQS1 #D3C4D1 {
    }
    SQS1 - -> BerliozAgent1

    storage "AWS-SQS" as SQS2 #D3C4D1 {
    }
    SQS2 - -> BerliozAgent2

}

cloud "AWS-Berlioz" #08B2E3 {
    rectangle "Berlioz Robot" as BerliozRobot #EE6352 {

    }
}

BerliozRobot - -> SQS1
BerliozRobot - -> SQS2

@enduml

PlantUML version 1.2018.03(Thu Apr 05 09:59:15 PDT 2018)
(GPL source distribution)
Java Runtime: Java(TM) SE Runtime Environment
JVM: Java HotSpot(TM) Client VM
Java Version: 1.8.0_101-b13
Operating System: Windows 10
OS Version: 10.0
Default Encoding: Cp1252
Language: en
Country: US
--></g></svg>