<?xml version="1.0" encoding="UTF-8" standalone="no"?><svg xmlns="http://www.w3.org/2000/svg" xmlns:xlink="http://www.w3.org/1999/xlink" contentScriptType="application/ecmascript" contentStyleType="text/css" height="542px" preserveAspectRatio="none" style="width:712px;height:542px;" version="1.1" viewBox="0 0 712 542"
    width="712px" zoomAndPan="magnify"><defs><filter height="300%" id="fmhzprzei52wr" width="300%" x="-1" y="-1"><feGaussianBlur result="blurOut" stdDeviation="2.0"/><feColorMatrix in="blurOut" result="blurOut2" type="matrix" values="0 0 0 0 0 0 0 0 0 0 0 0 0 0 0 0 0 0 .4 0"/><feOffset dx="4.0" dy="4.0" in="blurOut2" result="blurOut3"/><feBlend in="SourceGraphic" in2="blurOut3" mode="normal"/></filter></defs><g><!--cluster AWS-Client--><path d="M25,145 C25,142 27,140 30,140 C33,140 35,142 35,145 C35,142 37,140 40,140 C43,140 45,142 45,145 C45,142 47,140 50,140 C53,140 55,142 55,145 C55,142 57,140 60,140 C63,140 65,142 65,145 C65,142 67,140 70,140 C73,140 75,142 75,145 C75,142 77,140 80,140 C83,140 85,142 85,145 C85,142 87,140 90,140 C93,140 95,142 95,145 C95,142 97,140 100,140 C103,140 105,142 105,145 C105,142 107,140 110,140 C113,140 115,142 115,145 C115,142 117,140 120,140 C123,140 125,142 125,145 C125,142 127,140 130,140 C133,140 135,142 135,145 C135,142 137,140 140,140 C143,140 145,142 145,145 C145,142 147,140 150,140 C153,140 155,142 155,145 C155,142 157,140 160,140 C163,140 165,142 165,145 C165,142 167,140 170,140 C173,140 175,142 175,145 C175,142 177,140 180,140 C183,140 185,142 185,145 C185,142 187,140 190,140 C193,140 195,142 195,145 C195,142 197,140 200,140 C203,140 205,142 205,145 C205,142 207,140 210,140 C213,140 215,142 215,145 C215,142 217,140 220,140 C223,140 225,142 225,145 C225,142 227,140 230,140 C233,140 235,142 235,145 C235,142 237,140 240,140 C243,140 245,142 245,145 C245,142 247,140 250,140 C253,140 255,142 255,145 C255,142 257,140 260,140 C263,140 265,142 265,145 C265,142 267,140 270,140 C273,140 275,142 275,145 C275,142 277,140 280,140 C283,140 285,142 285,145 C285,142 287,140 290,140 C293,140 295,142 295,145 C295,142 297,140 300,140 C303,140 305,142 305,145 C305,142 307,140 310,140 C313,140 315,142 315,145 C315,142 317,140 320,140 C323,140 325,142 325,145 C325,142 327,140 330,140 C333,140 335,142 335,145 C335,142 337,140 340,140 C343,140 345,142 345,145 C345,142 347,140 350,140 C353,140 355,142 355,145 C355,142 357,140 360,140 C363,140 365,142 365,145 C365,142 367,140 370,140 C373,140 375,142 375,145 C375,142 377,140 380,140 C383,140 385,142 385,145 C385,142 387,140 390,140 C393,140 395,142 395,145 C395,142 397,140 400,140 C403,140 405,142 405,145 C405,142 407,140 410,140 C413,140 415,142 415,145 C415,142 417,140 420,140 C423,140 425,142 425,145 C425,142 427,140 430,140 C433,140 435,142 435,145 C435,142 437,140 440,140 C443,140 445,142 445,145 C445,142 447,140 450,140 C453,140 455,142 455,145 C455,142 457,140 460,140 C463,140 465,142 465,145 C465,142 467,140 470,140 C473,140 475,142 475,145 C475,142 477,140 480,140 C483,140 485,142 485,145 C485,142 487,140 490,140 C493,140 495,142 495,145 C495,142 497,140 500,140 C503,140 505,142 505,145 C505,142 507,140 510,140 C513,140 515,142 515,145 C515,142 517,140 520,140 C523,140 525,142 525,145 C525,142 527,140 530,140 C533,140 535,142 535,145 C535,142 537,140 540,140 C543,140 545,142 545,145 C545,142 547,140 550,140 C553,140 555,142 555,145 C555,142 557,140 560,140 C563,140 565,142 565,145 C565,142 567,140 570,140 C573,140 575,142 575,145 C575,142 577,140 580,140 C583,140 585,142 585,145 C585,142 587,140 590,140 C593,140 595,142 595,145 C595,142 597,140 600,140 C603,140 605,142 605,145 C605,142 607,140 610,140 C613,140 615,142 615,145 C615,142 617,140 620,140 C623,140 625,142 625,145 C625,142 627,140 630,140 C633,140 635,142 635,145 C635,142 637,140 640,140 C643,140 645,142 645,145 C645,142 647,140 650,140 C653,140 655,142 655,145 C655,142 657,140 660,140 C663,140 665,142 665,145 C665,142 667,140 670,140 C673,140 675,142 675,145 C675,142 677,140 680,140 C683,140 685,142 685,145 C685,142 687,140 690,140 C693,140 695,142 695,145 C698,145 700,147 700,150 C700,153 698,155 695,155 C698,155 700,157 700,160 C700,163 698,165 695,165 C698,165 700,167 700,170 C700,173 698,175 695,175 C698,175 700,177 700,180 C700,183 698,185 695,185 C698,185 700,187 700,190 C700,193 698,195 695,195 C698,195 700,197 700,200 C700,203 698,205 695,205 C698,205 700,207 700,210 C700,213 698,215 695,215 C698,215 700,217 700,220 C700,223 698,225 695,225 C698,225 700,227 700,230 C700,233 698,235 695,235 C698,235 700,237 700,240 C700,243 698,245 695,245 C698,245 700,247 700,250 C700,253 698,255 695,255 C698,255 700,257 700,260 C700,263 698,265 695,265 C698,265 700,267 700,270 C700,273 698,275 695,275 C698,275 700,277 700,280 C700,283 698,285 695,285 C698,285 700,287 700,290 C700,293 698,295 695,295 C698,295 700,297 700,300 C700,303 698,305 695,305 C698,305 700,307 700,310 C700,313 698,315 695,315 C698,315 700,317 700,320 C700,323 698,325 695,325 C698,325 700,327 700,330 C700,333 698,335 695,335 C698,335 700,337 700,340 C700,343 698,345 695,345 C698,345 700,347 700,350 C700,353 698,355 695,355 C698,355 700,357 700,360 C700,363 698,365 695,365 C698,365 700,367 700,370 C700,373 698,375 695,375 C698,375 700,377 700,380 C700,383 698,385 695,385 C698,385 700,387 700,390 C700,393 698,395 695,395 C698,395 700,397 700,400 C700,403 698,405 695,405 C698,405 700,407 700,410 C700,413 698,415 695,415 C698,415 700,417 700,420 C700,423 698,425 695,425 C698,425 700,427 700,430 C700,433 698,435 695,435 C698,435 700,437 700,440 C700,443 698,445 695,445 C698,445 700,447 700,450 C700,453 698,455 695,455 C698,455 700,457 700,460 C700,463 698,465 695,465 C698,465 700,467 700,470 C700,473 698,475 695,475 C698,475 700,477 700,480 C700,483 698,485 695,485 C698,485 700,487 700,490 C700,493 698,495 695,495 C698,495 700,497 700,500 C700,503 698,505 695,505 C698,505 700,507 700,510 C700,513 698,515 695,515 C698,515 700,517 700,520 C700,523 698,525 695,525 C695,528 692,530 690,530 C687,530 685,528 685,525 C685,528 682,530 680,530 C677,530 675,528 675,525 C675,528 672,530 670,530 C667,530 665,528 665,525 C665,528 662,530 660,530 C657,530 655,528 655,525 C655,528 652,530 650,530 C647,530 645,528 645,525 C645,528 642,530 640,530 C637,530 635,528 635,525 C635,528 632,530 630,530 C627,530 625,528 625,525 C625,528 622,530 620,530 C617,530 615,528 615,525 C615,528 612,530 610,530 C607,530 605,528 605,525 C605,528 602,530 600,530 C597,530 595,528 595,525 C595,528 592,530 590,530 C587,530 585,528 585,525 C585,528 582,530 580,530 C577,530 575,528 575,525 C575,528 572,530 570,530 C567,530 565,528 565,525 C565,528 562,530 560,530 C557,530 555,528 555,525 C555,528 552,530 550,530 C547,530 545,528 545,525 C545,528 542,530 540,530 C537,530 535,528 535,525 C535,528 532,530 530,530 C527,530 525,528 525,525 C525,528 522,530 520,530 C517,530 515,528 515,525 C515,528 512,530 510,530 C507,530 505,528 505,525 C505,528 502,530 500,530 C497,530 495,528 495,525 C495,528 492,530 490,530 C487,530 485,528 485,525 C485,528 482,530 480,530 C477,530 475,528 475,525 C475,528 472,530 470,530 C467,530 465,528 465,525 C465,528 462,530 460,530 C457,530 455,528 455,525 C455,528 452,530 450,530 C447,530 445,528 445,525 C445,528 442,530 440,530 C437,530 435,528 435,525 C435,528 432,530 430,530 C427,530 425,528 425,525 C425,528 422,530 420,530 C417,530 415,528 415,525 C415,528 412,530 410,530 C407,530 405,528 405,525 C405,528 402,530 400,530 C397,530 395,528 395,525 C395,528 392,530 390,530 C387,530 385,528 385,525 C385,528 382,530 380,530 C377,530 375,528 375,525 C375,528 372,530 370,530 C367,530 365,528 365,525 C365,528 362,530 360,530 C357,530 355,528 355,525 C355,528 352,530 350,530 C347,530 345,528 345,525 C345,528 342,530 340,530 C337,530 335,528 335,525 C335,528 332,530 330,530 C327,530 325,528 325,525 C325,528 322,530 320,530 C317,530 315,528 315,525 C315,528 312,530 310,530 C307,530 305,528 305,525 C305,528 302,530 300,530 C297,530 295,528 295,525 C295,528 292,530 290,530 C287,530 285,528 285,525 C285,528 282,530 280,530 C277,530 275,528 275,525 C275,528 272,530 270,530 C267,530 265,528 265,525 C265,528 262,530 260,530 C257,530 255,528 255,525 C255,528 252,530 250,530 C247,530 245,528 245,525 C245,528 242,530 240,530 C237,530 235,528 235,525 C235,528 232,530 230,530 C227,530 225,528 225,525 C225,528 222,530 220,530 C217,530 215,528 215,525 C215,528 212,530 210,530 C207,530 205,528 205,525 C205,528 202,530 200,530 C197,530 195,528 195,525 C195,528 192,530 190,530 C187,530 185,528 185,525 C185,528 182,530 180,530 C177,530 175,528 175,525 C175,528 172,530 170,530 C167,530 165,528 165,525 C165,528 162,530 160,530 C157,530 155,528 155,525 C155,528 152,530 150,530 C147,530 145,528 145,525 C145,528 142,530 140,530 C137,530 135,528 135,525 C135,528 132,530 130,530 C127,530 125,528 125,525 C125,528 122,530 120,530 C117,530 115,528 115,525 C115,528 112,530 110,530 C107,530 105,528 105,525 C105,528 102,530 100,530 C97,530 95,528 95,525 C95,528 92,530 90,530 C87,530 85,528 85,525 C85,528 82,530 80,530 C77,530 75,528 75,525 C75,528 72,530 70,530 C67,530 65,528 65,525 C65,528 62,530 60,530 C57,530 55,528 55,525 C55,528 52,530 50,530 C47,530 45,528 45,525 C45,528 42,530 40,530 C37,530 35,528 35,525 C35,528 32,530 30,530 C27,530 25,528 25,525 C22,525 20,523 20,520 C20,517 22,515 25,515 C22,515 20,513 20,510 C20,507 22,505 25,505 C22,505 20,503 20,500 C20,497 22,495 25,495 C22,495 20,493 20,490 C20,487 22,485 25,485 C22,485 20,483 20,480 C20,477 22,475 25,475 C22,475 20,473 20,470 C20,467 22,465 25,465 C22,465 20,463 20,460 C20,457 22,455 25,455 C22,455 20,453 20,450 C20,447 22,445 25,445 C22,445 20,443 20,440 C20,437 22,435 25,435 C22,435 20,433 20,430 C20,427 22,425 25,425 C22,425 20,423 20,420 C20,417 22,415 25,415 C22,415 20,413 20,410 C20,407 22,405 25,405 C22,405 20,403 20,400 C20,397 22,395 25,395 C22,395 20,393 20,390 C20,387 22,385 25,385 C22,385 20,383 20,380 C20,377 22,375 25,375 C22,375 20,373 20,370 C20,367 22,365 25,365 C22,365 20,363 20,360 C20,357 22,355 25,355 C22,355 20,353 20,350 C20,347 22,345 25,345 C22,345 20,343 20,340 C20,337 22,335 25,335 C22,335 20,333 20,330 C20,327 22,325 25,325 C22,325 20,323 20,320 C20,317 22,315 25,315 C22,315 20,313 20,310 C20,307 22,305 25,305 C22,305 20,303 20,300 C20,297 22,295 25,295 C22,295 20,293 20,290 C20,287 22,285 25,285 C22,285 20,283 20,280 C20,277 22,275 25,275 C22,275 20,273 20,270 C20,267 22,265 25,265 C22,265 20,263 20,260 C20,257 22,255 25,255 C22,255 20,253 20,250 C20,247 22,245 25,245 C22,245 20,243 20,240 C20,237 22,235 25,235 C22,235 20,233 20,230 C20,227 22,225 25,225 C22,225 20,223 20,220 C20,217 22,215 25,215 C22,215 20,213 20,210 C20,207 22,205 25,205 C22,205 20,203 20,200 C20,197 22,195 25,195 C22,195 20,193 20,190 C20,187 22,185 25,185 C22,185 20,183 20,180 C20,177 22,175 25,175 C22,175 20,173 20,170 C20,167 22,165 25,165 C22,165 20,163 20,160 C20,157 22,155 25,155 C22,155 20,153 20,150 C20,147 22,145 25,145 " fill="#08B2E3" filter="url(#fmhzprzei52wr)" style="stroke: #000000; stroke-width: 1.5;"/><text fill="#000000" font-family="sans-serif" font-size="14" font-weight="bold" lengthAdjust="spacingAndGlyphs" textLength="77" x="322" y="165.5332">AWS-Client</text><!--cluster Instance2--><polygon fill="#B7BFC9" filter="url(#fmhzprzei52wr)" points="46,238,45.9956,237.9956,47.8895,235.8895,50.1359,234.1359,52.0925,232.0925,53.919,229.919,56,228,56,227.2674,65.875,227.7307,75.75,227.299,85.625,227.9711,95.5,227.5868,105.375,228.1376,115.25,227.4776,125.125,227.7812,135,227.3435,144.875,227.4367,154.75,227.8278,164.625,227.8014,174.5,228.5688,184.375,227.714,194.25,227.5968,204.125,228.5384,214,228.5948,223.875,227.9041,233.75,227.3761,243.625,227.4074,253.5,227.3757,263.375,228.4884,273.25,227.7261,283.125,227.365,293,228,293.1695,228,293.3421,238.037,292.8943,248.0741,292.9487,258.1111,292.4015,268.1481,292.4932,278.1852,292.6678,288.2222,292.5052,298.2593,293.1431,308.2963,292.5486,318.3333,292.6742,328.3704,292.605,338.4074,293.7044,348.4444,292.6108,358.4815,293.4267,368.5185,292.6866,378.5556,292.3563,388.5926,293.1549,398.6296,293.0879,408.6667,293.348,418.7037,293.17,428.7407,292.5635,438.7778,293.3168,448.8148,292.9035,458.8519,292.8857,468.8889,292.8164,478.9259,293.6466,488.963,293,499,292.9658,498.9658,290.9056,500.9056,289.0509,503.0509,286.9143,504.9143,285.0669,507.0669,283,509,283,509.3888,273.125,508.488,263.25,508.5325,253.375,508.3557,243.5,508.7797,233.625,509.1364,223.75,508.3743,213.875,508.645,204,509.6953,194.125,509.0412,184.25,508.8776,174.375,508.328,164.5,509.2178,154.625,508.4917,144.75,509.0366,134.875,508.9645,125,508.6355,115.125,509.109,105.25,509.6897,95.375,508.5839,85.5,508.8452,75.625,508.4699,65.75,509.3041,55.875,509.1226,46,509,46.7287,509,46.1678,498.963,46.4518,488.9259,46.4109,478.8889,45.6245,468.8519,46.5546,458.8148,45.3603,448.7778,45.3912,438.7407,45.4723,428.7037,45.4915,418.6667,46.545,408.6296,45.5616,398.5926,46.1143,388.5556,45.5988,378.5185,46.3529,368.4815,45.2767,358.4444,46.603,348.4074,46.7372,338.3704,45.7697,328.3333,46.5055,318.2963,46.1748,308.2593,46.269,298.2222,46.0758,288.1852,45.4419,278.1481,45.3232,268.1111,46.5476,258.0741,45.3662,248.037,46,238" style="stroke: #000000; stroke-width: 1.5;"/><path d="M283,238 L283.1524,238.1524 L284.6806,236.0806 L286.6181,234.4181 L288.5837,232.7837 L290.0624,230.6624 L292,229 " fill="#B7BFC9" style="stroke: #000000; stroke-width: 1.5;"/><path d="M46,238 L46,237.4831 L55.875,237.5725 L65.75,238.0807 L75.625,238.0558 L85.5,238.9981 L95.375,238.9156 L105.25,238.1113 L115.125,238.794 L125,237.8218 L134.875,237.7236 L144.75,237.0449 L154.625,238.4058 L164.5,238.414 L174.375,237.7976 L184.25,237.3978 L194.125,238.0877 L204,238.3147 L213.875,238.2158 L223.75,237.1242 L233.625,238.6031 L243.5,238.7859 L253.375,237.8075 L263.25,237.5598 L273.125,237.4581 L283,238 " fill="#B7BFC9" style="stroke: #000000; stroke-width: 1.5;"/><path d="M283,238 L283.2085,238 L282.588,248.037 L282.2577,258.0741 L282.8661,268.1111 L283.5458,278.1481 L282.2023,288.1852 L282.7782,298.2222 L283.6974,308.2593 L283.917,318.2963 L283.3275,328.3333 L282.4444,338.3704 L283.4808,348.4074 L282.9952,358.4444 L283.3294,368.4815 L282.9639,378.5185 L283.8351,388.5556 L283.55,398.5926 L282.2449,408.6296 L283.6416,418.6667 L282.4579,428.7037 L282.0026,438.7407 L283.3791,448.7778 L282.6766,458.8148 L282.9832,468.8519 L283.3404,478.8889 L282.4628,488.9259 L282.732,498.963 L283,509 " fill="#B7BFC9" style="stroke: #000000; stroke-width: 1.5;"/><text fill="#000000" font-family="sans-serif" font-size="14" font-weight="bold" lengthAdjust="spacingAndGlyphs" textLength="60" x="135.5" y="255.5332">Instance</text><!--cluster BerliozAgent2--><polygon fill="#F77F00" filter="url(#fmhzprzei52wr)" points="98,285,98,284.7321,108.1875,285.1198,118.375,284.5526,128.5625,284.7064,138.75,284.7951,148.9375,285.723,159.125,284.3977,169.3125,284.5716,179.5,285.2529,189.6875,284.3524,199.875,285.3974,210.0625,284.4381,220.25,284.8979,230.4375,285.1817,240.625,285.0073,250.8125,285.3622,261,285,261.7379,285,260.6102,295.2222,261.5998,305.4444,260.8945,315.6667,261.5994,325.8889,260.4156,336.1111,261.5372,346.3333,260.2962,356.5556,261.7281,366.7778,261,377,261,377.4479,250.8125,377.4214,240.625,376.5031,230.4375,377.2982,220.25,376.3374,210.0625,377.4669,199.875,376.7487,189.6875,377.0817,179.5,376.3714,169.3125,377.6373,159.125,376.3652,148.9375,376.6999,138.75,376.3435,128.5625,376.4559,118.375,376.5857,108.1875,376.8789,98,377,97.7717,377,97.7545,366.7778,98.6816,356.5556,98.4559,346.3333,98.4334,336.1111,97.5491,325.8889,97.4845,315.6667,98.539,305.4444,97.6661,295.2222,98,285" style="stroke: #000000; stroke-width: 1.5;"/><text fill="#000000" font-family="sans-serif" font-size="14" font-weight="bold" lengthAdjust="spacingAndGlyphs" textLength="94" x="132.5" y="301.5332">Berlioz Agent</text><!--cluster ServiceA1--><polygon fill="#57A773" filter="url(#fmhzprzei52wr)" points="70,409,70,408.7388,79.6667,408.7551,89.3333,409.7065,99,409.3381,108.6667,408.4111,118.3333,409.4842,128,408.4404,137.6667,408.3051,147.3333,409.695,157,409,157.5323,409,157.1321,418.5,157.5253,428,156.8476,437.5,157.0403,447,157.4603,456.5,156.3257,466,157.5765,475.5,157,485,157,484.7723,147.3333,484.7417,137.6667,484.5771,128,485.5,118.3333,484.9857,108.6667,484.4749,99,484.7575,89.3333,485.6176,79.6667,485.0555,70,485,69.2512,485,69.5581,475.5,70.2226,466,70.4221,456.5,69.4858,447,69.3138,437.5,70.3136,428,70.4702,418.5,70,409" style="stroke: #000000; stroke-width: 1.5;"/><text fill="#000000" font-family="sans-serif" font-size="14" font-weight="bold" lengthAdjust="spacingAndGlyphs" textLength="71" x="78" y="425.5332">ServiceA1</text><!--cluster ServiceB1--><polygon fill="#57A773" filter="url(#fmhzprzei52wr)" points="181,409,181,409.5302,190.7778,409.6189,200.5556,408.7768,210.3333,408.6925,220.1111,409.6633,229.8889,409.0249,239.6667,408.8945,249.4444,408.9401,259.2222,408.7217,269,409,269.703,409,269.6027,418.5,269.7105,428,269.2241,437.5,268.3927,447,268.3653,456.5,268.7804,466,268.7623,475.5,269,485,269,485.3531,259.2222,485.5522,249.4444,484.5463,239.6667,485.6827,229.8889,484.8774,220.1111,484.31,210.3333,485.6954,200.5556,484.6565,190.7778,485.2338,181,485,181.5937,485,180.2957,475.5,181.6433,466,181.6435,456.5,180.2804,447,180.5558,437.5,181.4843,428,180.6168,418.5,181,409" style="stroke: #000000; stroke-width: 1.5;"/><text fill="#000000" font-family="sans-serif" font-size="14" font-weight="bold" lengthAdjust="spacingAndGlyphs" textLength="72" x="189" y="425.5332">ServiceB1</text><!--cluster Instance1--><polygon fill="#B7BFC9" filter="url(#fmhzprzei52wr)" points="317,238,317.0292,238.0292,319.0898,236.0898,321.0998,234.0998,323.1473,232.1473,324.9339,229.9339,327,228,327,227.9179,336.9429,228.2444,346.8857,228.6958,356.8286,228.1438,366.7714,228.5611,376.7143,228.4251,386.6571,227.5899,396.6,227.4901,406.5429,228.3733,416.4857,228.2634,426.4286,228.7273,436.3714,228.1888,446.3143,228.0489,456.2571,227.7936,466.2,228.0112,476.1429,228.2037,486.0857,227.442,496.0286,228.5217,505.9714,228.1144,515.9143,228.0158,525.8571,227.2636,535.8,227.5319,545.7429,228.1755,555.6857,227.6779,565.6286,227.846,575.5714,227.8782,585.5143,228.18,595.4571,228.1882,605.4,228.3674,615.3429,228.36,625.2857,228.0866,635.2286,227.9636,645.1714,228.6269,655.1143,228.2938,665.0571,227.9956,675,228,674.8154,228,674.3609,238.037,675.2361,248.0741,674.3448,258.1111,674.5171,268.1481,674.6958,278.1852,675.2847,288.2222,674.7633,298.2593,674.832,308.2963,675.1399,318.3333,675.5796,328.3704,675.3096,338.4074,675.2142,348.4444,675.5269,358.4815,674.9578,368.5185,674.8671,378.5556,675.327,388.5926,675.5365,398.6296,674.8637,408.6667,674.4768,418.7037,674.5283,428.7407,674.835,438.7778,675.6073,448.8148,674.3391,458.8519,674.5572,468.8889,675.4974,478.9259,674.3667,488.963,675,499,675.1476,499.1476,672.8395,500.8395,671.0465,503.0465,668.8763,504.8763,667.026,507.026,665,509,665,509.4052,655.0571,508.672,645.1143,509.4993,635.1714,509.4236,625.2286,508.3056,615.2857,508.7084,605.3429,508.4059,595.4,509.539,585.4571,508.6662,575.5143,508.3135,565.5714,508.7487,555.6286,509.2793,545.6857,508.9199,535.7429,509.384,525.8,509.2454,515.8571,509.3348,505.9143,508.6735,495.9714,509.5162,486.0286,509.4049,476.0857,509.4012,466.1429,508.8626,456.2,509.1447,446.2571,508.9677,436.3143,508.6269,426.3714,509.3977,416.4286,508.4407,406.4857,508.8605,396.5429,509.5934,386.6,509.3109,376.6571,509.3503,366.7143,509.1281,356.7714,509.0403,346.8286,509.2794,336.8857,508.3018,326.9429,508.4011,317,509,317.4845,509,317.3466,498.963,317.4675,488.9259,316.3745,478.8889,317.2776,468.8519,317.6793,458.8148,317.0197,448.7778,317.5253,438.7407,317.4922,428.7037,316.3064,418.6667,317.5852,408.6296,317.3685,398.5926,316.3242,388.5556,316.4567,378.5185,316.5597,368.4815,316.4618,358.4444,316.9555,348.4074,317.3725,338.3704,317.6167,328.3333,316.5961,318.2963,317.5214,308.2593,316.3106,298.2222,317.1108,288.1852,317.1747,278.1481,317.491,268.1111,317.3533,258.0741,316.6489,248.037,317,238" style="stroke: #000000; stroke-width: 1.5;"/><path d="M665,238 L664.8965,237.8965 L666.9184,236.3184 L668.8021,234.6021 L670.3621,232.5621 L672.1281,230.7281 L674,229 " fill="#B7BFC9" style="stroke: #000000; stroke-width: 1.5;"/><path d="M317,238 L317,237.6738 L326.9429,237.6345 L336.8857,238.0391 L346.8286,237.1439 L356.7714,237.4725 L366.7143,237.1063 L376.6571,238.5296 L386.6,238.4744 L396.5429,237.2265 L406.4857,238.8493 L416.4286,237.2025 L426.3714,238.2309 L436.3143,238.024 L446.2571,238.542 L456.2,238.4915 L466.1429,238.6582 L476.0857,237.7197 L486.0286,238.9136 L495.9714,238.0398 L505.9143,238.7133 L515.8571,238.0203 L525.8,237.7461 L535.7429,238.9478 L545.6857,238.1022 L555.6286,237.4986 L565.5714,238.576 L575.5143,237.8258 L585.4571,238.7637 L595.4,237.3701 L605.3429,237.9006 L615.2857,238.0769 L625.2286,237.3427 L635.1714,237.7835 L645.1143,238.2836 L655.0571,237.9742 L665,238 " fill="#B7BFC9" style="stroke: #000000; stroke-width: 1.5;"/><path d="M665,238 L664.7612,238 L664.2369,248.037 L664.7833,258.0741 L665.1745,268.1111 L665.9859,278.1481 L665.5244,288.1852 L665.5952,298.2222 L664.3204,308.2593 L664.5349,318.2963 L664.3501,328.3333 L664.7049,338.3704 L664.3378,348.4074 L664.1313,358.4444 L665.418,368.4815 L664.6868,378.5185 L664.923,388.5556 L664.2296,398.5926 L665.4122,408.6296 L665.5668,418.6667 L665.5383,428.7037 L664.8818,438.7407 L664.8271,448.7778 L664.8812,458.8148 L665.0011,468.8519 L665.6004,478.8889 L665.0913,488.9259 L664.7194,498.963 L665,509 " fill="#B7BFC9" style="stroke: #000000; stroke-width: 1.5;"/><text fill="#000000" font-family="sans-serif" font-size="14" font-weight="bold" lengthAdjust="spacingAndGlyphs" textLength="60" x="462" y="255.5332">Instance</text><!--cluster BerliozAgent1--><polygon fill="#F77F00" filter="url(#fmhzprzei52wr)" points="375,285,375,285.3391,385.1875,284.623,395.375,285.6339,405.5625,285.4729,415.75,285.093,425.9375,285.0283,436.125,285.4454,446.3125,285.6009,456.5,284.9355,466.6875,285.1837,476.875,285.1868,487.0625,285.6611,497.25,285.2032,507.4375,284.3487,517.625,284.4806,527.8125,285.1779,538,285,537.522,285,537.6255,295.2222,538.4361,305.4444,537.4392,315.6667,538.6588,325.8889,537.3064,336.1111,537.6311,346.3333,538.4337,356.5556,538.1076,366.7778,538,377,538,376.3689,527.8125,377.0784,517.625,376.9648,507.4375,377.3686,497.25,376.7879,487.0625,376.7164,476.875,377.2684,466.6875,377.0283,456.5,376.9249,446.3125,376.9016,436.125,376.9074,425.9375,377.1026,415.75,376.6724,405.5625,376.2764,395.375,376.738,385.1875,377.6631,375,377,375.2848,377,374.7282,366.7778,374.8433,356.5556,375.0256,346.3333,375.4001,336.1111,374.9587,325.8889,375.0054,315.6667,374.7448,305.4444,375.6619,295.2222,375,285" style="stroke: #000000; stroke-width: 1.5;"/><text fill="#000000" font-family="sans-serif" font-size="14" font-weight="bold" lengthAdjust="spacingAndGlyphs" textLength="94" x="409.5" y="301.5332">Berlioz Agent</text><!--cluster ServiceA2--><polygon fill="#57A773" filter="url(#fmhzprzei52wr)" points="341,409,341,408.9325,350.6667,409.0482,360.3333,408.8233,370,409.5865,379.6667,409.1799,389.3333,409.7115,399,408.9165,408.6667,409.3779,418.3333,409.5888,428,409,428.6361,409,428.3827,418.5,428.2846,428,427.9305,437.5,428.5247,447,427.8084,456.5,428.309,466,427.9312,475.5,428,485,428,485.1156,418.3333,484.6152,408.6667,485.125,399,485.7169,389.3333,485.2532,379.6667,485.5357,370,484.4333,360.3333,484.4327,350.6667,485.5611,341,485,341.1359,485,340.6866,475.5,341.26,466,341.0315,456.5,341.143,447,341.1443,437.5,340.9342,428,341.2222,418.5,341,409" style="stroke: #000000; stroke-width: 1.5;"/><text fill="#000000" font-family="sans-serif" font-size="14" font-weight="bold" lengthAdjust="spacingAndGlyphs" textLength="71" x="349" y="425.5332">ServiceA2</text><!--cluster ServiceA3--><polygon fill="#57A773" filter="url(#fmhzprzei52wr)" points="452,409,452,408.6359,461.6667,409.5768,471.3333,409.6944,481,408.7139,490.6667,409.6455,500.3333,409.6235,510,408.8813,519.6667,409.5173,529.3333,409.4112,539,409,538.8247,409,539.6373,418.5,539.7359,428,538.4426,437.5,539.1867,447,539.3491,456.5,538.9837,466,539.6357,475.5,539,485,539,484.3154,529.3333,484.6216,519.6667,484.8284,510,484.5039,500.3333,484.6447,490.6667,485.1627,481,484.883,471.3333,485.0917,461.6667,484.6198,452,485,451.5117,485,452.5938,475.5,452.3532,466,451.3459,456.5,452.0448,447,451.282,437.5,452.1951,428,452.197,418.5,452,409" style="stroke: #000000; stroke-width: 1.5;"/><text fill="#000000" font-family="sans-serif" font-size="14" font-weight="bold" lengthAdjust="spacingAndGlyphs" textLength="71" x="460" y="425.5332">ServiceA3</text><!--cluster ServiceB2--><polygon fill="#57A773" filter="url(#fmhzprzei52wr)" points="563,409,563,409.6468,572.7778,408.5789,582.5556,409.501,592.3333,409.1907,602.1111,408.8471,611.8889,409.5576,621.6667,409.2792,631.4444,409.5743,641.2222,409.5803,651,409,651.6052,409,650.6007,418.5,651.5336,428,650.5461,437.5,650.3982,447,651.7233,456.5,650.7326,466,650.91,475.5,651,485,651,484.7401,641.2222,485.2292,631.4444,484.5151,621.6667,484.312,611.8889,485.4974,602.1111,485.6411,592.3333,484.5507,582.5556,484.8176,572.7778,484.9194,563,485,562.8166,485,563.4883,475.5,562.5806,466,562.2642,456.5,562.9654,447,562.7871,437.5,562.5619,428,562.8564,418.5,563,409" style="stroke: #000000; stroke-width: 1.5;"/><text fill="#000000" font-family="sans-serif" font-size="14" font-weight="bold" lengthAdjust="spacingAndGlyphs" textLength="72" x="571" y="425.5332">ServiceB2</text><!--cluster AWS-Berlioz--><path d="M140,31 C140,28 142,26 145,26 C148,26 150,28 150,31 C150,28 152,26 155,26 C158,26 160,28 160,31 C160,28 162,26 165,26 C168,26 170,28 170,31 C170,28 172,26 175,26 C178,26 180,28 180,31 C180,28 182,26 185,26 C188,26 190,28 190,31 C190,28 192,26 195,26 C198,26 200,28 200,31 C200,28 202,26 205,26 C208,26 210,28 210,31 C210,28 212,26 215,26 C218,26 220,28 220,31 C220,28 222,26 225,26 C228,26 230,28 230,31 C230,28 232,26 235,26 C238,26 240,28 240,31 C240,28 242,26 245,26 C248,26 250,28 250,31 C250,28 252,26 255,26 C258,26 260,28 260,31 C260,28 262,26 265,26 C268,26 270,28 270,31 C273,31 275,33 275,36 C275,39 273,41 270,41 C273,41 275,43 275,46 C275,49 273,51 270,51 C273,51 275,53 275,56 C275,59 273,61 270,61 C273,61 275,63 275,66 C275,69 273,71 270,71 C273,71 275,73 275,76 C275,79 273,81 270,81 C273,81 275,83 275,86 C275,89 273,91 270,91 C273,91 275,93 275,96 C275,99 273,101 270,101 C273,101 275,103 275,106 C275,109 273,111 270,111 C270,114 267,116 265,116 C262,116 260,114 260,111 C260,114 257,116 255,116 C252,116 250,114 250,111 C250,114 247,116 245,116 C242,116 240,114 240,111 C240,114 237,116 235,116 C232,116 230,114 230,111 C230,114 227,116 225,116 C222,116 220,114 220,111 C220,114 217,116 215,116 C212,116 210,114 210,111 C210,114 207,116 205,116 C202,116 200,114 200,111 C200,114 197,116 195,116 C192,116 190,114 190,111 C190,114 187,116 185,116 C182,116 180,114 180,111 C180,114 177,116 175,116 C172,116 170,114 170,111 C170,114 167,116 165,116 C162,116 160,114 160,111 C160,114 157,116 155,116 C152,116 150,114 150,111 C150,114 147,116 145,116 C142,116 140,114 140,111 C137,111 135,109 135,106 C135,103 137,101 140,101 C137,101 135,99 135,96 C135,93 137,91 140,91 C137,91 135,89 135,86 C135,83 137,81 140,81 C137,81 135,79 135,76 C135,73 137,71 140,71 C137,71 135,69 135,66 C135,63 137,61 140,61 C137,61 135,59 135,56 C135,53 137,51 140,51 C137,51 135,49 135,46 C135,43 137,41 140,41 C137,41 135,39 135,36 C135,33 137,31 140,31 " fill="#08B2E3" filter="url(#fmhzprzei52wr)" style="stroke: #000000; stroke-width: 1.5;"/><text fill="#000000" font-family="sans-serif" font-size="14" font-weight="bold" lengthAdjust="spacingAndGlyphs" textLength="85" x="162.5" y="51.5332">AWS-Berlioz</text><!--entity BerliozAgent2WS--><polygon fill="#EE6352" filter="url(#fmhzprzei52wr)" points="141,329,141,329.3766,150.6,329.3316,160.2,329.1851,169.8,328.9956,179.4,329.3919,189,329.2024,198.6,329.2957,208.2,329.4961,217.8,329.3112,227.4,328.5637,237,329,237.0768,329,236.8613,333.7219,236.7569,338.4438,236.8508,343.1656,237.0661,347.8875,237,352.6094,237,352.5097,227.4,352.3015,217.8,352.9109,208.2,352.6251,198.6,353.0665,189,352.7682,179.4,352.9124,169.8,352.6553,160.2,352.1827,150.6,353.1524,141,352.6094,141.2427,352.6094,140.9789,347.8875,141.191,343.1656,141.1231,338.4438,141.1824,333.7219,141,329" style="stroke: #000000; stroke-width: 1.5;"/><text fill="#000000" font-family="sans-serif" font-size="14" lengthAdjust="spacingAndGlyphs" textLength="76" x="151" y="346.5332">Web Socket</text><!--entity ServiceA1Connector--><polygon fill="#FCBF49" filter="url(#fmhzprzei52wr)" points="93,445,93,445.4611,102.6,444.8624,112.2,444.7731,121.8,445.3596,131.4,444.925,141,445,140.8054,445,140.8278,449.7219,141.2425,454.4438,141.0706,459.1656,141.2309,463.8875,141,468.6094,141,469.1468,131.4,468.6385,121.8,468.216,112.2,468.6775,102.6,469.0191,93,468.6094,92.9636,468.6094,93.0183,463.8875,92.8411,459.1656,92.975,454.4438,92.8759,449.7219,93,445" style="stroke: #000000; stroke-width: 1.5;"/><text fill="#000000" font-family="sans-serif" font-size="14" lengthAdjust="spacingAndGlyphs" textLength="28" x="103" y="462.5332">SDK</text><!--entity ServiceB1Connector--><polygon fill="#FCBF49" filter="url(#fmhzprzei52wr)" points="197,445,197,445.4843,206.6,445.5494,216.2,444.7068,225.8,444.3322,235.4,444.7419,245,445,245.1769,445,245.1667,449.7219,244.7563,454.4438,245.1923,459.1656,245.0851,463.8875,245,468.6094,245,468.1143,235.4,468.2123,225.8,468.0399,216.2,469.2669,206.6,468.4535,197,468.6094,197.0555,468.6094,197.0243,463.8875,197.1441,459.1656,196.8301,454.4438,197.1625,449.7219,197,445" style="stroke: #000000; stroke-width: 1.5;"/><text fill="#000000" font-family="sans-serif" font-size="14" lengthAdjust="spacingAndGlyphs" textLength="28" x="207" y="462.5332">SDK</text><!--entity BerliozAgent1WS--><polygon fill="#EE6352" filter="url(#fmhzprzei52wr)" points="418,329,418,328.8748,427.6,329.2858,437.2,329.3797,446.8,328.6442,456.4,329.1777,466,328.7679,475.6,329.54,485.2,328.68,494.8,328.8827,504.4,329.4175,514,329,514.1235,329,513.9382,333.7219,513.8211,338.4438,513.7635,343.1656,514.0735,347.8875,514,352.6094,514,353.1182,504.4,352.2742,494.8,352.9839,485.2,352.7365,475.6,352.2073,466,353.2605,456.4,353.0117,446.8,353.097,437.2,352.3039,427.6,352.9251,418,352.6094,418.2172,352.6094,418.0221,347.8875,417.7888,343.1656,417.9616,338.4438,418.1644,333.7219,418,329" style="stroke: #000000; stroke-width: 1.5;"/><text fill="#000000" font-family="sans-serif" font-size="14" lengthAdjust="spacingAndGlyphs" textLength="76" x="428" y="346.5332">Web Socket</text><!--entity ServiceA2Connector--><polygon fill="#FCBF49" filter="url(#fmhzprzei52wr)" points="364,445,364,444.5499,373.6,445.7381,383.2,444.7983,392.8,445.1818,402.4,444.9016,412,445,412.2115,445,412.2247,449.7219,412.2348,454.4438,411.8283,459.1656,412.2241,463.8875,412,468.6094,412,469.0337,402.4,468.0105,392.8,468.9727,383.2,467.9454,373.6,468.4268,364,468.6094,363.8481,468.6094,363.7734,463.8875,363.8425,459.1656,364.1505,454.4438,364.2063,449.7219,364,445" style="stroke: #000000; stroke-width: 1.5;"/><text fill="#000000" font-family="sans-serif" font-size="14" lengthAdjust="spacingAndGlyphs" textLength="28" x="374" y="462.5332">SDK</text><!--entity ServiceA3Connector--><polygon fill="#FCBF49" filter="url(#fmhzprzei52wr)" points="468,445,468,444.4749,477.6,444.3481,487.2,445.2338,496.8,444.6744,506.4,444.9182,516,445,516.1642,445,516.18,449.7219,515.944,454.4438,516.1783,459.1656,516.1875,463.8875,516,468.6094,516,468.8714,506.4,467.9241,496.8,468.7333,487.2,468.4809,477.6,468.5483,468,468.6094,467.913,468.6094,468.194,463.8875,467.804,459.1656,468.0356,454.4438,467.7803,449.7219,468,445" style="stroke: #000000; stroke-width: 1.5;"/><text fill="#000000" font-family="sans-serif" font-size="14" lengthAdjust="spacingAndGlyphs" textLength="28" x="478" y="462.5332">SDK</text><!--entity ServiceB2Connector--><polygon fill="#FCBF49" filter="url(#fmhzprzei52wr)" points="579,445,579,444.2703,588.6,445.0664,598.2,445.3946,607.8,444.8444,617.4,444.7393,627,445,627.1329,445,626.9135,449.7219,626.923,454.4438,626.9156,459.1656,627.1468,463.8875,627,468.6094,627,468.0126,617.4,468.766,607.8,468.0788,598.2,467.8939,588.6,468.301,579,468.6094,578.8178,468.6094,578.9915,463.8875,579.0125,459.1656,579.1828,454.4438,579.206,449.7219,579,445" style="stroke: #000000; stroke-width: 1.5;"/><text fill="#000000" font-family="sans-serif" font-size="14" lengthAdjust="spacingAndGlyphs" textLength="28" x="589" y="462.5332">SDK</text><!--entity SQS1--><polygon fill="#D3C4D1" filter="url(#fmhzprzei52wr)" points="335.5,174,335.5,173.7948,338.5,174.0806,341.5,173.7581,344.5,174.1461,347.5,174.2492,350.5,174,350.4467,173.7606,355.3988,174.8724,360.4377,176.3747,365.3776,177.4319,370.2898,178.365,375.2487,179.5078,375.2343,179.4966,377.311,182.1764,379.2252,184.7309,381.2044,187.3355,383.3801,190.0916,385.5,192.8047,385.5887,192.873,383.5996,195.5796,381.3068,198.052,379.373,200.8012,377.2686,203.4188,375.2487,206.1016,375.2069,205.9135,370.3219,207.3061,365.3781,208.4344,360.4235,209.514,355.4353,210.4431,350.5,211.6094,350.5,211.5817,347.5,211.6671,344.5,211.815,341.5,211.8189,338.5,211.7111,335.5,211.6094,335.4549,211.4066,330.5025,210.2933,325.6247,209.5148,320.6719,208.3997,315.6508,206.9775,310.7513,206.1016,310.8601,206.1855,308.807,203.524,306.5843,200.7316,304.5045,198.0495,302.7388,195.6094,300.5,192.8047,300.6302,192.905,302.3721,190.0079,304.5797,187.4699,306.5667,184.7617,308.7105,182.1745,310.7513,179.5078,310.768,179.5829,315.6649,178.2438,320.6126,177.1334,325.5649,176.0433,330.5142,174.9394,335.5,174" style="stroke: #000000; stroke-width: 1.5;"/><text fill="#000000" font-family="sans-serif" font-size="14" lengthAdjust="spacingAndGlyphs" textLength="65" x="310.5" y="198.5332">AWS-SQS</text><!--entity SQS2--><polygon fill="#D3C4D1" filter="url(#fmhzprzei52wr)" points="137.5,174,137.5,173.782,140.5,173.7564,143.5,174.2121,146.5,174.1747,149.5,173.8104,152.5,174,152.546,174.2069,157.4091,174.9189,162.4528,176.4424,167.4017,177.5404,172.2947,178.3867,177.2487,179.5078,177.3781,179.6075,179.4033,182.2476,181.4402,184.8967,183.3585,187.4543,185.5436,190.2177,187.5,192.8047,187.4063,192.7325,185.5368,195.5312,183.4255,198.1435,181.4846,200.8872,179.4854,203.586,177.2487,206.1016,177.2376,206.0515,172.2681,207.0645,167.3182,208.1653,162.3656,209.2539,157.4104,210.3309,152.5,211.6094,152.5,211.7154,149.5,211.5599,146.5,211.6195,143.5,211.5617,140.5,211.7036,137.5,211.6094,137.4492,211.3811,132.5211,210.3768,127.6147,209.4701,122.6781,208.4275,117.6545,206.9943,112.7513,206.1016,112.6564,206.0285,110.6407,203.3958,108.6601,200.79,106.5396,198.0765,104.7017,195.5808,102.5,192.8047,102.3763,192.7093,104.4505,190.0684,106.6722,187.5412,108.6107,184.7957,110.6682,182.1419,112.7513,179.5078,112.731,179.4165,117.6629,178.2351,122.6902,177.4821,127.6223,176.3009,132.5941,175.2985,137.5,174" style="stroke: #000000; stroke-width: 1.5;"/><text fill="#000000" font-family="sans-serif" font-size="14" lengthAdjust="spacingAndGlyphs" textLength="65" x="112.5" y="198.5332">AWS-SQS</text><!--entity BerliozRobot--><polygon fill="#EE6352" filter="url(#fmhzprzei52wr)" points="153,60,153,60.076,163.4,60.2935,173.8,60.4029,184.2,60.1235,194.6,59.7825,205,59.3918,215.4,60.2154,225.8,60.5705,236.2,60.6128,246.6,59.9206,257,60,257.2397,60,256.7517,67.5219,257.1178,75.0438,256.9608,82.5656,257.248,90.0875,257,97.6094,257,97.5942,246.6,97.2801,236.2,97.0957,225.8,97.3657,215.4,97.0231,205,97.4708,194.6,98.2036,184.2,96.8925,173.8,97.5453,163.4,97.4931,153,97.6094,153.028,97.6094,152.9802,90.0875,153.0508,82.5656,152.8946,75.0438,152.8139,67.5219,153,60" style="stroke: #000000; stroke-width: 1.5;"/><text fill="#000000" font-family="sans-serif" font-size="14" lengthAdjust="spacingAndGlyphs" textLength="84" x="163" y="84.5332">Berlioz Robot</text><!--link BerliozAgent2WS to ServiceA1Connector--><path d="M181.833,353.348 L181.4719,353.1199 L176.7287,362.2903 L170.1747,370.3169 L165.1112,379.285 L159.8383,388.1208 L153.6734,396.3932 L149.2478,405.7641 L144.213,414.7503 L137.0847,422.4142 L132.4694,431.6653 L126.905,440.317 " fill="none" style="stroke: #2B04F0; stroke-width: 1.0; stroke-dasharray: 7.0,7.0;"/><polygon fill="#2B04F0" points="124.138,444.698,124.2181,444.8178,125.8907,443.7756,127.5068,442.6488,129.1467,441.5575,130.5971,440.1828,132.3261,439.2249,132.3491,439.3269,131.2479,439.5865,130.0866,439.58,128.9664,439.7557,127.9324,440.3131,126.8081,440.4707,126.7102,440.4486,126.7697,439.4146,126.4252,438.2895,125.8661,437.116,125.8648,436.0683,125.5624,434.9527,125.7286,434.977,125.1618,436.8848,124.8169,438.8251,124.9141,440.83,124.5572,442.7686,124.138,444.698" style="stroke: #2B04F0; stroke-width: 1.0;"/><!--link BerliozAgent2WS to ServiceB1Connector--><path d="M192.185,353.348 L192.8202,353.5263 L194.888,362.9486 L197.0368,372.3936 L201.1835,382.3994 L203.6003,391.9197 L205.7098,401.3536 L209.2035,411.1762 L210.0949,420.2682 L213.3115,430.013 L216.433,439.731 " fill="none" style="stroke: #2B04F0; stroke-width: 1.0; stroke-dasharray: 7.0,7.0;"/><polygon fill="#2B04F0" points="217.828,444.698,217.9109,444.7101,218.1041,442.7477,218.5665,440.8244,218.4912,438.8229,219.0255,436.9102,219.2468,434.9519,219.3976,435.0366,218.583,435.8767,218.2444,436.9841,217.64,437.9423,217.1958,438.9903,216.4767,439.8841,216.5183,439.9583,215.5665,439.4659,214.4928,438.7565,213.424,438.0559,212.4175,437.4661,211.5445,437.114,211.4096,437.0023,212.7444,438.5837,214.05,440.1411,215.2377,441.6007,216.4808,443.1063,217.828,444.698" style="stroke: #2B04F0; stroke-width: 1.0;"/><!--link BerliozAgent1WS to ServiceA2Connector--><path d="M458.236,353.348 L458.2324,353.3455 L452.636,361.124 L446.7885,368.7307 L442.1213,377.145 L436.9056,385.1839 L430.6889,392.538 L425.1194,400.3349 L419.8735,408.3532 L415.6374,417.0624 L408.7986,423.9908 L404.7575,432.8335 L398.73,440.317 " fill="none" style="stroke: #2B04F0; stroke-width: 1.0; stroke-dasharray: 7.0,7.0;"/><polygon fill="#2B04F0" points="395.733,444.698,395.79,444.7905,397.5027,443.8151,399.0435,442.5609,400.8449,441.7294,402.5073,440.6723,404.1164,439.529,404.1483,439.6994,403.0016,439.7224,401.8902,439.9344,400.7366,439.9206,399.6751,440.3985,398.5564,440.5715,398.4816,440.5574,398.5217,439.4921,398.2593,438.37,398.0746,437.2624,397.7064,436.1205,397.5139,435.0115,397.3383,434.9792,397.3774,436.9892,396.8173,438.889,396.395,440.8141,395.9829,442.7412,395.733,444.698" style="stroke: #2B04F0; stroke-width: 1.0;"/><!--link BerliozAgent1WS to ServiceA3Connector--><path d="M468.588,353.348 L468.8238,353.4018 L470.9352,362.9822 L473.0569,372.5649 L475.2502,382.164 L478.2409,391.9449 L480.0986,401.4674 L480.9881,410.7691 L483.6814,420.4822 L486.1869,430.1525 L488.29,439.731 " fill="none" style="stroke: #2B04F0; stroke-width: 1.0; stroke-dasharray: 7.0,7.0;"/><polygon fill="#2B04F0" points="489.422,444.698,489.4107,444.6958,489.6512,442.7356,490.0587,440.8083,490.516,438.8907,490.8581,436.9504,491.319,435.0336,491.401,435.0851,490.7436,436.0082,490.1218,436.9537,489.5064,437.9032,488.778,438.7816,488.3094,439.8234,488.3667,439.9145,487.2628,439.0803,486.4896,438.7724,485.3155,437.8266,484.3701,437.2447,483.5196,436.8137,483.5015,436.8002,484.8137,438.4756,485.9446,440.0154,486.972,441.4776,488.3428,443.197,489.422,444.698" style="stroke: #2B04F0; stroke-width: 1.0;"/><!--link BerliozAgent1WS to ServiceB2Connector--><path d="M479.386,353.138 L479.4366,353.1988 L487.5547,360.1429 L495.0338,366.3192 L502.5212,372.5055 L510.3938,379.1546 L517.3791,384.7373 L524.5651,390.5614 L532.4921,397.2758 L539.9615,403.4405 L547.3809,409.5449 L556.03,417.1273 L563.1573,422.8807 L570.4976,428.8901 L577.6616,434.6877 L585.883,441.756 " fill="none" style="stroke: #2B04F0; stroke-width: 1.0; stroke-dasharray: 7.0,7.0;"/><polygon fill="#2B04F0" points="589.762,444.984,589.6393,444.9235,588.7254,443.1362,588.1567,441.5193,587.3377,439.7789,586.1827,437.8727,585.4036,436.152,585.2078,436.1341,585.7182,437.298,585.6877,438.4125,585.7215,439.5328,585.5927,440.6382,585.919,441.7853,585.9205,441.8014,584.8054,442.0306,583.6437,441.7511,582.5311,442.0077,581.3913,441.9674,580.2857,442.3008,580.2535,442.187,582.1341,442.6719,584.0234,443.1875,585.908,443.6865,587.9102,444.6008,589.762,444.984" style="stroke: #2B04F0; stroke-width: 1.0;"/><!--link SQS1 to BerliozAgent1--><path d="M347.985,212.196 L347.9605,212.1893 L349.81,221.634 L353.2352,231.5104 L356.1981,241.2601 L358.5045,250.83 L360.66,260.3585 L364.1759,270.2598 L366.2515,279.7664 L369.1649,289.5026 L369.2141,289.5161 L370.2854,293.3225 L371.2682,297.1045 L372.5214,300.9607 L373.4397,304.7252 L374.3675,308.4922 L374.3875,308.4976 L374.4965,308.9305 L374.8381,309.4272 L374.4049,309.7115 L375.0553,310.2927 L374.9644,310.6708 " fill="none" style="stroke: #2B04F0; stroke-width: 1.0; stroke-dasharray: 7.0,7.0;"/><polygon fill="#2B04F0" points="374.9644,310.6708,375.0242,310.6799,375.3366,308.735,375.8018,306.8133,375.7026,304.8058,376.3456,302.9112,376.4441,300.9338,376.6152,301.0313,375.7443,301.8371,375.3853,302.9347,374.6369,303.8104,374.1839,304.8545,373.6432,305.8485,373.5974,305.7682,372.7418,305.4314,371.7824,304.9126,370.8101,304.3711,369.7904,303.7465,368.7284,303.0476,368.7755,303.0862,370.0824,304.6596,371.3315,306.1858,372.533,307.6731,373.7236,309.1515,374.9644,310.6708" style="stroke: #2B04F0; stroke-width: 1.0;"/><!--link SQS2 to BerliozAgent2--><path d="M129.37,212.036 L129.5915,212.1576 L128.4639,213.6112 L127.4571,215.1311 L126.836,216.8627 L125.6716,218.2962 L125,220 L124.7021,219.8831 L124.1196,221.817 L123.4321,223.7097 L122.8535,225.6451 L122.2067,227.5538 L121.3235,229.3696 L121.6141,229.4646 L121.0007,231.4146 L120.0048,233.2395 L119.562,235.2453 L118.9562,237.1977 L118.1486,239.0842 L118.093,239.0691 L117.8363,241.1333 L117.1497,243.0803 L116.5219,245.0433 L115.9598,247.0242 L115.4389,249.0164 L115.2893,248.9823 L114.7431,250.9663 L114.8474,253.0983 L113.7868,254.9651 L113.6873,257.0508 L113.1581,259.0386 L113.0654,259.021 L113.0071,261.0784 L112.2733,263.0081 L111.9912,265.0231 L111.5653,267.011 L111.2697,269.0235 L111.1114,268.9988 L111.0864,271.0067 L110.6811,272.9553 L110.5449,274.9459 L109.9096,276.8586 L109.7374,278.8436 L110.0545,278.8861 L109.7772,279.8279 L109.6129,280.7848 L109.1639,281.7036 L109.1303,282.6781 L109.0934,283.6521 L108.9011,283.6279 L109.3352,283.9239 L109.3252,284.1641 L108.7574,284.3345 L109.0838,284.6169 L108.9444,284.8409 " fill="none" style="stroke: #2B04F0; stroke-width: 1.0; stroke-dasharray: 7.0,7.0;"/><polygon fill="#2B04F0" points="108.9444,284.8409,108.9956,284.8717,110.0295,283.1949,110.8488,281.3891,112.1745,279.8878,112.9271,278.0419,114.019,276.4,113.9928,276.3664,113.0554,277.0041,112.2459,277.8058,111.4241,278.5918,110.5319,279.2875,109.5582,279.8787,109.4285,279.7776,109.0521,279.1344,108.2003,278.1205,107.3133,277.0793,106.9662,276.459,106.0795,275.4179,105.8522,275.3488,106.8785,277.3712,107.3357,279.2206,107.8696,281.0933,108.5119,282.999,108.9444,284.8409" style="stroke: #2B04F0; stroke-width: 1.0;"/><!--link BerliozRobot to SQS1--><path d="M227.479,98.244 L227.6218,98.42 L235.8761,105.187 L244.0554,111.8616 L251.2909,117.3733 L260.2169,124.968 L268.3235,131.5531 L275.5972,137.1118 L284.0019,144.0642 L291.9627,150.4697 L299.9353,156.8895 L308.9092,164.5433 L316.501,170.494 " fill="none" style="stroke: #2B04F0; stroke-width: 1.0; stroke-dasharray: 7.0,7.0;"/><polygon fill="#2B04F0" points="320.53,173.764,320.3084,173.6512,319.6142,171.9971,318.5802,170.1701,318.0448,168.5969,316.7736,166.6491,316.0627,164.9866,315.9281,164.9726,316.327,166.1272,316.1896,167.226,316.3822,168.3592,316.29,169.4627,316.6478,170.6131,316.6694,170.8216,315.512,170.6292,314.3784,170.6669,313.2557,170.8089,312.1457,171.0733,311.0213,171.1981,310.9958,171.1036,312.9463,171.7975,314.7903,172.097,316.7687,172.8942,318.6826,173.4523,320.53,173.764" style="stroke: #2B04F0; stroke-width: 1.0;"/><!--link BerliozRobot to SQS2--><path d="M195.092,98.495 L194.3082,98.0751 L190.6177,107.4874 L186.1006,116.4569 L180.7943,125.0036 L176.9641,134.3411 L171.0606,142.5679 L166.8376,151.695 L161.949,160.4655 L157.165,169.292 " fill="none" style="stroke: #2B04F0; stroke-width: 1.0; stroke-dasharray: 7.0,7.0;"/><polygon fill="#2B04F0" points="154.723,173.85,154.7872,173.9326,156.3006,172.67,157.7378,171.3093,159.4811,170.3424,161.0951,169.2092,162.4994,167.8062,162.5173,167.8654,161.4145,168.127,160.3656,168.5672,159.2195,168.6857,158.1272,168.9823,157.0845,169.4428,157.136,169.4584,156.8336,168.3829,156.2075,167.2096,155.9047,166.134,155.82,165.1244,155.4479,164.0279,155.5572,164.0359,155.5052,166.0072,155.2737,167.9653,155.1996,169.9349,154.7325,171.8756,154.723,173.85" style="stroke: #2B04F0; stroke-width: 1.0;"/><!--
@startuml

skinparam handwritten true

cloud "AWS-Client" #08B2E3 {

    node "Instance" as Instance2 #B7BFC9 {

        rectangle "Berlioz Agent" as BerliozAgent2 #F77F00 {
            card "Web Socket" as BerliozAgent2WS #EE6352  {

            }
        }

        rectangle ServiceA1 #57A773 {
            card "SDK" as ServiceA1Connector #FCBF49  {

            }
        }

        rectangle ServiceB1 #57A773 {
            card "SDK" as ServiceB1Connector #FCBF49  {

            }
        }

        BerliozAgent2WS ..> ServiceA1Connector #2b04f0
        BerliozAgent2WS ..> ServiceB1Connector #2b04f0
    }

    node "Instance" as Instance1 #B7BFC9 {

        rectangle "Berlioz Agent" as BerliozAgent1 #F77F00 {
            card "Web Socket" as BerliozAgent1WS #EE6352  {

            }
        }

        rectangle ServiceA2 #57A773 {
            card "SDK" as ServiceA2Connector #FCBF49  {

            }
        }

        rectangle ServiceA3 #57A773 {
            card "SDK" as ServiceA3Connector #FCBF49  {

            }

        }

        rectangle ServiceB2 #57A773 {
            card "SDK" as ServiceB2Connector #FCBF49  {

            }
        }

        BerliozAgent1WS ..> ServiceA2Connector #2b04f0
        BerliozAgent1WS ..> ServiceA3Connector #2b04f0
        BerliozAgent1WS ..> ServiceB2Connector #2b04f0
    }


    storage "AWS-SQS" as SQS1 #D3C4D1 {
    }
    SQS1 ..> BerliozAgent1 #2b04f0

    storage "AWS-SQS" as SQS2 #D3C4D1 {
    }
    SQS2 ..> BerliozAgent2 #2b04f0

}

cloud "AWS-Berlioz" #08B2E3 {
    rectangle "Berlioz Robot" as BerliozRobot #EE6352 {

    }
}

BerliozRobot ..> SQS1 #2b04f0
BerliozRobot ..> SQS2 #2b04f0


@enduml

PlantUML version 1.2018.03(Thu Apr 05 09:59:15 PDT 2018)
(GPL source distribution)
Java Runtime: Java(TM) SE Runtime Environment
JVM: Java HotSpot(TM) Client VM
Java Version: 1.8.0_101-b13
Operating System: Windows 10
OS Version: 10.0
Default Encoding: Cp1252
Language: en
Country: US
--></g></svg>