<?xml version="1.0" encoding="UTF-8" standalone="no"?>
<svg
   xmlns:dc="http://purl.org/dc/elements/1.1/"
   xmlns:cc="http://creativecommons.org/ns#"
   xmlns:rdf="http://www.w3.org/1999/02/22-rdf-syntax-ns#"
   xmlns:svg="http://www.w3.org/2000/svg"
   xmlns="http://www.w3.org/2000/svg"
   xmlns:sodipodi="http://sodipodi.sourceforge.net/DTD/sodipodi-0.dtd"
   xmlns:inkscape="http://www.inkscape.org/namespaces/inkscape"
   width="16px"
   height="16px"
   viewBox="0 0 16 16"
   version="1.1"
   id="svg10"
   sodipodi:docname="cloud-governance.svg"
   inkscape:version="0.92.3 (2405546, 2018-03-11)">
  <metadata
     id="metadata14">
    <rdf:RDF>
      <cc:Work
         rdf:about="">
        <dc:format>image/svg+xml</dc:format>
        <dc:type
           rdf:resource="http://purl.org/dc/dcmitype/StillImage" />
      </cc:Work>
    </rdf:RDF>
  </metadata>
  <sodipodi:namedview
     pagecolor="#ffffff"
     bordercolor="#666666"
     borderopacity="1"
     objecttolerance="10"
     gridtolerance="10"
     guidetolerance="10"
     inkscape:pageopacity="0"
     inkscape:pageshadow="2"
     inkscape:window-width="2560"
     inkscape:window-height="1346"
     id="namedview12"
     showgrid="false"
     inkscape:zoom="14.75"
     inkscape:cx="8"
     inkscape:cy="8"
     inkscape:window-x="2549"
     inkscape:window-y="-11"
     inkscape:window-maximized="1"
     inkscape:current-layer="svg10" />
  <!-- Generator: Sketch 49.3 (51167) - http://www.bohemiancoding.com/sketch -->
  <title
     id="title2">Cloud Governance</title>
  <desc
     id="desc4">Created with Sketch.</desc>
  <defs
     id="defs6" />
  <g
     id="cloudGov-16px"
     transform="matrix(1.1408396,0,0,1,-1.1943168,0.0234375)"
     style="fill:none;fill-rule:evenodd;stroke:none;stroke-width:1">
    <path
       d="M 4.0976113,7.1570722 H 14.380202 L 9.2389066,4.2925577 Z M 5.125,8.6779349 v -0.085012 c 0,-0.021344 0.00285,-0.042022 0.0082,-0.061673 H 4.546875 C 4.4174333,8.53125 4.3125,8.4263167 4.3125,8.296875 4.3125,8.1674333 4.4174333,8.0625 4.546875,8.0625 h 9.406302 c 0.129442,0 0.234375,0.1049333 0.234375,0.234375 0,0.1294417 -0.104933,0.234375 -0.234375,0.234375 h -0.586376 c 0.0053,0.019651 0.0082,0.040329 0.0082,0.061673 v 4.938327 h 0.578177 c 0.129442,0 0.234375,0.104933 0.234375,0.234375 C 14.187552,13.895067 14.082619,14 13.953177,14 H 4.546875 C 4.4174333,14 4.3125,13.895067 4.3125,13.765625 c 0,-0.129442 0.1049333,-0.234375 0.234375,-0.234375 H 5.125 V 9.1466859 c -0.4242657,-0.00102 -0.5266475,-0.00126 -1.3669286,-0.00328 -0.037438,6.5e-6 -0.037438,6.5e-6 -0.040372,7.5e-6 -1.4850127,0 -2.670824,-1.1599509 -2.670824,-2.6394052 0,-1.1912119 0.7715266,-2.2263352 1.8719103,-2.573609 0.103166,-0.8399713 0.8131154,-1.488891 1.6720919,-1.488891 0.2856833,0 0.560781,0.072102 0.8044439,0.2059175 C 5.9422032,1.6718142 6.9706466,1.046875 8.1117573,1.046875 c 1.6235116,0 2.9584477,1.2538677 3.1076347,2.8575703 0.08084,-0.00757 0.162313,-0.011381 0.244243,-0.011381 1.417641,0 2.570897,1.1387001 2.613283,2.5584344 l 0.794142,0.4424629 c 0.188459,0.1050015 0.256115,0.3428982 0.151113,0.5313573 -0.06896,0.1237759 -0.199544,0.200503 -0.341235,0.200503 H 3.796875 c -0.2157362,0 -0.390625,-0.1748888 -0.390625,-0.390625 0,-0.141691 0.076727,-0.2722725 0.200503,-0.3412353 L 9.0487846,3.8618897 c 0.1181944,-0.065853 0.2620496,-0.065853 0.380244,0 l 4.1513724,2.3129707 c -0.168587,-1.029036 -1.052563,-1.8130458 -2.116766,-1.8130458 -0.141976,0 -0.28205,0.013916 -0.418928,0.041303 L 10.76723,4.4586356 10.76433,4.1756738 C 10.74942,2.7022866 9.5658113,1.515625 8.1117573,1.515625 c -1.047121,0 -1.9833443,0.6204815 -2.4125933,1.568881 L 5.5753355,3.3580976 5.3400224,3.1715135 C 5.127592,3.0030736 4.8665012,2.9102579 4.5908772,2.9102579 c -0.6618152,0 -1.2026044,0.5361743 -1.2159737,1.2059508 l -0.00359,0.1800222 -0.174868,0.04292 C 2.217649,4.5793857 1.515625,5.4700936 1.515625,6.5040079 c 0,1.2182293 0.9736596,2.1706552 2.202074,2.1706552 0.028284,-6.46e-5 0.035127,-6.46e-5 0.042812,7e-7 z M 12.90625,13.53125 V 8.5929232 c 0,-0.021344 0.0029,-0.042022 0.0082,-0.061673 h -2.141398 c 0.0053,0.019651 0.0082,0.040329 0.0082,0.061673 V 13.53125 Z m -7.3125,0 h 2.125 V 8.5929232 c 0,-0.021344 0.00285,-0.042022 0.0082,-0.061673 H 5.585551 c 0.00535,0.019651 0.0082,0.040329 0.0082,0.061673 z m 2.59375,0 h 2.125 V 8.5929232 c 0,-0.021344 0.0029,-0.042022 0.0082,-0.061673 H 8.179301 c 0.00535,0.019651 0.0082,0.040329 0.0082,0.061673 z m -4.375,1.375 c -0.1294417,0 -0.234375,-0.104933 -0.234375,-0.234375 0,-0.129442 0.1049333,-0.234375 0.234375,-0.234375 h 10.90625 c 0.129442,0 0.234375,0.104933 0.234375,0.234375 0,0.129442 -0.104933,0.234375 -0.234375,0.234375 z"
       id="Combined-Shape"
       inkscape:connector-curvature="0"
       style="fill:#689bff;fill-rule:nonzero" />
  </g>
</svg>
