<?xml version="1.0" encoding="UTF-8"?>
<svg width="16px" height="16px" viewBox="0 0 16 16" version="1.1" xmlns="http://www.w3.org/2000/svg" xmlns:xlink="http://www.w3.org/1999/xlink">
    <!-- Generator: Sketch 49.2 (51160) - http://www.bohemiancoding.com/sketch -->
    <title>Deployment</title>
    <desc>Created with Sketch.</desc>
    <defs></defs>
    <g id="deploy-16px" stroke="none" stroke-width="1" fill="none" fill-rule="evenodd">
        <g id="Group-2" transform="translate(3.468750, 1.031250)" fill="#689BFF">
            <path d="M2.63903418,13.5539053 L3.05082759,12.5555746 L6.04292241,12.5555746 L6.45471582,13.5539053 L2.63903418,13.5539053 Z M4.5625,6.75 C4.01021525,6.75 3.5625,6.30228475 3.5625,5.75 C3.5625,5.19771525 4.01021525,4.75 4.5625,4.75 C5.11478475,4.75 5.5625,5.19771525 5.5625,5.75 C5.5625,6.30228475 5.11478475,6.75 4.5625,6.75 Z M2.50621346,12.6834896 C2.25811884,12.7650092 2.07551792,12.8486426 1.96052478,12.931829 C1.77016719,13.0695344 1.26420512,13.557184 0.463612478,14.3775356 L0.109008493,14.7408913 L0.0741012954,14.2343808 C-0.0256939695,12.7863314 0.0185824827,11.7780189 0.215087053,11.1925923 C0.406746342,10.6216008 0.919460622,9.92241718 1.75328906,9.08171364 C1.66373237,8.40595518 1.61640531,7.69004823 1.61640531,6.95508249 C1.61640531,5.28829054 2.12728925,3.64198135 2.97467616,2.10415429 C3.2757767,1.55772083 3.60141506,1.060491 3.918847,0.639952422 C4.03826647,0.481743727 4.15012389,0.343268427 4.24285398,0.236860228 C4.28267175,0.191169156 4.31754831,0.153066332 4.34503166,0.125142798 C4.45610163,0.0122938817 4.44413767,0.0226553125 4.546875,0.0226553125 C4.64961233,0.0226553125 4.63764837,0.0122938817 4.74871834,0.125142798 C4.77620169,0.153066332 4.81107825,0.191169156 4.85089602,0.236860228 C4.94362611,0.343268427 5.05548353,0.481743727 5.174903,0.639952422 C5.49233494,1.060491 5.8179733,1.55772083 6.11907384,2.10415429 C6.96646075,3.64198135 7.47734469,5.28829054 7.47734469,6.95508249 C7.47734469,7.68998219 7.4300305,8.40589588 7.3404667,9.08171944 C8.17429174,9.9224204 8.6870041,10.6216021 8.87866295,11.1925923 C9.07516752,11.7780189 9.11944397,12.7863314 9.0196487,14.2343808 L8.98474151,14.7408913 L8.63013752,14.3775356 C7.82954488,13.557184 7.32358281,13.0695344 7.13322522,12.931829 C7.01823208,12.8486426 6.83563116,12.7650092 6.58753654,12.6834896 L7.13411845,14.0085947 L1.95963155,14.0085947 L2.50621346,12.6834896 Z M2.59947823,12.1799002 C2.26687637,11.4841014 2.00792689,10.6162414 1.83947911,9.64603152 C1.1914258,10.3309419 0.793632426,10.8978748 0.646141388,11.3372802 C0.495837631,11.7850653 0.444592597,12.5742787 0.497833318,13.6937081 C1.11281259,13.0717784 1.50731833,12.698491 1.69402246,12.5634285 C1.89029508,12.4214442 2.19062032,12.2954101 2.59947823,12.1799002 Z M7.25427694,9.64603791 C7.08586461,10.6160367 6.82695248,11.4838836 6.49426262,12.1798976 C6.9031252,12.2954082 7.20345346,12.4214431 7.39972754,12.5634285 C7.58643167,12.698491 7.98093741,13.0717784 8.59591668,13.6937081 C8.6491574,12.5742787 8.59791237,11.7850653 8.44760861,11.3372802 C8.30011803,10.8978761 7.90232668,10.3309454 7.25427694,9.64603791 Z M6.31523372,11.4375 L2.7784902,11.4375 C2.86756255,11.6752028 2.96403021,11.8970899 3.06730081,12.1008852 L6.02643535,12.1008852 C6.1297141,11.8970384 6.22617549,11.6751534 6.31523372,11.4375 Z M6.47501895,10.96875 C6.82362695,9.84281696 7.02265531,8.44105506 7.02265531,6.95508249 C7.02265531,5.37394375 6.53402649,3.79935102 5.7208409,2.32359209 C5.4305675,1.7968076 5.11676774,1.31765459 4.81199327,0.913884818 C4.71536467,0.7858698 4.62456801,0.672238653 4.546875,0.580688903 C4.46918199,0.672238653 4.37838533,0.7858698 4.28175673,0.913884818 C3.97698226,1.31765459 3.6631825,1.7968076 3.3729091,2.32359209 C2.55972351,3.79935102 2.07109469,5.37394375 2.07109469,6.95508249 C2.07109469,8.44144064 2.27026556,9.84322483 2.6187166,10.96875 L6.47501895,10.96875 Z" id="Combined-Shape"></path>
        </g>
    </g>
</svg>
