<?xml version="1.0" encoding="UTF-8" standalone="no"?>
<svg
   xmlns:dc="http://purl.org/dc/elements/1.1/"
   xmlns:cc="http://creativecommons.org/ns#"
   xmlns:rdf="http://www.w3.org/1999/02/22-rdf-syntax-ns#"
   xmlns:svg="http://www.w3.org/2000/svg"
   xmlns="http://www.w3.org/2000/svg"
   xmlns:sodipodi="http://sodipodi.sourceforge.net/DTD/sodipodi-0.dtd"
   xmlns:inkscape="http://www.inkscape.org/namespaces/inkscape"
   width="16px"
   height="16px"
   viewBox="0 0 16 16"
   version="1.1"
   id="svg11"
   sodipodi:docname="deploy.svg"
   inkscape:version="0.92.3 (2405546, 2018-03-11)">
  <metadata
     id="metadata15">
    <rdf:RDF>
      <cc:Work
         rdf:about="">
        <dc:format>image/svg+xml</dc:format>
        <dc:type
           rdf:resource="http://purl.org/dc/dcmitype/StillImage" />
      </cc:Work>
    </rdf:RDF>
  </metadata>
  <sodipodi:namedview
     pagecolor="#ffffff"
     bordercolor="#666666"
     borderopacity="1"
     objecttolerance="10"
     gridtolerance="10"
     guidetolerance="10"
     inkscape:pageopacity="0"
     inkscape:pageshadow="2"
     inkscape:window-width="2560"
     inkscape:window-height="1346"
     id="namedview13"
     showgrid="false"
     inkscape:zoom="14.75"
     inkscape:cx="-3.8644068"
     inkscape:cy="8"
     inkscape:window-x="-11"
     inkscape:window-y="-11"
     inkscape:window-maximized="1"
     inkscape:current-layer="svg11" />
  <!-- Generator: Sketch 49.2 (51160) - http://www.bohemiancoding.com/sketch -->
  <title
     id="title2">Deployment</title>
  <desc
     id="desc4">Created with Sketch.</desc>
  <g
     id="deploy-16px"
     transform="matrix(1,0,0,1.0870684,-0.01562501,-1.1453961)"
     style="fill:none;fill-rule:evenodd;stroke:none;stroke-width:1">
    <g
       id="Group-2"
       transform="translate(3.46875,1.03125)"
       style="fill:#689bff">
      <path
         d="m 2.6390342,13.553905 0.4117934,-0.99833 h 2.9920948 l 0.4117934,0.99833 z M 4.5625,6.75 c -0.5522848,0 -1,-0.4477153 -1,-1 0,-0.5522848 0.4477152,-1 1,-1 0.5522847,0 1,0.4477152 1,1 0,0.5522847 -0.4477153,1 -1,1 z M 2.5062135,12.68349 C 2.2581188,12.76501 2.0755179,12.848643 1.9605248,12.931829 1.7701672,13.069534 1.2642051,13.557184 0.46361248,14.377536 L 0.10900849,14.740891 0.0741013,14.234381 C -0.02569397,12.786331 0.01858248,11.778019 0.21508705,11.192592 0.40674634,10.621601 0.91946062,9.9224172 1.7532891,9.0817136 1.6637324,8.4059552 1.6164053,7.6900482 1.6164053,6.9550825 c 0,-1.666792 0.510884,-3.3131011 1.3582709,-4.8509282 C 3.2757767,1.5577208 3.6014151,1.060491 3.918847,0.63995242 4.0382665,0.48174373 4.1501239,0.34326843 4.242854,0.23686023 4.2826718,0.19116916 4.3175483,0.15306633 4.3450317,0.1251428 4.4561016,0.01229388 4.4441377,0.02265531 4.546875,0.02265531 c 0.1027373,0 0.090773,-0.01036143 0.2018433,0.10248749 0.027483,0.0279235 0.06236,0.0660264 0.1021777,0.11171743 0.09273,0.1064082 0.2045875,0.2448835 0.324007,0.40309219 0.3174319,0.42053858 0.6430703,0.91776838 0.9441708,1.46420188 0.847387,1.5378271 1.3582709,3.1841362 1.3582709,4.8509282 0,0.7348997 -0.047314,1.4508134 -0.136878,2.1266369 0.833825,0.840701 1.3465374,1.5398826 1.5381963,2.1108726 0.1965045,0.585427 0.240781,1.593739 0.1409857,3.041789 l -0.034907,0.50651 -0.354604,-0.363355 C 7.8295449,13.557184 7.3235828,13.069534 7.1332252,12.931829 7.0182321,12.848643 6.8356312,12.765009 6.5875365,12.68349 l 0.5465819,1.325105 H 1.9596315 Z M 2.5994782,12.1799 C 2.2668764,11.484101 2.0079269,10.616241 1.8394791,9.6460315 1.1914258,10.330942 0.79363243,10.897875 0.64614139,11.33728 0.49583763,11.785065 0.4445926,12.574279 0.49783332,13.693708 1.1128126,13.071778 1.5073183,12.698491 1.6940225,12.563429 1.8902951,12.421444 2.1906203,12.29541 2.5994782,12.1799 Z M 7.2542769,9.6460379 C 7.0858646,10.616037 6.8269525,11.483884 6.4942626,12.179898 c 0.4088626,0.11551 0.7091909,0.241545 0.9054649,0.383531 0.1867042,0.135062 0.5812099,0.508349 1.1961892,1.130279 0.053241,-1.119429 0.002,-1.908643 -0.1483081,-2.356428 C 8.300118,10.897876 7.9023267,10.330945 7.2542769,9.6460379 Z M 6.3152337,11.4375 H 2.7784902 c 0.089072,0.237703 0.18554,0.45959 0.2888106,0.663385 H 6.0264353 C 6.1297141,11.897038 6.2261755,11.675153 6.3152337,11.4375 Z M 6.4750189,10.96875 C 6.823627,9.842817 7.0226553,8.4410551 7.0226553,6.9550825 7.0226553,5.3739437 6.5340265,3.799351 5.7208409,2.3235921 5.4305675,1.7968076 5.1167677,1.3176546 4.8119933,0.91388482 4.7153647,0.7858698 4.624568,0.67223865 4.546875,0.5806889 4.469182,0.67223865 4.3783853,0.7858698 4.2817567,0.91388482 3.9769823,1.3176546 3.6631825,1.7968076 3.3729091,2.3235921 2.5597235,3.799351 2.0710947,5.3739437 2.0710947,6.9550825 c 0,1.4863581 0.1991709,2.8881423 0.5476219,4.0136675 z"
         id="Combined-Shape"
         inkscape:connector-curvature="0" />
    </g>
  </g>
  <defs
     id="defs6" />
</svg>
