<?xml version="1.0" encoding="UTF-8" standalone="no"?>
<svg
   xmlns:dc="http://purl.org/dc/elements/1.1/"
   xmlns:cc="http://creativecommons.org/ns#"
   xmlns:rdf="http://www.w3.org/1999/02/22-rdf-syntax-ns#"
   xmlns:svg="http://www.w3.org/2000/svg"
   xmlns="http://www.w3.org/2000/svg"
   xmlns:sodipodi="http://sodipodi.sourceforge.net/DTD/sodipodi-0.dtd"
   xmlns:inkscape="http://www.inkscape.org/namespaces/inkscape"
   width="16px"
   height="16px"
   viewBox="0 0 16 16"
   version="1.1"
   id="svg11"
   sodipodi:docname="health.svg"
   inkscape:version="0.92.3 (2405546, 2018-03-11)">
  <metadata
     id="metadata15">
    <rdf:RDF>
      <cc:Work
         rdf:about="">
        <dc:format>image/svg+xml</dc:format>
        <dc:type
           rdf:resource="http://purl.org/dc/dcmitype/StillImage" />
        <dc:title>Health</dc:title>
      </cc:Work>
    </rdf:RDF>
  </metadata>
  <sodipodi:namedview
     pagecolor="#ffffff"
     bordercolor="#666666"
     borderopacity="1"
     objecttolerance="10"
     gridtolerance="10"
     guidetolerance="10"
     inkscape:pageopacity="0"
     inkscape:pageshadow="2"
     inkscape:window-width="2560"
     inkscape:window-height="1346"
     id="namedview13"
     showgrid="false"
     inkscape:zoom="14.75"
     inkscape:cx="8"
     inkscape:cy="8"
     inkscape:window-x="-11"
     inkscape:window-y="-11"
     inkscape:window-maximized="1"
     inkscape:current-layer="svg11" />
  <!-- Generator: Sketch 49.2 (51160) - http://www.bohemiancoding.com/sketch -->
  <title
     id="title2">Health</title>
  <desc
     id="desc4">Created with Sketch.</desc>
  <defs
     id="defs6" />
  <g
     id="Health-16px"
     transform="matrix(1.3229974,0,0,1.3229974,-2.1912142,-2.6046509)"
     style="fill:none;fill-rule:evenodd;stroke:none;stroke-width:1">
    <g
       id="Group"
       transform="translate(2.25,1.96875)"
       style="fill:#689bff;fill-rule:nonzero">
      <path
         d="m 10.03125,5.65625 c -0.8111682,0 -1.46875,-0.6575818 -1.46875,-1.46875 0,-0.8111682 0.6575818,-1.46875 1.46875,-1.46875 0.811168,0 1.46875,0.6575818 1.46875,1.46875 0,0.8111682 -0.657582,1.46875 -1.46875,1.46875 z m 0,-0.46875 c 0.552285,0 1,-0.4477153 1,-1 0,-0.5522847 -0.447715,-1 -1,-1 -0.5522847,0 -1,0.4477153 -1,1 0,0.5522847 0.4477153,1 1,1 z m 0,-0.4375 c -0.3106602,0 -0.5625,-0.2518398 -0.5625,-0.5625 0,-0.3106602 0.2518398,-0.5625 0.5625,-0.5625 0.31066,0 0.5625,0.2518398 0.5625,0.5625 0,0.3106602 -0.25184,0.5625 -0.5625,0.5625 z M 9.7856098,5.5593651 c 2.932e-4,0.08827 0.00111,0.1868654 0.00298,0.3919966 0.00949,1.0396747 -0.00316,1.5995278 -0.074,2.2510857 C 9.6024321,9.234096 9.3561278,10.044117 8.9409907,10.619183 8.4657146,11.277556 7.7686187,11.625 6.7542204,11.625 5.509081,11.625 4.7345874,11.103401 4.2690454,10.105045 3.8881058,9.2881203 3.7362106,8.2340897 3.7187143,6.8173652 L 3.25,6.8231538 c 0.027818,2.2525235 0.3886783,5.2705962 3.5042204,5.2705962 3.8124996,0 3.4999996,-4.5194144 3.4999996,-6.625 z M 4.1486391,6.9527218 C 7.282337,6.4665513 7.0061992,2.3542965 7.0061992,0.375 H 6.03125 V 0 H 5.875 C 5.702411,0 5.5625,0.13991102 5.5625,0.3125 v 0.625 C 5.5625,1.110089 5.702411,1.25 5.875,1.25 H 6.03125 V 0.84375 h 0.5091919 c 0.00962,1.0535364 -0.00304,1.6133895 -0.073874,2.2649474 C 6.3544109,4.140346 6.1081065,4.9503673 5.6929695,5.525433 5.2176934,6.1838058 4.5205975,6.53125 3.5061992,6.53125 2.4918009,6.53125 1.7947049,6.1838058 1.3194288,5.525433 0.90429178,4.9503673 0.65798744,4.140346 0.54583002,3.1086974 0.4749948,2.4571395 0.46234085,1.8972864 0.47183006,0.8576117 0.47185531,0.85484541 0.63749529,0.85089491 0.96875,0.84576019 V 1.25 H 1.125 c 0.172589,0 0.3125,-0.139911 0.3125,-0.3125 V 0.3125 C 1.4375,0.13991102 1.297589,0 1.125,0 H 0.96875 V 0.375 H 0.00619917 c 0,1.9906147 -0.27930495,6.1386512 2.91165343,6.5857052 L 3.2800789,7.6851578 C 3.4088761,9.77477 4.0232482,12.09375 6.7542204,12.09375 c 3.8124996,0 3.4999996,-4.5194144 3.4999996,-6.625 L 9.7856098,5.559365 c 2.932e-4,0.08827 0.00111,0.1868654 0.00298,0.3919966 0.00949,1.0396747 -0.00316,1.5995278 -0.074,2.2510857 C 9.6024321,9.234096 9.3561278,10.044117 8.9409907,10.619183 8.4657146,11.277556 7.7686187,11.625 6.7542204,11.625 5.509081,11.625 4.7345874,11.103401 4.2690454,10.105045 3.976131,9.4768904 3.8186385,8.7085474 3.7535396,7.7429208 Z"
         id="Combined-Shape"
         inkscape:connector-curvature="0" />
    </g>
  </g>
</svg>
