<?xml version="1.0" encoding="UTF-8"?>
<svg width="16px" height="16px" viewBox="0 0 16 16" version="1.1" xmlns="http://www.w3.org/2000/svg" xmlns:xlink="http://www.w3.org/1999/xlink">
    <!-- Generator: Sketch 49.2 (51160) - http://www.bohemiancoding.com/sketch -->
    <title>Isolated Deployment</title>
    <desc>Created with Sketch.</desc>
    <defs></defs>
    <g id="IsolatedDeployment-16px" stroke="none" stroke-width="1" fill="none" fill-rule="evenodd">
        <path d="M2.59375,2.59375 L2.59375,7.21875 L7.21875,7.21875 L7.21875,2.59375 L2.59375,2.59375 Z M2.28125,2.125 L7.53125,2.125 C7.61754449,2.125 7.6875,2.19495551 7.6875,2.28125 L7.6875,7.53125 C7.6875,7.61754449 7.61754449,7.6875 7.53125,7.6875 L2.28125,7.6875 C2.19495551,7.6875 2.125,7.61754449 2.125,7.53125 L2.125,2.28125 C2.125,2.19495551 2.19495551,2.125 2.28125,2.125 Z M2.28125,8.3125 L7.53125,8.3125 C7.61754449,8.3125 7.6875,8.38245551 7.6875,8.46875 L7.6875,13.71875 C7.6875,13.8050445 7.61754449,13.875 7.53125,13.875 L2.28125,13.875 C2.19495551,13.875 2.125,13.8050445 2.125,13.71875 L2.125,8.46875 C2.125,8.38245551 2.19495551,8.3125 2.28125,8.3125 Z M2.59375,8.78125 L2.59375,13.40625 L7.21875,13.40625 L7.21875,8.78125 L2.59375,8.78125 Z M8.46875,2.125 L13.71875,2.125 C13.8050445,2.125 13.875,2.19495551 13.875,2.28125 L13.875,7.53125 C13.875,7.61754449 13.8050445,7.6875 13.71875,7.6875 L8.46875,7.6875 C8.38245551,7.6875 8.3125,7.61754449 8.3125,7.53125 L8.3125,2.28125 C8.3125,2.19495551 8.38245551,2.125 8.46875,2.125 Z M8.46875,8.3125 L13.71875,8.3125 C13.8050445,8.3125 13.875,8.38245551 13.875,8.46875 L13.875,13.71875 C13.875,13.8050445 13.8050445,13.875 13.71875,13.875 L8.46875,13.875 C8.38245551,13.875 8.3125,13.8050445 8.3125,13.71875 L8.3125,8.46875 C8.3125,8.38245551 8.38245551,8.3125 8.46875,8.3125 Z M8.78125,8.78125 L8.78125,13.40625 L13.40625,13.40625 L13.40625,8.78125 L8.78125,8.78125 Z" id="Combined-Shape" fill="#689BFF" fill-rule="nonzero"></path>
    </g>
</svg>
