<?xml version="1.0" encoding="UTF-8" standalone="no"?>
<svg
   xmlns:dc="http://purl.org/dc/elements/1.1/"
   xmlns:cc="http://creativecommons.org/ns#"
   xmlns:rdf="http://www.w3.org/1999/02/22-rdf-syntax-ns#"
   xmlns:svg="http://www.w3.org/2000/svg"
   xmlns="http://www.w3.org/2000/svg"
   xmlns:sodipodi="http://sodipodi.sourceforge.net/DTD/sodipodi-0.dtd"
   xmlns:inkscape="http://www.inkscape.org/namespaces/inkscape"
   width="16px"
   height="16px"
   viewBox="0 0 16 16"
   version="1.1"
   id="svg10"
   sodipodi:docname="isolated-deployment.svg"
   inkscape:version="0.92.3 (2405546, 2018-03-11)">
  <metadata
     id="metadata14">
    <rdf:RDF>
      <cc:Work
         rdf:about="">
        <dc:format>image/svg+xml</dc:format>
        <dc:type
           rdf:resource="http://purl.org/dc/dcmitype/StillImage" />
      </cc:Work>
    </rdf:RDF>
  </metadata>
  <sodipodi:namedview
     pagecolor="#ffffff"
     bordercolor="#666666"
     borderopacity="1"
     objecttolerance="10"
     gridtolerance="10"
     guidetolerance="10"
     inkscape:pageopacity="0"
     inkscape:pageshadow="2"
     inkscape:window-width="2560"
     inkscape:window-height="1346"
     id="namedview12"
     showgrid="false"
     inkscape:zoom="14.75"
     inkscape:cx="8"
     inkscape:cy="8"
     inkscape:window-x="-11"
     inkscape:window-y="-11"
     inkscape:window-maximized="1"
     inkscape:current-layer="svg10" />
  <!-- Generator: Sketch 49.2 (51160) - http://www.bohemiancoding.com/sketch -->
  <title
     id="title2">Isolated Deployment</title>
  <desc
     id="desc4">Created with Sketch.</desc>
  <defs
     id="defs6" />
  <g
     id="IsolatedDeployment-16px"
     transform="matrix(1.3617021,0,0,1.3617021,-2.8936168,-2.8936168)"
     style="fill:none;fill-rule:evenodd;stroke:none;stroke-width:1">
    <path
       d="m 2.59375,2.59375 v 4.625 h 4.625 v -4.625 z M 2.28125,2.125 h 5.25 c 0.086295,0 0.15625,0.069955 0.15625,0.15625 v 5.25 c 0,0.086295 -0.069955,0.15625 -0.15625,0.15625 h -5.25 C 2.1949555,7.6875 2.125,7.6175445 2.125,7.53125 v -5.25 C 2.125,2.1949555 2.1949555,2.125 2.28125,2.125 Z m 0,6.1875 h 5.25 c 0.086295,0 0.15625,0.069956 0.15625,0.15625 v 5.25 c 0,0.08629 -0.069955,0.15625 -0.15625,0.15625 h -5.25 C 2.194955,13.875 2.125,13.80504 2.125,13.71875 v -5.25 C 2.125,8.382456 2.194955,8.3125 2.28125,8.3125 Z m 0.3125,0.46875 v 4.625 h 4.625 v -4.625 z M 8.46875,2.125 h 5.25 c 0.08629,0 0.15625,0.069955 0.15625,0.15625 v 5.25 c 0,0.086295 -0.06996,0.15625 -0.15625,0.15625 h -5.25 C 8.382456,7.6875 8.3125,7.617545 8.3125,7.53125 v -5.25 C 8.3125,2.194955 8.382456,2.125 8.46875,2.125 Z m 0,6.1875 h 5.25 c 0.08629,0 0.15625,0.069956 0.15625,0.15625 v 5.25 c 0,0.08629 -0.06996,0.15625 -0.15625,0.15625 h -5.25 c -0.086294,0 -0.15625,-0.06996 -0.15625,-0.15625 v -5.25 c 0,-0.086294 0.069956,-0.15625 0.15625,-0.15625 z m 0.3125,0.46875 v 4.625 h 4.625 v -4.625 z"
       id="Combined-Shape"
       inkscape:connector-curvature="0"
       style="fill:#689bff;fill-rule:nonzero" />
  </g>
</svg>
