<?xml version="1.0" encoding="UTF-8" standalone="no"?>
<svg
   xmlns:dc="http://purl.org/dc/elements/1.1/"
   xmlns:cc="http://creativecommons.org/ns#"
   xmlns:rdf="http://www.w3.org/1999/02/22-rdf-syntax-ns#"
   xmlns:svg="http://www.w3.org/2000/svg"
   xmlns="http://www.w3.org/2000/svg"
   xmlns:sodipodi="http://sodipodi.sourceforge.net/DTD/sodipodi-0.dtd"
   xmlns:inkscape="http://www.inkscape.org/namespaces/inkscape"
   width="16px"
   height="16px"
   viewBox="0 0 16 16"
   version="1.1"
   id="svg10"
   sodipodi:docname="local-deployment.svg"
   inkscape:version="0.92.3 (2405546, 2018-03-11)">
  <metadata
     id="metadata14">
    <rdf:RDF>
      <cc:Work
         rdf:about="">
        <dc:format>image/svg+xml</dc:format>
        <dc:type
           rdf:resource="http://purl.org/dc/dcmitype/StillImage" />
      </cc:Work>
    </rdf:RDF>
  </metadata>
  <sodipodi:namedview
     pagecolor="#ffffff"
     bordercolor="#666666"
     borderopacity="1"
     objecttolerance="10"
     gridtolerance="10"
     guidetolerance="10"
     inkscape:pageopacity="0"
     inkscape:pageshadow="2"
     inkscape:window-width="2560"
     inkscape:window-height="1346"
     id="namedview12"
     showgrid="false"
     inkscape:zoom="14.75"
     inkscape:cx="8"
     inkscape:cy="8"
     inkscape:window-x="-11"
     inkscape:window-y="-11"
     inkscape:window-maximized="1"
     inkscape:current-layer="svg10" />
  <!-- Generator: Sketch 49.2 (51160) - http://www.bohemiancoding.com/sketch -->
  <title
     id="title2">Local Deployment</title>
  <desc
     id="desc4">Created with Sketch.</desc>
  <defs
     id="defs6" />
  <g
     id="local-16px"
     transform="matrix(1.1544532,0,0,1.1544532,-1.2807214,-1.2599401)"
     style="fill:none;fill-rule:evenodd;stroke:none;stroke-width:1">
    <path
       d="M 14.5,1.53125 H 9.90625 V 5.1875 H 9.4375 V 1.4890625 C 9.4375,1.2534785 9.6284785,1.0625 9.8640625,1.0625 h 4.6781255 c 0.235584,0 0.426562,0.1909785 0.426562,0.4265625 V 11.542188 c 0,0.235584 -0.190978,0.426562 -0.426562,0.426562 H 10.939697 V 11.5 H 14.5 Z m -1.53125,7.2953232 c 0,-0.3654916 0.294755,-0.6617811 0.658353,-0.6617811 0.363599,0 0.658354,0.2962895 0.658354,0.6617811 0,0.3654917 -0.294755,0.6617812 -0.658354,0.6617812 -0.363598,0 -0.658353,-0.2962895 -0.658353,-0.6617812 z M 10.713942,2.5594363 h 2.978366 v 1.0692402 h -2.978366 z m 0.34375,0.7254902 h 2.290866 V 2.9031863 H 11.057692 Z M 7.265625,14.51087 h 1.7283642 c 0.1177919,0 0.2132812,0.09549 0.2132812,0.213281 v 0.04219 c 0,0.117792 -0.095489,0.213282 -0.2132812,0.213282 H 3.4384088 c -0.117792,0 -0.2132813,-0.09549 -0.2132813,-0.213282 v -0.04219 c 0,-0.117792 0.095489,-0.213281 0.2132813,-0.213281 H 5.171875 V 13.484375 H 1.5 c -0.2157362,0 -0.390625,-0.174889 -0.390625,-0.390625 V 5.25 C 1.109375,5.0342638 1.2842638,4.859375 1.5,4.859375 h 9.21875 c 0.215736,0 0.390625,0.1748888 0.390625,0.390625 v 7.84375 c 0,0.215736 -0.174889,0.390625 -0.390625,0.390625 H 7.265625 Z m -1.625,-1.026495 v 1.018342 h 1.15625 v -1.018342 z m -4.0625,-8.15625 v 7.6875 h 9.0625 v -7.6875 z m 0.578396,6.227581 h 7.905708 c 0.117792,0 0.213281,0.09549 0.213281,0.213282 v 0.04219 c 0,0.117792 -0.09549,0.213281 -0.213281,0.213281 H 2.156521 c -0.1177919,0 -0.2132812,-0.09549 -0.2132812,-0.213281 v -0.04219 c 0,-0.117792 0.095489,-0.213282 0.2132812,-0.213282 z"
       id="Combined-Shape"
       inkscape:connector-curvature="0"
       style="fill:#689bff;fill-rule:nonzero" />
  </g>
</svg>
