<?xml version="1.0" encoding="UTF-8" standalone="no"?>
<svg
   xmlns:dc="http://purl.org/dc/elements/1.1/"
   xmlns:cc="http://creativecommons.org/ns#"
   xmlns:rdf="http://www.w3.org/1999/02/22-rdf-syntax-ns#"
   xmlns:svg="http://www.w3.org/2000/svg"
   xmlns="http://www.w3.org/2000/svg"
   xmlns:sodipodi="http://sodipodi.sourceforge.net/DTD/sodipodi-0.dtd"
   xmlns:inkscape="http://www.inkscape.org/namespaces/inkscape"
   width="16px"
   height="16px"
   viewBox="0 0 16 16"
   version="1.1"
   id="svg10"
   sodipodi:docname="money-saving.svg"
   inkscape:version="0.92.3 (2405546, 2018-03-11)">
  <metadata
     id="metadata14">
    <rdf:RDF>
      <cc:Work
         rdf:about="">
        <dc:format>image/svg+xml</dc:format>
        <dc:type
           rdf:resource="http://purl.org/dc/dcmitype/StillImage" />
      </cc:Work>
    </rdf:RDF>
  </metadata>
  <sodipodi:namedview
     pagecolor="#ffffff"
     bordercolor="#666666"
     borderopacity="1"
     objecttolerance="10"
     gridtolerance="10"
     guidetolerance="10"
     inkscape:pageopacity="0"
     inkscape:pageshadow="2"
     inkscape:window-width="2560"
     inkscape:window-height="1346"
     id="namedview12"
     showgrid="false"
     inkscape:zoom="20.85965"
     inkscape:cx="3.7704234"
     inkscape:cy="8.3772862"
     inkscape:window-x="-11"
     inkscape:window-y="-11"
     inkscape:window-maximized="1"
     inkscape:current-layer="svg10" />
  <!-- Generator: Sketch 49.3 (51167) - http://www.bohemiancoding.com/sketch -->
  <title
     id="title2">Money Saving</title>
  <desc
     id="desc4">Created with Sketch.</desc>
  <defs
     id="defs6" />
  <g
     id="moneySaving-16px"
     transform="matrix(1.1428571,0,0,1.1428571,-1.142858,-1.1428568)"
     style="fill:none;fill-rule:evenodd;stroke:none;stroke-width:1">
    <path
       d="m 7.9054299,13.581077 c -0.2400233,0.0063 -0.4869839,-0.0047 -0.7665094,-0.02848 -0.039344,-0.0033 -0.078162,-0.0068 -0.1223155,-0.01095 -0.021452,-0.002 -0.088629,-0.0084 -0.1000212,-0.0094 -0.014361,-0.0013 -0.027128,-0.0025 -0.038387,-0.0035 -0.035014,0.04217 -0.081811,0.10879 -0.1386148,0.198291 -0.1254537,0.197667 -0.2946659,0.49854 -0.5065002,0.901061 L 6.1689225,14.75 4.7229262,14.707451 v -0.214105 c 0,-0.198879 -0.078415,-0.648889 -0.1883448,-1.032431 -0.062526,-0.218152 -0.1322367,-0.407321 -0.2039889,-0.549187 -0.036428,-0.07203 -0.072425,-0.129887 -0.1063003,-0.171582 -0.027177,-0.03345 -0.049311,-0.05213 -0.061961,-0.05774 C 3.6032824,12.403696 3.2378539,12.06858 2.7020539,11.428074 2.6580139,11.375427 2.5076803,11.194277 2.4974531,11.181994 2.4159791,11.084139 2.3523782,11.008823 2.2891495,10.935758 2.2093186,10.829598 2.1369241,10.763669 2.059143,10.717593 1.9559161,10.656443 1.8761134,10.636613 1.6613429,10.606385 1.5361378,10.588764 1.4712075,10.575979 1.3962728,10.548358 1.2856337,10.507578 1.195398,10.442314 1.1272779,10.345195 1.0662934,10.258249 1.041845,10.080866 1.020634,9.7527554 1.0026148,9.4740181 0.99561586,9.1429861 1.0027578,8.8400635 1.0110892,8.4866886 1.0375844,8.1892167 1.0844059,7.9808121 1.1149021,7.8450719 1.1541131,7.7420004 1.2136044,7.666629 1.3175124,7.5349847 1.4837694,7.4998873 1.6294074,7.59199 1.6626694,7.59943 1.6902944,7.602235 1.7229754,7.602977 1.7968124,7.604657 1.8863208,7.595727 1.9743282,7.577174 2.1552108,7.5390495 2.2908462,7.4678861 2.3197223,7.4131315 2.6656719,6.7571473 3.17842,6.2109482 3.8259127,5.782347 L 2.9739468,4.1099845 3.198827,4.0205637 C 4.4967801,3.504449 5.4455325,3.8058645 5.952275,4.9066382 7.0156434,4.6703342 8.1489621,4.663502 9.0989238,4.8769712 c 1.1096882,0.2493619 2.1426822,0.8471503 2.9278232,1.6557605 0.755253,0.7778278 1.221452,1.6934017 1.268607,2.5207851 0.04275,0.7500146 -0.156682,1.4194922 -0.545102,2.0218782 -0.27236,0.422395 -0.565725,0.729247 -1.007885,1.115979 -0.427503,0.373913 -0.684061,1.119181 -0.749311,2.241304 l -0.01208,0.20773 H 10.77254 9.8342035 9.5996193 9.5214246 9.4120449 l -0.066301,-0.08685 c -0.016984,-0.02202 -0.026188,-0.03385 -0.036665,-0.04721 -0.030097,-0.0384 -0.064238,-0.08127 -0.1017142,-0.127477 C 9.1003707,14.246943 8.9884075,14.115078 8.8773504,13.99252 8.816081,13.924906 8.7567566,13.862011 8.7000172,13.804779 8.5788541,13.682564 8.4730187,13.59015 8.3927134,13.536031 c -0.1465895,0.02594 -0.3094235,0.04036 -0.4872835,0.04505 z m -1.5390233,-0.09009 c 0.069668,-0.10977 0.1290733,-0.193802 0.180269,-0.253928 0.085301,-0.10018 0.1545561,-0.154071 0.2664513,-0.154071 0.041292,0 0.3774544,0.03138 0.3632741,0.03017 0.2645884,0.02249 0.4965255,0.03286 0.7173812,0.02705 0.1879509,-0.0049 0.3532982,-0.02191 0.4910895,-0.05209 l 0.076265,-0.01671 0.069841,0.03485 c 0.1381155,0.06892 0.2974922,0.201139 0.483034,0.388292 0.061665,0.0622 0.1254646,0.129839 0.190954,0.202111 0.117021,0.129139 0.2340315,0.266949 0.3457478,0.404698 0.028033,0.03457 0.054308,0.06738 0.078571,0.09803 h 0.9372275 c 0.09137,-1.117341 0.380593,-1.898787 0.88473,-2.339727 0.413652,-0.361798 0.682623,-0.643135 0.927542,-1.022972 0.340241,-0.527668 0.51265,-1.1064457 0.47551,-1.758123 C 12.813742,8.3670479 12.396026,7.5466904 11.709538,6.839682 10.98278,6.0912003 10.02553,5.5372446 9.0019088,5.3072231 8.0649647,5.0966792 6.9245241,5.1162269 5.8750987,5.3779354 L 5.6861991,5.4250437 5.6156761,5.2438704 C 5.2509144,4.3067991 4.604967,4.013616 3.5904178,4.3472049 L 4.4033767,5.9429976 4.2286798,6.049245 C 3.5648195,6.4529925 3.0479696,6.9789242 2.7106303,7.6185819 2.6048899,7.8190851 2.3630085,7.9459922 2.0655875,8.0086787 1.8690122,8.0501107 1.6753645,8.0579327 1.529522,8.0214647 1.524742,8.0383197 1.520042,8.0569777 1.51547,8.0773267 1.476361,8.2514043 1.452113,8.5236388 1.444408,8.8504406 1.437578,9.1403349 1.4442987,9.458431 1.461489,9.7243533 1.469459,9.8476822 1.479343,9.95344 1.490014,10.030862 c 0.00446,0.03235 0.00891,0.05863 0.012989,0.07748 0.029173,0.02734 0.081671,0.04188 0.2200116,0.06135 0.2709837,0.03814 0.3920709,0.06823 0.5615714,0.168637 0.1268157,0.07512 0.2411332,0.178588 0.3439502,0.315009 0.063672,0.07367 0.1276972,0.149526 0.2086551,0.246761 0.010717,0.01287 0.16057,0.193443 0.2039471,0.245296 0.4987693,0.59624 0.8249106,0.895683 1.3059297,1.136408 0.2615709,0.119968 0.4516037,0.49734 0.6122413,1.0578 0.091433,0.319006 0.1625227,0.677612 0.1913775,0.939232 l 0.7558069,0.02224 c 0.1872648,-0.351962 0.3402936,-0.62161 0.4599128,-0.810084 z M 1.5069478,10.124624 c 5.069e-4,0.0018 8.91e-4,0.003 0.00113,0.0037 -1.038e-4,-2.99e-4 -2.083e-4,-5.99e-4 -3.135e-4,-9e-4 z M 10.715371,4.7098768 C 10.670951,4.8259646 10.540672,4.8841243 10.424385,4.8397801 10.308099,4.7954358 10.249839,4.66538 10.294259,4.5492922 c 0.09068,-0.2369776 0.137744,-0.4896678 0.137744,-0.7491905 0,-1.1598442 -0.9418503,-2.1000837 -2.1036818,-2.1000837 -1.1618316,0 -2.1036821,0.9402395 -2.1036821,2.1000837 0,0.1768003 0.021836,0.3505381 0.064558,0.5185353 C 6.3198282,4.4390852 6.2468494,4.5615163 6.1261949,4.5920945 6.0055403,4.6226727 5.8828994,4.5498187 5.8522688,4.4293706 5.8003606,4.2252532 5.7738501,4.0143213 5.7738501,3.8001017 5.7738501,2.3917194 6.9175257,1.25 8.3283212,1.25 c 1.4107955,0 2.5544708,1.1417194 2.5544708,2.5501017 0,0.3146249 -0.0572,0.6217219 -0.167421,0.9097751 z M 8.079755,4.152935 c 0,0.074622 0.020643,0.1332158 0.061928,0.1757821 0.041286,0.042566 0.097921,0.063849 0.169906,0.063849 0.098451,0 0.1744048,-0.031267 0.2278646,-0.093803 0.05346,-0.062536 0.080189,-0.1537102 0.080189,-0.2735264 h 0.5351245 c 0,0.217561 -0.061663,0.3928158 -0.1849911,0.5257698 -0.1233274,0.132954 -0.3003772,0.2115165 -0.5311541,0.23569 V 5.1051538 H 8.1861448 V 4.788273 C 7.9881847,4.7693547 7.8317775,4.7031414 7.7169184,4.5896314 7.6020592,4.4761213 7.5446305,4.3295063 7.5446305,4.149782 c 0,-0.106153 0.017996,-0.1970648 0.053989,-0.2727382 0.035993,-0.075673 0.085747,-0.1418866 0.1492632,-0.1986416 0.063517,-0.056755 0.1389414,-0.107466 0.2262767,-0.1521343 0.087335,-0.044668 0.1802269,-0.08776 0.2786776,-0.1292748 0.098451,-0.041515 0.1699058,-0.085132 0.2143674,-0.1308512 0.044462,-0.045719 0.066692,-0.1074658 0.066692,-0.1852412 0,-0.076724 -0.019319,-0.1368944 -0.057959,-0.1805117 C 8.4372984,2.856772 8.3830454,2.834963 8.313177,2.834963 8.23484,2.834963 8.1745,2.864391 8.1321556,2.923248 8.0898116,2.982105 8.0686396,3.0661854 8.0686396,3.1754914 H 7.5319273 c 0,-0.1996936 0.055311,-0.3644384 0.1659362,-0.4942393 C 7.8084882,2.5514517 7.960661,2.4723637 8.1543866,2.4439861 v -0.338952 h 0.2524772 v 0.332646 c 0.2011358,0.018918 0.3620421,0.08592 0.4827235,0.2010064 0.1206815,0.1150866 0.1810214,0.2614389 0.1810214,0.4390611 0,0.106153 -0.016937,0.1965393 -0.050813,0.2711617 -0.033875,0.074622 -0.082571,0.14031 -0.1460874,0.1970651 C 8.8101917,3.6027294 8.7345023,3.6526521 8.6466377,3.6957439 8.558773,3.7388357 8.4629703,3.7814013 8.3592266,3.8234421 8.2554828,3.8654829 8.1829691,3.9101505 8.1416834,3.9574464 8.1003976,4.0047423 8.079755,4.0699045 8.079755,4.152935 Z m 6.54237,2.3315741 c 0.09167,-0.084068 0.234257,-0.078029 0.318469,0.013488 0.08421,0.091517 0.07816,0.2338568 -0.01351,0.3179248 -0.465268,0.4266662 -0.886178,0.6576316 -1.273121,0.6814027 -0.0086,5.267e-4 -0.01712,9.517e-4 -0.02563,0.00128 -0.166861,0.2363692 -0.397809,0.4434793 -0.690982,0.6194912 -0.106676,0.064045 -0.245163,0.029634 -0.309318,-0.07686 -0.06416,-0.106494 -0.02968,-0.2447435 0.07699,-0.3087889 0.172831,-0.1037624 0.316704,-0.2175741 0.432353,-0.3421599 -0.193462,-0.1006095 -0.363763,-0.2695443 -0.507777,-0.5015344 -0.180854,-0.2913333 -0.23143,-0.57013 -0.14627,-0.8067779 0.07923,-0.220177 0.267111,-0.3731835 0.498198,-0.4285948 0.488884,-0.1172272 0.96484,0.2104653 0.968591,0.7853667 0.0013,0.1949335 -0.02393,0.3791672 -0.07512,0.5522391 0.216024,-0.08148 0.466302,-0.2489397 0.747133,-0.5064714 z m -1.122788,-0.042836 c -0.0018,-0.2710018 -0.193755,-0.403184 -0.412527,-0.3507257 -0.209674,0.050277 -0.276187,0.2351072 -0.07404,0.560746 0.115896,0.1866941 0.239588,0.3035778 0.376088,0.359104 0.07541,-0.1730778 0.111825,-0.3623786 0.110476,-0.5691243 z m -9.0027225,1.693602 c -0.2821591,0 -0.5108942,-0.2283439 -0.5108942,-0.5100203 0,-0.2816765 0.2287351,-0.5100204 0.5108942,-0.5100204 0.2821591,0 0.5108942,0.2283439 0.5108942,0.5100204 0,0.2816764 -0.2287351,0.5100203 -0.5108942,0.5100203 z"
       id="Combined-Shape"
       transform="matrix(-1,0,0,1,16,0)"
       inkscape:connector-curvature="0"
       style="fill:#689bff;fill-rule:nonzero" />
  </g>
</svg>
