<?xml version="1.0" encoding="UTF-8" standalone="no"?>
<svg
   xmlns:dc="http://purl.org/dc/elements/1.1/"
   xmlns:cc="http://creativecommons.org/ns#"
   xmlns:rdf="http://www.w3.org/1999/02/22-rdf-syntax-ns#"
   xmlns:svg="http://www.w3.org/2000/svg"
   xmlns="http://www.w3.org/2000/svg"
   xmlns:sodipodi="http://sodipodi.sourceforge.net/DTD/sodipodi-0.dtd"
   xmlns:inkscape="http://www.inkscape.org/namespaces/inkscape"
   width="16"
   height="16"
   viewBox="0 0 16 16"
   version="1.1"
   id="svg3737"
   sodipodi:docname="region.svg"
   inkscape:version="0.92.3 (2405546, 2018-03-11)">
  <metadata
     id="metadata3741">
    <rdf:RDF>
      <cc:Work
         rdf:about="">
        <dc:format>image/svg+xml</dc:format>
        <dc:type
           rdf:resource="http://purl.org/dc/dcmitype/StillImage" />
        <dc:title>Region</dc:title>
      </cc:Work>
    </rdf:RDF>
  </metadata>
  <sodipodi:namedview
     pagecolor="#ffffff"
     bordercolor="#666666"
     borderopacity="1"
     objecttolerance="10"
     gridtolerance="10"
     guidetolerance="10"
     inkscape:pageopacity="0"
     inkscape:pageshadow="2"
     inkscape:window-width="2560"
     inkscape:window-height="1346"
     id="namedview3739"
     showgrid="false"
     inkscape:zoom="4.3867188"
     inkscape:cx="88.106857"
     inkscape:cy="128"
     inkscape:window-x="2549"
     inkscape:window-y="-11"
     inkscape:window-maximized="1"
     inkscape:current-layer="svg3737" />
  <!-- Generator: Sketch 49.2 (51160) - http://www.bohemiancoding.com/sketch -->
  <title
     id="title3728">Region</title>
  <desc
     id="desc3730">Created with Sketch.</desc>
  <defs
     id="defs3732" />
  <g
     id="Region-Copy"
     style="fill:none;fill-rule:evenodd;stroke:none;stroke-width:1"
     transform="matrix(0.07200625,0,0,0.07200623,-1.1807947,-1.1807943)">
    <g
       id="Group-2"
       transform="translate(16,16)"
       style="fill:#689bff;fill-rule:nonzero">
      <path
         d="M 108.6485,68.048912 C 97.833402,67.718762 87.292308,65.839128 77.287326,62.552127 71.783659,77.385749 68.525314,92.868763 68.140058,108.3985 H 108.6485 Z m 7.203,-0.0097 V 108.3985 h 39.50844 c -0.38351,-15.45937 -3.61413,-30.87244 -9.07259,-45.644696 -9.72597,3.131949 -19.95097,4.936867 -30.43585,5.285371 z m -7.203,88.433508 V 115.6015 H 68.168883 c 0.513266,15.6663 3.93982,31.27198 9.634541,46.19982 9.851134,-3.18297 20.21577,-5.00415 30.845076,-5.32863 z m 7.203,0.01 c 10.29986,0.34235 20.34892,2.09017 29.92049,5.1208 5.64956,-14.86778 9.04813,-30.40471 9.55912,-46.00173 H 115.8515 v 40.88092 z M 108.6485,10.5795 c -1.19256,1.169139 -2.51991,2.592902 -3.92474,4.221262 -5.082734,5.891467 -10.576131,13.712886 -15.578335,22.471637 -3.436887,6.017917 -6.520113,12.224658 -9.198357,18.570955 9.166058,2.968874 18.809174,4.676576 28.701432,4.999247 z m 7.203,1.007568 v 49.245137 c 9.56535,-0.339744 18.89549,-1.974607 27.78406,-4.7927 -2.69739,-6.414565 -5.8087,-12.687202 -9.28099,-18.767106 -5.0022,-8.758751 -10.4956,-16.58017 -15.57833,-22.471637 -1.02341,-1.186261 -2.00572,-2.263939 -2.92474,-3.213694 z m -7.203,200.822042 v -48.72954 c -9.68408,0.31589 -19.129395,1.95912 -28.122115,4.8135 2.543939,5.88121 5.434929,11.63922 8.63174,17.23458 5.003023,8.75677 10.497021,16.57807 15.580655,22.47263 1.39909,1.62226 2.72126,3.04175 3.90972,4.20883 z m 7.203,-1.0091 c 0.91461,-0.9465 1.89181,-2.01944 2.90972,-3.19973 5.08363,-5.89456 10.57763,-13.71586 15.58065,-22.47263 3.23161,-5.65627 6.15071,-11.47875 8.71469,-17.42668 -8.71442,-2.7067 -17.84718,-4.27862 -27.20506,-4.61099 z M 7.6470664,108.3985 H 60.934882 C 61.319408,91.977701 64.737761,75.669237 70.518793,60.081256 58.248668,55.143087 46.923126,48.025791 37.06516,39.012934 19.009658,57.547677 8.4205142,82.101142 7.6470664,108.3985 Z m 0.033906,7.20301 C 8.7279917,142.57286 20.056399,166.90584 37.857192,184.79144 47.663674,175.99599 58.886163,169.0544 71.021835,164.23932 65.056403,148.56735 61.473939,132.14781 60.962097,115.6015 H 7.6809723 Z M 215.35293,108.3985 c -0.76582,-26.033879 -11.15276,-50.35332 -28.85985,-68.808344 -9.8716,8.887076 -21.18407,15.890807 -33.42251,20.732625 5.72689,15.514878 9.11201,31.739709 9.49455,48.075719 z m -0.0339,7.203 h -52.78112 c -0.50926,16.46267 -4.05817,32.79983 -9.96946,48.40009 12.10471,4.72071 23.31415,11.55137 33.13317,20.22409 17.47884,-17.83133 28.58139,-41.93613 29.61741,-68.62417 z m 7.20817,0 c -2.15411,59.35802 -50.87388,106.83763 -110.72005,106.99958 -0.0191,2.8e-4 -0.0381,4.2e-4 -0.0571,4.2e-4 -0.013,0 -0.0261,-7e-5 -0.0392,-2e-4 -0.0703,1.3e-4 -0.14053,2e-4 -0.21081,2e-4 C 50.140336,222.6015 0.3985,172.85966 0.3985,111.5 0.3985,81.697099 12.191962,53.751615 32.815821,33.063124 53.524687,12.28936 81.574959,0.3985 111.5,0.3985 c 0.0702,0 0.14045,6.548e-5 0.21066,1.964e-4 0.0131,-1.3091e-4 0.0262,-1.964e-4 0.0393,-1.964e-4 0.0191,0 0.0383,1.3955e-4 0.0575,4.1844e-4 29.40154,0.0800308 56.98044,11.63681256 77.54669,31.84024856 20.40193,20.042016 32.40533,47.117355 33.20469,76.159333 h 0.0426 v 7.203 z M 42.277605,34.017347 C 51.403157,42.284772 61.854601,48.824074 73.166113,53.38211 75.99148,46.649193 79.251794,40.071418 82.89061,33.69993 88.119171,24.544831 93.879369,16.343545 99.269908,10.095291 99.865376,9.4050758 100.44562,8.7481224 101.01084,8.1256062 79.017864,10.333718 58.570537,19.443458 42.277594,34.017337 Z M 181.31865,34.555139 C 165.05694,19.784497 144.58602,10.513899 122.54067,8.1823855 c 0.54895,0.6056475 1.11203,1.2436398 1.68942,1.9129055 5.39054,6.248254 11.15074,14.44954 16.3793,23.604639 3.68162,6.446436 6.97578,13.104041 9.82402,19.919843 11.29235,-4.469164 21.74064,-10.907121 30.88523,-19.064627 z M 43.133004,189.73779 c 15.803556,13.82105 35.831958,22.93118 57.894286,25.13945 -0.56585,-0.62349 -1.146835,-1.28155 -1.74316,-1.973 -5.390752,-6.25066 -11.151111,-14.45115 -16.380221,-23.60364 -3.406348,-5.96212 -6.48119,-12.10426 -9.178295,-18.38467 -11.173716,4.42695 -21.519808,10.78163 -30.59261,18.82186 z m 137.330586,-0.52577 c -9.09083,-7.9334 -19.43383,-14.18943 -30.58915,-18.52954 -2.72103,6.36167 -5.82981,12.58214 -9.27835,18.61812 -5.22911,9.15249 -10.98947,17.35298 -16.38022,23.60364 -0.57829,0.67054 -1.14215,1.30967 -1.69177,1.91633 22.12274,-2.33317 42.17564,-11.6091 57.93949,-25.60855 z"
         id="Combined-Shape"
         inkscape:connector-curvature="0" />
    </g>
  </g>
</svg>
