<?xml version="1.0" encoding="UTF-8" standalone="no"?>
<svg
   xmlns:dc="http://purl.org/dc/elements/1.1/"
   xmlns:cc="http://creativecommons.org/ns#"
   xmlns:rdf="http://www.w3.org/1999/02/22-rdf-syntax-ns#"
   xmlns:svg="http://www.w3.org/2000/svg"
   xmlns="http://www.w3.org/2000/svg"
   xmlns:sodipodi="http://sodipodi.sourceforge.net/DTD/sodipodi-0.dtd"
   xmlns:inkscape="http://www.inkscape.org/namespaces/inkscape"
   width="16px"
   height="16px"
   viewBox="0 0 16 16"
   version="1.1"
   id="svg12"
   sodipodi:docname="resources.svg"
   inkscape:version="0.92.3 (2405546, 2018-03-11)">
  <metadata
     id="metadata16">
    <rdf:RDF>
      <cc:Work
         rdf:about="">
        <dc:format>image/svg+xml</dc:format>
        <dc:type
           rdf:resource="http://purl.org/dc/dcmitype/StillImage" />
        <dc:title>Resources</dc:title>
      </cc:Work>
    </rdf:RDF>
  </metadata>
  <sodipodi:namedview
     pagecolor="#ffffff"
     bordercolor="#666666"
     borderopacity="1"
     objecttolerance="10"
     gridtolerance="10"
     guidetolerance="10"
     inkscape:pageopacity="0"
     inkscape:pageshadow="2"
     inkscape:window-width="2560"
     inkscape:window-height="1346"
     id="namedview14"
     showgrid="false"
     inkscape:zoom="14.75"
     inkscape:cx="8"
     inkscape:cy="8"
     inkscape:window-x="-11"
     inkscape:window-y="-11"
     inkscape:window-maximized="1"
     inkscape:current-layer="svg12" />
  <!-- Generator: Sketch 49.2 (51160) - http://www.bohemiancoding.com/sketch -->
  <title
     id="title2">Resources</title>
  <desc
     id="desc4">Created with Sketch.</desc>
  <defs
     id="defs6" />
  <g
     id="Resources-16px"
     transform="matrix(1.1512453,0,0,1.1512453,-1.2099707,-1.2279508)"
     style="fill:none;fill-rule:evenodd;stroke:none;stroke-width:1">
    <g
       id="Group-5"
       transform="translate(1.03125,2.625)"
       style="fill:#689bff;fill-rule:nonzero">
      <g
         id="Group-4"
         transform="translate(0,0.023649)">
        <path
           d="M 13.335582,10.183715 13.104077,7.954829 c -0.0096,-0.092166 -0.08725,-0.1621923 -0.179911,-0.1621923 h -2.522878 c -0.09266,0 -0.170339,0.070026 -0.179911,0.1621923 L 9.9898708,10.183715 Z M 10.401288,7.25 h 2.522878 c 0.370648,0 0.681352,0.2801045 0.719644,0.648769 l 0.272962,2.628017 c 0.01032,0.09936 -0.06186,0.188277 -0.161224,0.198598 -0.0062,6.44e-4 -0.01245,9.67e-4 -0.01869,9.67e-4 H 9.5885925 c -0.099897,0 -0.1808789,-0.08098 -0.1808789,-0.180879 0,-0.0062 3.231e-4,-0.01248 9.679e-4,-0.01869 L 9.6816434,7.898769 C 9.7199351,7.5301045 10.03064,7.25 10.401288,7.25 Z m -4.6939771,0 h 2.5228782 c 0.3706478,0 0.6813525,0.2801045 0.7196442,0.648769 l 0.2729619,2.628017 c 0.01032,0.09936 -0.061862,0.188277 -0.1612244,0.198598 -0.00621,6.44e-4 -0.012445,9.67e-4 -0.018687,9.67e-4 h -4.148268 c -0.099897,0 -0.1808789,-0.08098 -0.1808789,-0.180879 0,-0.0062 3.231e-4,-0.01248 9.679e-4,-0.01869 L 4.9876667,7.898769 C 5.0259584,7.5301045 5.3366631,7.25 5.7073109,7.25 Z M 8.6416059,10.183715 8.4101001,7.954829 C 8.4005272,7.8626628 8.322851,7.7926367 8.2301891,7.7926367 H 5.7073109 c -0.092662,0 -0.1703381,0.070026 -0.179911,0.1621923 L 5.2958941,10.183715 Z M 1.0133342,7.25 h 2.5228782 c 0.3706478,0 0.6813525,0.2801045 0.7196442,0.648769 l 0.2729619,2.628017 c 0.01032,0.09936 -0.061862,0.188277 -0.1612244,0.198598 -0.00621,6.44e-4 -0.012445,9.67e-4 -0.018687,9.67e-4 H 0.20063916 c -0.0998967,0 -0.18087891,-0.08098 -0.18087891,-0.180879 0,-0.0062 3.2305e-4,-0.01248 9.6785e-4,-0.01869 L 0.29369001,7.898769 C 0.33198177,7.5301045 0.64268646,7.25 1.0133342,7.25 Z M 0.60191747,10.183715 H 3.9476292 L 3.7161235,7.954829 C 3.7065505,7.8626628 3.6288743,7.7926367 3.5362124,7.7926367 H 1.0133342 c -0.0926619,0 -0.17033809,0.070026 -0.17991103,0.1621923 z M 5.7073109,0.00760135 h 2.5228782 c 0.3706478,0 0.6813525,0.28010447 0.7196442,0.64876897 L 9.2227952,3.2843871 c 0.01032,0.099362 -0.061862,0.1882774 -0.1612244,0.1985977 -0.00621,6.449e-4 -0.012445,9.679e-4 -0.018687,9.679e-4 h -4.148268 c -0.099897,0 -0.1808789,-0.080982 -0.1808789,-0.1808789 0,-0.00624 3.231e-4,-0.012479 9.679e-4,-0.018687 L 4.9876667,0.65637032 C 5.0259584,0.28770582 5.3366631,0.00760135 5.7073109,0.00760135 Z M 8.6416059,2.941316 8.4101001,0.71243031 C 8.4005272,0.62026419 8.322851,0.55023807 8.2301891,0.55023807 H 5.7073109 c -0.092662,0 -0.1703381,0.0700261 -0.179911,0.16219224 L 5.2958941,2.941316 Z M 8.0542993,3.6288007 h 2.5228777 c 0.370648,0 0.681353,0.2801044 0.719645,0.6487689 l 0.272962,2.6280169 c 0.01032,0.099362 -0.06186,0.1882773 -0.161225,0.1985977 -0.0062,6.448e-4 -0.01244,9.678e-4 -0.01869,9.678e-4 H 7.2416042 c -0.099897,0 -0.1808789,-0.080982 -0.1808789,-0.1808789 0,-0.00624 3.23e-4,-0.012479 9.678e-4,-0.018687 L 7.334655,4.2775696 C 7.3729468,3.9089051 7.6836515,3.6288007 8.0542993,3.6288007 Z M 10.988594,6.5625153 10.757089,4.3336296 c -0.0096,-0.092166 -0.08725,-0.1621922 -0.179912,-0.1621922 H 8.0542993 c -0.092662,0 -0.1703382,0.070026 -0.1799111,0.1621922 L 7.6428825,6.5625153 Z M 3.3603226,3.6288007 h 2.5228782 c 0.3706477,0 0.6813524,0.2801044 0.7196442,0.6487689 l 0.2729619,2.6280169 c 0.01032,0.099362 -0.061862,0.1882773 -0.1612244,0.1985977 -0.00621,6.448e-4 -0.012445,9.678e-4 -0.018687,9.678e-4 h -4.148268 c -0.099897,0 -0.1808789,-0.080982 -0.1808789,-0.1808789 0,-0.00624 3.23e-4,-0.012479 9.678e-4,-0.018687 L 2.6406784,4.2775696 C 2.6789701,3.9089051 2.9896748,3.6288007 3.3603226,3.6288007 Z M 6.2946175,6.5625153 6.0631118,4.3336296 C 6.0535389,4.2414635 5.9758627,4.1714374 5.8832008,4.1714374 H 3.3603226 c -0.092662,0 -0.1703381,0.070026 -0.1799111,0.1621922 L 2.9489058,6.5625153 Z"
           id="Combined-Shape"
           inkscape:connector-curvature="0" />
      </g>
    </g>
  </g>
</svg>
