<?xml version="1.0" encoding="UTF-8"?>
<svg width="16px" height="16px" viewBox="0 0 16 16" version="1.1" xmlns="http://www.w3.org/2000/svg" xmlns:xlink="http://www.w3.org/1999/xlink">
    <!-- Generator: Sketch 49.2 (51160) - http://www.bohemiancoding.com/sketch -->
    <title>Resources</title>
    <desc>Created with Sketch.</desc>
    <defs></defs>
    <g id="Resources-16px" stroke="none" stroke-width="1" fill="none" fill-rule="evenodd">
        <g id="Group-5" transform="translate(1.031250, 2.625000)" fill="#689BFF" fill-rule="nonzero">
            <g id="Group-4" transform="translate(0.000000, 0.023649)">
                <path d="M13.3355825,10.1837146 L13.1040768,7.95482896 C13.0945039,7.86266284 13.0168277,7.79263672 12.9241658,7.79263672 L10.4012876,7.79263672 C10.3086257,7.79263672 10.2309495,7.86266284 10.2213765,7.95482896 L9.98987083,10.1837146 L13.3355825,10.1837146 Z M10.4012876,7.25 L12.9241658,7.25 C13.2948135,7.25 13.6055182,7.53010447 13.64381,7.89876897 L13.9167719,10.5267858 C13.9270923,10.6261479 13.8549096,10.7150631 13.7555475,10.7253835 C13.7493395,10.7260283 13.7431023,10.7263514 13.7368608,10.7263514 L9.58859252,10.7263514 C9.48869586,10.7263514 9.40771362,10.6453691 9.40771362,10.5454724 C9.40771362,10.539231 9.40803667,10.5329938 9.40868147,10.5267858 L9.68164338,7.89876897 C9.71993513,7.53010447 10.0306398,7.25 10.4012876,7.25 Z M5.70731091,7.25 L8.23018909,7.25 C8.60083686,7.25 8.91154155,7.53010447 8.9498333,7.89876897 L9.22279521,10.5267858 C9.23311557,10.6261479 9.16093296,10.7150631 9.06157082,10.7253835 C9.05536281,10.7260283 9.04912557,10.7263514 9.04288416,10.7263514 L4.89461584,10.7263514 C4.79471918,10.7263514 4.71373693,10.6453691 4.71373693,10.5454724 C4.71373693,10.539231 4.71405998,10.5329938 4.71470479,10.5267858 L4.9876667,7.89876897 C5.02595845,7.53010447 5.33666314,7.25 5.70731091,7.25 Z M8.64160585,10.1837146 L8.41010014,7.95482896 C8.4005272,7.86266284 8.32285103,7.79263672 8.23018909,7.79263672 L5.70731091,7.79263672 C5.61464897,7.79263672 5.5369728,7.86266284 5.52739986,7.95482896 L5.29589415,10.1837146 L8.64160585,10.1837146 Z M1.01333423,7.25 L3.5362124,7.25 C3.90686018,7.25 4.21756487,7.53010447 4.25585662,7.89876897 L4.52881853,10.5267858 C4.53913889,10.6261479 4.46695627,10.7150631 4.36759414,10.7253835 C4.36138612,10.7260283 4.35514889,10.7263514 4.34890748,10.7263514 L0.200639156,10.7263514 C0.100742494,10.7263514 0.0197602493,10.6453691 0.0197602493,10.5454724 C0.0197602493,10.539231 0.0200832989,10.5329938 0.0207281016,10.5267858 L0.293690013,7.89876897 C0.331981765,7.53010447 0.642686455,7.25 1.01333423,7.25 Z M0.601917467,10.1837146 L3.94762917,10.1837146 L3.71612346,7.95482896 C3.70655052,7.86266284 3.62887435,7.79263672 3.5362124,7.79263672 L1.01333423,7.79263672 C0.920672286,7.79263672 0.842996113,7.86266284 0.833423175,7.95482896 L0.601917467,10.1837146 Z M5.70731091,0.00760135135 L8.23018909,0.00760135135 C8.60083686,0.00760135135 8.91154155,0.287705823 8.9498333,0.656370323 L9.22279521,3.28438713 C9.23311557,3.38374926 9.16093296,3.47266449 9.06157082,3.48298485 C9.05536281,3.48362965 9.04912557,3.4839527 9.04288416,3.4839527 L4.89461584,3.4839527 C4.79471918,3.4839527 4.71373693,3.40297046 4.71373693,3.3030738 C4.71373693,3.29683238 4.71405998,3.29059515 4.71470479,3.28438713 L4.9876667,0.656370323 C5.02595845,0.287705823 5.33666314,0.00760135135 5.70731091,0.00760135135 Z M8.64160585,2.94131598 L8.41010014,0.712430313 C8.4005272,0.620264188 8.32285103,0.55023807 8.23018909,0.55023807 L5.70731091,0.55023807 C5.61464897,0.55023807 5.5369728,0.620264188 5.52739986,0.712430313 L5.29589415,2.94131598 L8.64160585,2.94131598 Z M8.05429925,3.62880068 L10.5771774,3.62880068 C10.9478252,3.62880068 11.2585299,3.90890515 11.2968216,4.27756965 L11.5697836,6.90558646 C11.5801039,7.00494859 11.5079213,7.09386382 11.4085592,7.10418417 C11.4023511,7.10482898 11.3961139,7.10515203 11.3898725,7.10515203 L7.24160418,7.10515203 C7.14170752,7.10515203 7.06072528,7.02416978 7.06072528,6.92427312 C7.06072528,6.91803171 7.06104832,6.91179448 7.06169313,6.90558646 L7.33465504,4.27756965 C7.37294679,3.90890515 7.68365148,3.62880068 8.05429925,3.62880068 Z M10.9885942,6.56251531 L10.7570885,4.33362964 C10.7475155,4.24146351 10.6698394,4.17143739 10.5771774,4.17143739 L8.05429925,4.17143739 C7.96163731,4.17143739 7.88396114,4.24146351 7.8743882,4.33362964 L7.64288249,6.56251531 L10.9885942,6.56251531 Z M3.36032257,3.62880068 L5.88320075,3.62880068 C6.25384852,3.62880068 6.56455321,3.90890515 6.60284496,4.27756965 L6.87580687,6.90558646 C6.88612723,7.00494859 6.81394461,7.09386382 6.71458248,7.10418417 C6.70837446,7.10482898 6.70213723,7.10515203 6.69589582,7.10515203 L2.5476275,7.10515203 C2.44773084,7.10515203 2.36674859,7.02416978 2.36674859,6.92427312 C2.36674859,6.91803171 2.36707164,6.91179448 2.36771644,6.90558646 L2.64067836,4.27756965 C2.67897011,3.90890515 2.9896748,3.62880068 3.36032257,3.62880068 Z M6.29461751,6.56251531 L6.0631118,4.33362964 C6.05353886,4.24146351 5.97586269,4.17143739 5.88320075,4.17143739 L3.36032257,4.17143739 C3.26766063,4.17143739 3.18998445,4.24146351 3.18041152,4.33362964 L2.94890581,6.56251531 L6.29461751,6.56251531 Z" id="Combined-Shape"></path>
            </g>
        </g>
    </g>
</svg>
