<?xml version="1.0" encoding="UTF-8"?>
<svg width="16px" height="16px" viewBox="0 0 16 16" version="1.1" xmlns="http://www.w3.org/2000/svg" xmlns:xlink="http://www.w3.org/1999/xlink">
    <!-- Generator: Sketch 49.2 (51160) - http://www.bohemiancoding.com/sketch -->
    <title>Security</title>
    <desc>Created with Sketch.</desc>
    <defs></defs>
    <g id="Security-16px" stroke="none" stroke-width="1" fill="none" fill-rule="evenodd">
        <path d="M8.00448544,15.0625 C4.37948544,12.9731622 2.56698544,10.6398288 2.56698544,8.0625 C2.56698544,6.77120553 2.41965696,5.01389353 2.125,2.790564 L8.00448544,1.0625 L13.8820255,2.790564 C13.5886655,5.013235 13.4419854,6.770547 13.4419854,8.0625 C13.4419854,10.6398288 11.6294854,12.9731622 8.00448544,15.0625 Z M12.9732354,8.0625 C12.9732354,6.82557453 13.104246,5.18183028 13.3656897,3.1273455 L8.00446357,1.55108371 L2.64154549,3.12732125 C2.90414462,5.18237368 3.03573544,6.82611654 3.03573544,8.0625 C3.03573544,10.3891648 4.66787894,12.5428735 8.00448544,14.519605 C11.3410923,12.542873 12.9732354,10.3891646 12.9732354,8.0625 Z M8.01640321,13.59375 C5.11620909,11.9241452 3.66611202,10.0595619 3.66611202,8 C3.66611202,6.96811737 3.54824135,5.56383679 3.3125,3.78715829 L8.01640321,2.40625 L12.71875,3.78715829 C12.4840463,5.56331056 12.3666944,6.96759113 12.3666944,8 C12.3666944,10.0595619 10.9165973,11.9241452 8.01640321,13.59375 Z" id="Combined-Shape" fill="#689BFF"></path>
    </g>
</svg>
