<?xml version="1.0" encoding="UTF-8"?>
<svg width="512px" height="512px" viewBox="0 0 512 512" version="1.1" xmlns="http://www.w3.org/2000/svg" xmlns:xlink="http://www.w3.org/1999/xlink">
    <!-- Generator: Sketch 49.1 (51147) - http://www.bohemiancoding.com/sketch -->
    <title>Service Discovery</title>
    <desc>Created with Sketch.</desc>
    <defs></defs>
    <g id="Discovery" stroke="none" stroke-width="1" fill="none" fill-rule="evenodd" stroke-linecap="round">
        <path d="M256,478 C133.392786,478 34,378.607214 34,256 C34,211.034105 47.3687037,169.190638 70.3483147,134.227395 C60.3762082,126.161046 54,113.825145 54,100 C54,75.699471 73.699471,56 98,56 C111.624656,56 123.802949,62.1926169 131.873782,71.9167532 M204.420694,40.0230706 C220.972576,36.084831 238.242819,34 256,34 C378.607214,34 478,133.392786 478,256 C478,279.081283 474.477567,301.339858 467.940935,322.267491 C461.420869,343.142089 451.901861,362.692483 439.888291,380.414292 C452.548507,388.140395 461,402.083221 461,418 C461,442.300529 441.300529,462 417,462 C400.986215,462 386.970516,453.445175 379.273723,440.656345 M322.583317,467.834827 C301.549433,474.444321 279.189953,478 256,478 M439.498114,380.987933 C439.628464,380.796933 439.758523,380.605719 439.888291,380.414292 C433.219851,376.344767 425.38375,374 417,374 C392.699471,374 373,393.699471 373,418 C373,426.286744 375.29082,434.038438 379.273723,440.656345 M98,144 C122.300529,144 142,124.300529 142,100 C142,89.3241272 138.197844,79.5362954 131.873782,71.9167532 M70.3483147,134.227395 C77.9042317,140.339309 87.5246158,144 98,144" id="Combined-Shape" stroke="#689BFF" stroke-width="15"></path>
        <path d="M385.326474,210.680091 C366.617534,157.288584 315.780156,119 256,119 C180.336989,119 119,180.336989 119,256 C119,331.663011 180.336989,393 256,393 C315.074795,393 365.416603,355.609639 384.650838,303.203502" id="Oval-7" stroke="#689BFF" stroke-width="15" transform="translate(252.163237, 256.000000) rotate(-330.000000) translate(-252.163237, -256.000000) "></path>
    </g>
</svg>
