<?xml version="1.0" encoding="UTF-8" standalone="no"?>
<svg
   xmlns:dc="http://purl.org/dc/elements/1.1/"
   xmlns:cc="http://creativecommons.org/ns#"
   xmlns:rdf="http://www.w3.org/1999/02/22-rdf-syntax-ns#"
   xmlns:svg="http://www.w3.org/2000/svg"
   xmlns="http://www.w3.org/2000/svg"
   xmlns:sodipodi="http://sodipodi.sourceforge.net/DTD/sodipodi-0.dtd"
   xmlns:inkscape="http://www.inkscape.org/namespaces/inkscape"
   width="16"
   height="16"
   viewBox="0 0 16 16"
   version="1.1"
   id="svg11"
   sodipodi:docname="service-discovery.svg"
   inkscape:version="0.92.3 (2405546, 2018-03-11)">
  <metadata
     id="metadata15">
    <rdf:RDF>
      <cc:Work
         rdf:about="">
        <dc:format>image/svg+xml</dc:format>
        <dc:type
           rdf:resource="http://purl.org/dc/dcmitype/StillImage" />
        <dc:title>Service Discovery</dc:title>
      </cc:Work>
    </rdf:RDF>
  </metadata>
  <sodipodi:namedview
     pagecolor="#ffffff"
     bordercolor="#666666"
     borderopacity="1"
     objecttolerance="10"
     gridtolerance="10"
     guidetolerance="10"
     inkscape:pageopacity="0"
     inkscape:pageshadow="2"
     inkscape:window-width="2560"
     inkscape:window-height="1346"
     id="namedview13"
     showgrid="false"
     inkscape:zoom="20.85965"
     inkscape:cx="-1.8588329"
     inkscape:cy="-2.1470125"
     inkscape:window-x="2549"
     inkscape:window-y="-11"
     inkscape:window-maximized="1"
     inkscape:current-layer="svg11" />
  <!-- Generator: Sketch 49.1 (51147) - http://www.bohemiancoding.com/sketch -->
  <title
     id="title2">Service Discovery</title>
  <desc
     id="desc4">Created with Sketch.</desc>
  <defs
     id="defs6" />
  <g
     id="Discovery"
     transform="matrix(0.03485835,0,0,0.03485834,-0.9237376,-0.92374811)"
     style="fill:none;fill-rule:evenodd;stroke:none;stroke-width:1;stroke-linecap:round">
    <path
       d="M 256,478 C 133.39279,478 34,378.60721 34,256 34,211.0341 47.368704,169.19064 70.348315,134.22739 60.376208,126.16105 54,113.82515 54,100 54,75.699471 73.699471,56 98,56 c 13.62466,0 25.80295,6.192617 33.87378,15.916753 M 204.42069,40.023071 C 220.97258,36.084831 238.24282,34 256,34 c 122.60721,0 222,99.39279 222,222 0,23.08128 -3.52243,45.33986 -10.05906,66.26749 -6.52007,20.8746 -16.03908,40.42499 -28.05265,58.1468 C 452.54851,388.14039 461,402.08322 461,418 c 0,24.30053 -19.69947,44 -44,44 -16.01378,0 -30.02948,-8.55483 -37.72628,-21.34366 m -56.6904,27.17849 C 301.54943,474.44432 279.18995,478 256,478 m 183.49811,-97.01207 c 0.13035,-0.191 0.26041,-0.38221 0.39018,-0.57364 C 433.21985,376.34477 425.38375,374 417,374 c -24.30053,0 -44,19.69947 -44,44 0,8.28674 2.29082,16.03844 6.27372,22.65634 M 98,144 c 24.30053,0 44,-19.69947 44,-44 0,-10.675873 -3.80216,-20.463705 -10.12622,-28.083247 M 70.348315,134.22739 C 77.904232,140.33931 87.524616,144 98,144"
       id="Combined-Shape"
       inkscape:connector-curvature="0"
       style="stroke:#689bff;stroke-width:15" />
    <path
       d="M 385.32647,210.68009 C 366.61753,157.28858 315.78016,119 256,119 c -75.66301,0 -137,61.33699 -137,137 0,75.66301 61.33699,137 137,137 59.07479,0 109.4166,-37.39036 128.65084,-89.7965"
       id="Oval-7"
       transform="rotate(30,252.16324,256)"
       inkscape:connector-curvature="0"
       style="stroke:#689bff;stroke-width:15" />
  </g>
</svg>
